<?xml version="1.0" encoding="utf-8" standalone="no"?>
<!DOCTYPE svg PUBLIC "-//W3C//DTD SVG 1.1//EN"
  "http://www.w3.org/Graphics/SVG/1.1/DTD/svg11.dtd">
<!-- Created with matplotlib (https://matplotlib.org/) -->
<svg height="360pt" version="1.1" viewBox="0 0 648 360" width="648pt" xmlns="http://www.w3.org/2000/svg" xmlns:xlink="http://www.w3.org/1999/xlink">
 <metadata>
  <rdf:RDF xmlns:cc="http://creativecommons.org/ns#" xmlns:dc="http://purl.org/dc/elements/1.1/" xmlns:rdf="http://www.w3.org/1999/02/22-rdf-syntax-ns#">
   <cc:Work>
    <dc:type rdf:resource="http://purl.org/dc/dcmitype/StillImage"/>
    <dc:date>2021-01-19T11:51:32.061273</dc:date>
    <dc:format>image/svg+xml</dc:format>
    <dc:creator>
     <cc:Agent>
      <dc:title>Matplotlib v3.3.3, https://matplotlib.org/</dc:title>
     </cc:Agent>
    </dc:creator>
   </cc:Work>
  </rdf:RDF>
 </metadata>
 <defs>
  <style type="text/css">*{stroke-linecap:butt;stroke-linejoin:round;}</style>
 </defs>
 <g id="figure_1">
  <g id="patch_1">
   <path d="M 0 360 
L 648 360 
L 648 0 
L 0 0 
z
" style="fill:#ffffff;"/>
  </g>
  <g id="axes_1">
   <g id="patch_2">
    <path d="M 81 320.4 
L 583.2 320.4 
L 583.2 43.2 
L 81 43.2 
z
" style="fill:#ffffff;"/>
   </g>
   <g id="matplotlib.axis_1">
    <g id="xtick_1">
     <g id="line2d_1">
      <defs>
       <path d="M 0 0 
L 0 3.5 
" id="m554b0d59d5" style="stroke:#000000;stroke-width:0.8;"/>
      </defs>
      <g>
       <use style="stroke:#000000;stroke-width:0.8;" x="117.502597" xlink:href="#m554b0d59d5" y="320.4"/>
      </g>
     </g>
     <g id="text_1">
      <!-- 2 -->
      <g transform="translate(114.321347 334.998438)scale(0.1 -0.1)">
       <defs>
        <path d="M 19.1875 8.296875 
L 53.609375 8.296875 
L 53.609375 0 
L 7.328125 0 
L 7.328125 8.296875 
Q 12.9375 14.109375 22.625 23.890625 
Q 32.328125 33.6875 34.8125 36.53125 
Q 39.546875 41.84375 41.421875 45.53125 
Q 43.3125 49.21875 43.3125 52.78125 
Q 43.3125 58.59375 39.234375 62.25 
Q 35.15625 65.921875 28.609375 65.921875 
Q 23.96875 65.921875 18.8125 64.3125 
Q 13.671875 62.703125 7.8125 59.421875 
L 7.8125 69.390625 
Q 13.765625 71.78125 18.9375 73 
Q 24.125 74.21875 28.421875 74.21875 
Q 39.75 74.21875 46.484375 68.546875 
Q 53.21875 62.890625 53.21875 53.421875 
Q 53.21875 48.921875 51.53125 44.890625 
Q 49.859375 40.875 45.40625 35.40625 
Q 44.1875 33.984375 37.640625 27.21875 
Q 31.109375 20.453125 19.1875 8.296875 
z
" id="DejaVuSans-50"/>
       </defs>
       <use xlink:href="#DejaVuSans-50"/>
      </g>
     </g>
    </g>
    <g id="xtick_2">
     <g id="line2d_2">
      <g>
       <use style="stroke:#000000;stroke-width:0.8;" x="222.697403" xlink:href="#m554b0d59d5" y="320.4"/>
      </g>
     </g>
     <g id="text_2">
      <!-- 3 -->
      <g transform="translate(219.516153 334.998438)scale(0.1 -0.1)">
       <defs>
        <path d="M 40.578125 39.3125 
Q 47.65625 37.796875 51.625 33 
Q 55.609375 28.21875 55.609375 21.1875 
Q 55.609375 10.40625 48.1875 4.484375 
Q 40.765625 -1.421875 27.09375 -1.421875 
Q 22.515625 -1.421875 17.65625 -0.515625 
Q 12.796875 0.390625 7.625 2.203125 
L 7.625 11.71875 
Q 11.71875 9.328125 16.59375 8.109375 
Q 21.484375 6.890625 26.8125 6.890625 
Q 36.078125 6.890625 40.9375 10.546875 
Q 45.796875 14.203125 45.796875 21.1875 
Q 45.796875 27.640625 41.28125 31.265625 
Q 36.765625 34.90625 28.71875 34.90625 
L 20.21875 34.90625 
L 20.21875 43.015625 
L 29.109375 43.015625 
Q 36.375 43.015625 40.234375 45.921875 
Q 44.09375 48.828125 44.09375 54.296875 
Q 44.09375 59.90625 40.109375 62.90625 
Q 36.140625 65.921875 28.71875 65.921875 
Q 24.65625 65.921875 20.015625 65.03125 
Q 15.375 64.15625 9.8125 62.3125 
L 9.8125 71.09375 
Q 15.4375 72.65625 20.34375 73.4375 
Q 25.25 74.21875 29.59375 74.21875 
Q 40.828125 74.21875 47.359375 69.109375 
Q 53.90625 64.015625 53.90625 55.328125 
Q 53.90625 49.265625 50.4375 45.09375 
Q 46.96875 40.921875 40.578125 39.3125 
z
" id="DejaVuSans-51"/>
       </defs>
       <use xlink:href="#DejaVuSans-51"/>
      </g>
     </g>
    </g>
    <g id="xtick_3">
     <g id="line2d_3">
      <g>
       <use style="stroke:#000000;stroke-width:0.8;" x="327.892208" xlink:href="#m554b0d59d5" y="320.4"/>
      </g>
     </g>
     <g id="text_3">
      <!-- 4 -->
      <g transform="translate(324.710958 334.998438)scale(0.1 -0.1)">
       <defs>
        <path d="M 37.796875 64.3125 
L 12.890625 25.390625 
L 37.796875 25.390625 
z
M 35.203125 72.90625 
L 47.609375 72.90625 
L 47.609375 25.390625 
L 58.015625 25.390625 
L 58.015625 17.1875 
L 47.609375 17.1875 
L 47.609375 0 
L 37.796875 0 
L 37.796875 17.1875 
L 4.890625 17.1875 
L 4.890625 26.703125 
z
" id="DejaVuSans-52"/>
       </defs>
       <use xlink:href="#DejaVuSans-52"/>
      </g>
     </g>
    </g>
    <g id="xtick_4">
     <g id="line2d_4">
      <g>
       <use style="stroke:#000000;stroke-width:0.8;" x="433.087013" xlink:href="#m554b0d59d5" y="320.4"/>
      </g>
     </g>
     <g id="text_4">
      <!-- 5 -->
      <g transform="translate(429.905763 334.998438)scale(0.1 -0.1)">
       <defs>
        <path d="M 10.796875 72.90625 
L 49.515625 72.90625 
L 49.515625 64.59375 
L 19.828125 64.59375 
L 19.828125 46.734375 
Q 21.96875 47.46875 24.109375 47.828125 
Q 26.265625 48.1875 28.421875 48.1875 
Q 40.625 48.1875 47.75 41.5 
Q 54.890625 34.8125 54.890625 23.390625 
Q 54.890625 11.625 47.5625 5.09375 
Q 40.234375 -1.421875 26.90625 -1.421875 
Q 22.3125 -1.421875 17.546875 -0.640625 
Q 12.796875 0.140625 7.71875 1.703125 
L 7.71875 11.625 
Q 12.109375 9.234375 16.796875 8.0625 
Q 21.484375 6.890625 26.703125 6.890625 
Q 35.15625 6.890625 40.078125 11.328125 
Q 45.015625 15.765625 45.015625 23.390625 
Q 45.015625 31 40.078125 35.4375 
Q 35.15625 39.890625 26.703125 39.890625 
Q 22.75 39.890625 18.8125 39.015625 
Q 14.890625 38.140625 10.796875 36.28125 
z
" id="DejaVuSans-53"/>
       </defs>
       <use xlink:href="#DejaVuSans-53"/>
      </g>
     </g>
    </g>
    <g id="xtick_5">
     <g id="line2d_5">
      <g>
       <use style="stroke:#000000;stroke-width:0.8;" x="538.281818" xlink:href="#m554b0d59d5" y="320.4"/>
      </g>
     </g>
     <g id="text_5">
      <!-- 6 -->
      <g transform="translate(535.100568 334.998438)scale(0.1 -0.1)">
       <defs>
        <path d="M 33.015625 40.375 
Q 26.375 40.375 22.484375 35.828125 
Q 18.609375 31.296875 18.609375 23.390625 
Q 18.609375 15.53125 22.484375 10.953125 
Q 26.375 6.390625 33.015625 6.390625 
Q 39.65625 6.390625 43.53125 10.953125 
Q 47.40625 15.53125 47.40625 23.390625 
Q 47.40625 31.296875 43.53125 35.828125 
Q 39.65625 40.375 33.015625 40.375 
z
M 52.59375 71.296875 
L 52.59375 62.3125 
Q 48.875 64.0625 45.09375 64.984375 
Q 41.3125 65.921875 37.59375 65.921875 
Q 27.828125 65.921875 22.671875 59.328125 
Q 17.53125 52.734375 16.796875 39.40625 
Q 19.671875 43.65625 24.015625 45.921875 
Q 28.375 48.1875 33.59375 48.1875 
Q 44.578125 48.1875 50.953125 41.515625 
Q 57.328125 34.859375 57.328125 23.390625 
Q 57.328125 12.15625 50.6875 5.359375 
Q 44.046875 -1.421875 33.015625 -1.421875 
Q 20.359375 -1.421875 13.671875 8.265625 
Q 6.984375 17.96875 6.984375 36.375 
Q 6.984375 53.65625 15.1875 63.9375 
Q 23.390625 74.21875 37.203125 74.21875 
Q 40.921875 74.21875 44.703125 73.484375 
Q 48.484375 72.75 52.59375 71.296875 
z
" id="DejaVuSans-54"/>
       </defs>
       <use xlink:href="#DejaVuSans-54"/>
      </g>
     </g>
    </g>
   </g>
   <g id="matplotlib.axis_2">
    <g id="ytick_1">
     <g id="line2d_6">
      <defs>
       <path d="M 0 0 
L -3.5 0 
" id="m91d5c7357d" style="stroke:#000000;stroke-width:0.8;"/>
      </defs>
      <g>
       <use style="stroke:#000000;stroke-width:0.8;" x="81" xlink:href="#m91d5c7357d" y="306.31062"/>
      </g>
     </g>
     <g id="text_6">
      <!-- 2 -->
      <g transform="translate(67.6375 310.109839)scale(0.1 -0.1)">
       <use xlink:href="#DejaVuSans-50"/>
      </g>
     </g>
    </g>
    <g id="ytick_2">
     <g id="line2d_7">
      <g>
       <use style="stroke:#000000;stroke-width:0.8;" x="81" xlink:href="#m91d5c7357d" y="251.275607"/>
      </g>
     </g>
     <g id="text_7">
      <!-- 3 -->
      <g transform="translate(67.6375 255.074826)scale(0.1 -0.1)">
       <use xlink:href="#DejaVuSans-51"/>
      </g>
     </g>
    </g>
    <g id="ytick_3">
     <g id="line2d_8">
      <g>
       <use style="stroke:#000000;stroke-width:0.8;" x="81" xlink:href="#m91d5c7357d" y="196.240595"/>
      </g>
     </g>
     <g id="text_8">
      <!-- 4 -->
      <g transform="translate(67.6375 200.039814)scale(0.1 -0.1)">
       <use xlink:href="#DejaVuSans-52"/>
      </g>
     </g>
    </g>
    <g id="ytick_4">
     <g id="line2d_9">
      <g>
       <use style="stroke:#000000;stroke-width:0.8;" x="81" xlink:href="#m91d5c7357d" y="141.205582"/>
      </g>
     </g>
     <g id="text_9">
      <!-- 5 -->
      <g transform="translate(67.6375 145.004801)scale(0.1 -0.1)">
       <use xlink:href="#DejaVuSans-53"/>
      </g>
     </g>
    </g>
    <g id="ytick_5">
     <g id="line2d_10">
      <g>
       <use style="stroke:#000000;stroke-width:0.8;" x="81" xlink:href="#m91d5c7357d" y="86.17057"/>
      </g>
     </g>
     <g id="text_10">
      <!-- 6 -->
      <g transform="translate(67.6375 89.969789)scale(0.1 -0.1)">
       <use xlink:href="#DejaVuSans-54"/>
      </g>
     </g>
    </g>
   </g>
   <g id="line2d_11">
    <defs>
     <path d="M 0 1.5 
C 0.397805 1.5 0.77937 1.341951 1.06066 1.06066 
C 1.341951 0.77937 1.5 0.397805 1.5 0 
C 1.5 -0.397805 1.341951 -0.77937 1.06066 -1.06066 
C 0.77937 -1.341951 0.397805 -1.5 0 -1.5 
C -0.397805 -1.5 -0.77937 -1.341951 -1.06066 -1.06066 
C -1.341951 -0.77937 -1.5 -0.397805 -1.5 0 
C -1.5 0.397805 -1.341951 0.77937 -1.06066 1.06066 
C -0.77937 1.341951 -0.397805 1.5 0 1.5 
z
" id="ma318cbe8ea" style="stroke:#ff0000;"/>
    </defs>
    <g clip-path="url(#pdc861af061)">
     <use style="fill:#ff0000;stroke:#ff0000;" x="103.827273" xlink:href="#ma318cbe8ea" y="157.165736"/>
     <use style="fill:#ff0000;stroke:#ff0000;" x="112.242857" xlink:href="#ma318cbe8ea" y="165.971338"/>
     <use style="fill:#ff0000;stroke:#ff0000;" x="126.97013" xlink:href="#ma318cbe8ea" y="159.367137"/>
     <use style="fill:#ff0000;stroke:#ff0000;" x="138.541558" xlink:href="#ma318cbe8ea" y="170.924489"/>
     <use style="fill:#ff0000;stroke:#ff0000;" x="140.645455" xlink:href="#ma318cbe8ea" y="165.971338"/>
     <use style="fill:#ff0000;stroke:#ff0000;" x="161.684416" xlink:href="#ma318cbe8ea" y="168.172739"/>
     <use style="fill:#ff0000;stroke:#ff0000;" x="173.255844" xlink:href="#ma318cbe8ea" y="164.870638"/>
     <use style="fill:#ff0000;stroke:#ff0000;" x="176.411688" xlink:href="#ma318cbe8ea" y="165.971338"/>
     <use style="fill:#ff0000;stroke:#ff0000;" x="179.567532" xlink:href="#ma318cbe8ea" y="164.320288"/>
     <use style="fill:#ff0000;stroke:#ff0000;" x="179.567532" xlink:href="#ma318cbe8ea" y="165.420988"/>
     <use style="fill:#ff0000;stroke:#ff0000;" x="185.879221" xlink:href="#ma318cbe8ea" y="170.924489"/>
     <use style="fill:#ff0000;stroke:#ff0000;" x="201.658442" xlink:href="#ma318cbe8ea" y="175.32729"/>
     <use style="fill:#ff0000;stroke:#ff0000;" x="201.658442" xlink:href="#ma318cbe8ea" y="168.172739"/>
     <use style="fill:#ff0000;stroke:#ff0000;" x="204.814286" xlink:href="#ma318cbe8ea" y="169.823789"/>
     <use style="fill:#ff0000;stroke:#ff0000;" x="206.918182" xlink:href="#ma318cbe8ea" y="171.474839"/>
     <use style="fill:#ff0000;stroke:#ff0000;" x="209.022078" xlink:href="#ma318cbe8ea" y="171.474839"/>
     <use style="fill:#ff0000;stroke:#ff0000;" x="212.177922" xlink:href="#ma318cbe8ea" y="170.924489"/>
     <use style="fill:#ff0000;stroke:#ff0000;" x="212.177922" xlink:href="#ma318cbe8ea" y="170.374139"/>
     <use style="fill:#ff0000;stroke:#ff0000;" x="219.541558" xlink:href="#ma318cbe8ea" y="171.474839"/>
     <use style="fill:#ff0000;stroke:#ff0000;" x="219.541558" xlink:href="#ma318cbe8ea" y="172.57554"/>
     <use style="fill:#ff0000;stroke:#ff0000;" x="219.541558" xlink:href="#ma318cbe8ea" y="173.67624"/>
     <use style="fill:#ff0000;stroke:#ff0000;" x="220.593506" xlink:href="#ma318cbe8ea" y="175.87764"/>
     <use style="fill:#ff0000;stroke:#ff0000;" x="238.476623" xlink:href="#ma318cbe8ea" y="178.079041"/>
     <use style="fill:#ff0000;stroke:#ff0000;" x="241.632468" xlink:href="#ma318cbe8ea" y="178.079041"/>
     <use style="fill:#ff0000;stroke:#ff0000;" x="241.632468" xlink:href="#ma318cbe8ea" y="166.521688"/>
     <use style="fill:#ff0000;stroke:#ff0000;" x="246.892208" xlink:href="#ma318cbe8ea" y="173.12589"/>
     <use style="fill:#ff0000;stroke:#ff0000;" x="251.1" xlink:href="#ma318cbe8ea" y="180.280441"/>
     <use style="fill:#ff0000;stroke:#ff0000;" x="256.35974" xlink:href="#ma318cbe8ea" y="174.77694"/>
     <use style="fill:#ff0000;stroke:#ff0000;" x="257.411688" xlink:href="#ma318cbe8ea" y="183.032192"/>
     <use style="fill:#ff0000;stroke:#ff0000;" x="259.515584" xlink:href="#ma318cbe8ea" y="174.22659"/>
     <use style="fill:#ff0000;stroke:#ff0000;" x="262.671429" xlink:href="#ma318cbe8ea" y="176.978341"/>
     <use style="fill:#ff0000;stroke:#ff0000;" x="264.775325" xlink:href="#ma318cbe8ea" y="180.280441"/>
     <use style="fill:#ff0000;stroke:#ff0000;" x="266.879221" xlink:href="#ma318cbe8ea" y="177.528691"/>
     <use style="fill:#ff0000;stroke:#ff0000;" x="270.035065" xlink:href="#ma318cbe8ea" y="176.978341"/>
     <use style="fill:#ff0000;stroke:#ff0000;" x="270.035065" xlink:href="#ma318cbe8ea" y="178.629391"/>
     <use style="fill:#ff0000;stroke:#ff0000;" x="275.294805" xlink:href="#ma318cbe8ea" y="180.830791"/>
     <use style="fill:#ff0000;stroke:#ff0000;" x="283.71039" xlink:href="#ma318cbe8ea" y="179.179741"/>
     <use style="fill:#ff0000;stroke:#ff0000;" x="295.281818" xlink:href="#ma318cbe8ea" y="178.079041"/>
     <use style="fill:#ff0000;stroke:#ff0000;" x="296.333766" xlink:href="#ma318cbe8ea" y="178.079041"/>
     <use style="fill:#ff0000;stroke:#ff0000;" x="298.437662" xlink:href="#ma318cbe8ea" y="180.830791"/>
     <use style="fill:#ff0000;stroke:#ff0000;" x="300.541558" xlink:href="#ma318cbe8ea" y="183.032192"/>
     <use style="fill:#ff0000;stroke:#ff0000;" x="301.593506" xlink:href="#ma318cbe8ea" y="183.582542"/>
     <use style="fill:#ff0000;stroke:#ff0000;" x="303.697403" xlink:href="#ma318cbe8ea" y="179.179741"/>
     <use style="fill:#ff0000;stroke:#ff0000;" x="312.112987" xlink:href="#ma318cbe8ea" y="180.830791"/>
     <use style="fill:#ff0000;stroke:#ff0000;" x="317.372727" xlink:href="#ma318cbe8ea" y="180.830791"/>
     <use style="fill:#ff0000;stroke:#ff0000;" x="317.372727" xlink:href="#ma318cbe8ea" y="184.683242"/>
     <use style="fill:#ff0000;stroke:#ff0000;" x="318.424675" xlink:href="#ma318cbe8ea" y="183.032192"/>
     <use style="fill:#ff0000;stroke:#ff0000;" x="319.476623" xlink:href="#ma318cbe8ea" y="176.978341"/>
     <use style="fill:#ff0000;stroke:#ff0000;" x="326.84026" xlink:href="#ma318cbe8ea" y="181.931492"/>
     <use style="fill:#ff0000;stroke:#ff0000;" x="332.1" xlink:href="#ma318cbe8ea" y="183.032192"/>
     <use style="fill:#ff0000;stroke:#ff0000;" x="332.1" xlink:href="#ma318cbe8ea" y="180.830791"/>
     <use style="fill:#ff0000;stroke:#ff0000;" x="333.151948" xlink:href="#ma318cbe8ea" y="186.334293"/>
     <use style="fill:#ff0000;stroke:#ff0000;" x="335.255844" xlink:href="#ma318cbe8ea" y="182.481842"/>
     <use style="fill:#ff0000;stroke:#ff0000;" x="338.411688" xlink:href="#ma318cbe8ea" y="179.179741"/>
     <use style="fill:#ff0000;stroke:#ff0000;" x="340.515584" xlink:href="#ma318cbe8ea" y="187.434993"/>
     <use style="fill:#ff0000;stroke:#ff0000;" x="344.723377" xlink:href="#ma318cbe8ea" y="183.032192"/>
     <use style="fill:#ff0000;stroke:#ff0000;" x="349.983117" xlink:href="#ma318cbe8ea" y="185.233592"/>
     <use style="fill:#ff0000;stroke:#ff0000;" x="352.087013" xlink:href="#ma318cbe8ea" y="179.730091"/>
     <use style="fill:#ff0000;stroke:#ff0000;" x="353.138961" xlink:href="#ma318cbe8ea" y="180.830791"/>
     <use style="fill:#ff0000;stroke:#ff0000;" x="353.138961" xlink:href="#ma318cbe8ea" y="180.830791"/>
     <use style="fill:#ff0000;stroke:#ff0000;" x="361.554545" xlink:href="#ma318cbe8ea" y="183.582542"/>
     <use style="fill:#ff0000;stroke:#ff0000;" x="364.71039" xlink:href="#ma318cbe8ea" y="184.132892"/>
     <use style="fill:#ff0000;stroke:#ff0000;" x="364.71039" xlink:href="#ma318cbe8ea" y="189.636393"/>
     <use style="fill:#ff0000;stroke:#ff0000;" x="365.762338" xlink:href="#ma318cbe8ea" y="181.931492"/>
     <use style="fill:#ff0000;stroke:#ff0000;" x="373.125974" xlink:href="#ma318cbe8ea" y="176.42799"/>
     <use style="fill:#ff0000;stroke:#ff0000;" x="375.22987" xlink:href="#ma318cbe8ea" y="178.079041"/>
     <use style="fill:#ff0000;stroke:#ff0000;" x="375.22987" xlink:href="#ma318cbe8ea" y="178.629391"/>
     <use style="fill:#ff0000;stroke:#ff0000;" x="377.333766" xlink:href="#ma318cbe8ea" y="175.87764"/>
     <use style="fill:#ff0000;stroke:#ff0000;" x="379.437662" xlink:href="#ma318cbe8ea" y="174.22659"/>
     <use style="fill:#ff0000;stroke:#ff0000;" x="387.853247" xlink:href="#ma318cbe8ea" y="174.77694"/>
     <use style="fill:#ff0000;stroke:#ff0000;" x="389.957143" xlink:href="#ma318cbe8ea" y="181.381142"/>
     <use style="fill:#ff0000;stroke:#ff0000;" x="391.009091" xlink:href="#ma318cbe8ea" y="178.629391"/>
     <use style="fill:#ff0000;stroke:#ff0000;" x="391.009091" xlink:href="#ma318cbe8ea" y="176.978341"/>
     <use style="fill:#ff0000;stroke:#ff0000;" x="392.061039" xlink:href="#ma318cbe8ea" y="178.629391"/>
     <use style="fill:#ff0000;stroke:#ff0000;" x="402.580519" xlink:href="#ma318cbe8ea" y="177.528691"/>
     <use style="fill:#ff0000;stroke:#ff0000;" x="406.788312" xlink:href="#ma318cbe8ea" y="178.079041"/>
     <use style="fill:#ff0000;stroke:#ff0000;" x="408.892208" xlink:href="#ma318cbe8ea" y="170.924489"/>
     <use style="fill:#ff0000;stroke:#ff0000;" x="409.944156" xlink:href="#ma318cbe8ea" y="178.079041"/>
     <use style="fill:#ff0000;stroke:#ff0000;" x="414.151948" xlink:href="#ma318cbe8ea" y="170.924489"/>
     <use style="fill:#ff0000;stroke:#ff0000;" x="422.567532" xlink:href="#ma318cbe8ea" y="165.420988"/>
     <use style="fill:#ff0000;stroke:#ff0000;" x="429.931169" xlink:href="#ma318cbe8ea" y="174.22659"/>
     <use style="fill:#ff0000;stroke:#ff0000;" x="432.035065" xlink:href="#ma318cbe8ea" y="168.723089"/>
     <use style="fill:#ff0000;stroke:#ff0000;" x="435.190909" xlink:href="#ma318cbe8ea" y="165.420988"/>
     <use style="fill:#ff0000;stroke:#ff0000;" x="438.346753" xlink:href="#ma318cbe8ea" y="164.320288"/>
     <use style="fill:#ff0000;stroke:#ff0000;" x="438.346753" xlink:href="#ma318cbe8ea" y="163.769938"/>
     <use style="fill:#ff0000;stroke:#ff0000;" x="439.398701" xlink:href="#ma318cbe8ea" y="165.971338"/>
     <use style="fill:#ff0000;stroke:#ff0000;" x="448.866234" xlink:href="#ma318cbe8ea" y="162.118887"/>
     <use style="fill:#ff0000;stroke:#ff0000;" x="454.125974" xlink:href="#ma318cbe8ea" y="163.769938"/>
     <use style="fill:#ff0000;stroke:#ff0000;" x="462.541558" xlink:href="#ma318cbe8ea" y="153.313285"/>
     <use style="fill:#ff0000;stroke:#ff0000;" x="462.541558" xlink:href="#ma318cbe8ea" y="159.917487"/>
     <use style="fill:#ff0000;stroke:#ff0000;" x="467.801299" xlink:href="#ma318cbe8ea" y="157.165736"/>
     <use style="fill:#ff0000;stroke:#ff0000;" x="473.061039" xlink:href="#ma318cbe8ea" y="151.662235"/>
     <use style="fill:#ff0000;stroke:#ff0000;" x="475.164935" xlink:href="#ma318cbe8ea" y="157.165736"/>
     <use style="fill:#ff0000;stroke:#ff0000;" x="489.892208" xlink:href="#ma318cbe8ea" y="149.460834"/>
     <use style="fill:#ff0000;stroke:#ff0000;" x="502.515584" xlink:href="#ma318cbe8ea" y="145.058033"/>
     <use style="fill:#ff0000;stroke:#ff0000;" x="505.671429" xlink:href="#ma318cbe8ea" y="142.856633"/>
     <use style="fill:#ff0000;stroke:#ff0000;" x="514.087013" xlink:href="#ma318cbe8ea" y="138.453832"/>
     <use style="fill:#ff0000;stroke:#ff0000;" x="521.450649" xlink:href="#ma318cbe8ea" y="132.950331"/>
     <use style="fill:#ff0000;stroke:#ff0000;" x="537.22987" xlink:href="#ma318cbe8ea" y="132.950331"/>
     <use style="fill:#ff0000;stroke:#ff0000;" x="560.372727" xlink:href="#ma318cbe8ea" y="117.540527"/>
    </g>
   </g>
   <g id="line2d_12">
    <path clip-path="url(#pdc861af061)" d="M 103.827273 307.8 
L 112.242857 303.154839 
L 126.97013 295.025806 
L 138.541558 288.63871 
L 140.645455 287.477419 
L 161.684416 275.864516 
L 173.255844 269.477419 
L 176.411688 267.735484 
L 179.567532 265.993548 
L 179.567532 265.993548 
L 185.879221 262.509677 
L 201.658442 253.8 
L 201.658442 253.8 
L 204.814286 252.058065 
L 206.918182 250.896774 
L 209.022078 249.735484 
L 212.177922 247.993548 
L 212.177922 247.993548 
L 219.541558 243.929032 
L 219.541558 243.929032 
L 219.541558 243.929032 
L 220.593506 243.348387 
L 238.476623 233.477419 
L 241.632468 231.735484 
L 241.632468 231.735484 
L 246.892208 228.832258 
L 251.1 226.509677 
L 256.35974 223.606452 
L 257.411688 223.025806 
L 259.515584 221.864516 
L 262.671429 220.122581 
L 264.775325 218.96129 
L 266.879221 217.8 
L 270.035065 216.058065 
L 270.035065 216.058065 
L 275.294805 213.154839 
L 283.71039 208.509677 
L 295.281818 202.122581 
L 296.333766 201.541935 
L 298.437662 200.380645 
L 300.541558 199.219355 
L 301.593506 198.63871 
L 303.697403 197.477419 
L 312.112987 192.832258 
L 317.372727 189.929032 
L 317.372727 189.929032 
L 318.424675 189.348387 
L 319.476623 188.767742 
L 326.84026 184.703226 
L 332.1 181.8 
L 332.1 181.8 
L 333.151948 181.219355 
L 335.255844 180.058065 
L 338.411688 178.316129 
L 340.515584 177.154839 
L 344.723377 174.832258 
L 349.983117 171.929032 
L 352.087013 170.767742 
L 353.138961 170.187097 
L 353.138961 170.187097 
L 361.554545 165.541935 
L 364.71039 163.8 
L 364.71039 163.8 
L 365.762338 163.219355 
L 373.125974 159.154839 
L 375.22987 157.993548 
L 375.22987 157.993548 
L 377.333766 156.832258 
L 379.437662 155.670968 
L 387.853247 151.025806 
L 389.957143 149.864516 
L 391.009091 149.283871 
L 391.009091 149.283871 
L 392.061039 148.703226 
L 402.580519 142.896774 
L 406.788312 140.574194 
L 408.892208 139.412903 
L 409.944156 138.832258 
L 414.151948 136.509677 
L 422.567532 131.864516 
L 429.931169 127.8 
L 432.035065 126.63871 
L 435.190909 124.896774 
L 438.346753 123.154839 
L 438.346753 123.154839 
L 439.398701 122.574194 
L 448.866234 117.348387 
L 454.125974 114.445161 
L 462.541558 109.8 
L 462.541558 109.8 
L 467.801299 106.896774 
L 473.061039 103.993548 
L 475.164935 102.832258 
L 489.892208 94.703226 
L 502.515584 87.735484 
L 505.671429 85.993548 
L 514.087013 81.348387 
L 521.450649 77.283871 
L 537.22987 68.574194 
L 560.372727 55.8 
" style="fill:none;stroke:#008000;stroke-linecap:square;stroke-width:1.5;"/>
   </g>
   <g id="line2d_13">
    <path clip-path="url(#pdc861af061)" d="M 103.827273 181.970905 
L 112.242857 181.581794 
L 126.97013 180.900851 
L 138.541558 180.365823 
L 140.645455 180.268546 
L 161.684416 179.295769 
L 173.255844 178.760742 
L 176.411688 178.614826 
L 179.567532 178.468909 
L 179.567532 178.468909 
L 185.879221 178.177076 
L 201.658442 177.447494 
L 201.658442 177.447494 
L 204.814286 177.301577 
L 206.918182 177.2043 
L 209.022078 177.107022 
L 212.177922 176.961105 
L 212.177922 176.961105 
L 219.541558 176.620634 
L 219.541558 176.620634 
L 219.541558 176.620634 
L 220.593506 176.571995 
L 238.476623 175.745135 
L 241.632468 175.599218 
L 241.632468 175.599218 
L 246.892208 175.356024 
L 251.1 175.161469 
L 256.35974 174.918275 
L 257.411688 174.869636 
L 259.515584 174.772358 
L 262.671429 174.626442 
L 264.775325 174.529164 
L 266.879221 174.431886 
L 270.035065 174.28597 
L 270.035065 174.28597 
L 275.294805 174.042776 
L 283.71039 173.653665 
L 295.281818 173.118638 
L 296.333766 173.069999 
L 298.437662 172.972721 
L 300.541558 172.875444 
L 301.593506 172.826805 
L 303.697403 172.729527 
L 312.112987 172.340417 
L 317.372727 172.097222 
L 317.372727 172.097222 
L 318.424675 172.048584 
L 319.476623 171.999945 
L 326.84026 171.659473 
L 332.1 171.416279 
L 332.1 171.416279 
L 333.151948 171.36764 
L 335.255844 171.270362 
L 338.411688 171.124446 
L 340.515584 171.027168 
L 344.723377 170.832613 
L 349.983117 170.589419 
L 352.087013 170.492141 
L 353.138961 170.443502 
L 353.138961 170.443502 
L 361.554545 170.054392 
L 364.71039 169.908475 
L 364.71039 169.908475 
L 365.762338 169.859836 
L 373.125974 169.519365 
L 375.22987 169.422087 
L 375.22987 169.422087 
L 377.333766 169.324809 
L 379.437662 169.227532 
L 387.853247 168.838421 
L 389.957143 168.741143 
L 391.009091 168.692504 
L 391.009091 168.692504 
L 392.061039 168.643866 
L 402.580519 168.157477 
L 406.788312 167.962922 
L 408.892208 167.865644 
L 409.944156 167.817005 
L 414.151948 167.62245 
L 422.567532 167.23334 
L 429.931169 166.892868 
L 432.035065 166.79559 
L 435.190909 166.649674 
L 438.346753 166.503757 
L 438.346753 166.503757 
L 439.398701 166.455118 
L 448.866234 166.017369 
L 454.125974 165.774175 
L 462.541558 165.385064 
L 462.541558 165.385064 
L 467.801299 165.14187 
L 473.061039 164.898676 
L 475.164935 164.801398 
L 489.892208 164.120454 
L 502.515584 163.536789 
L 505.671429 163.390872 
L 514.087013 163.001761 
L 521.450649 162.66129 
L 537.22987 161.931707 
L 560.372727 160.861653 
" style="fill:none;stroke:#ffa500;stroke-linecap:square;stroke-width:1.5;"/>
   </g>
   <g id="line2d_14">
    <path clip-path="url(#pdc861af061)" d="M 103.827273 163.033281 
L 112.242857 163.094467 
L 126.97013 163.511251 
L 138.541558 164.097659 
L 140.645455 164.227162 
L 161.684416 165.870224 
L 173.255844 167.009156 
L 176.411688 167.343986 
L 179.567532 167.688095 
L 179.567532 167.688095 
L 185.879221 168.401728 
L 201.658442 170.304764 
L 201.658442 170.304764 
L 204.814286 170.700568 
L 206.918182 170.966428 
L 209.022078 171.233645 
L 212.177922 171.636572 
L 212.177922 171.636572 
L 219.541558 172.582949 
L 219.541558 172.582949 
L 219.541558 172.582949 
L 220.593506 172.718477 
L 238.476623 175.001835 
L 241.632468 175.39521 
L 241.632468 175.39521 
L 246.892208 176.040054 
L 251.1 176.544332 
L 256.35974 177.157424 
L 257.411688 177.277481 
L 259.515584 177.514825 
L 262.671429 177.863527 
L 264.775325 178.09082 
L 266.879221 178.313734 
L 270.035065 178.639447 
L 270.035065 178.639447 
L 275.294805 179.157536 
L 283.71039 179.915197 
L 295.281818 180.793528 
L 296.333766 180.863053 
L 298.437662 180.996623 
L 300.541558 181.122737 
L 301.593506 181.182944 
L 303.697403 181.297546 
L 312.112987 181.675369 
L 317.372727 181.842684 
L 317.372727 181.842684 
L 318.424675 181.869515 
L 319.476623 181.894091 
L 326.84026 182.0014 
L 332.1 182.006374 
L 332.1 182.006374 
L 333.151948 181.999977 
L 335.255844 181.979658 
L 338.411688 181.930131 
L 340.515584 181.884234 
L 344.723377 181.760989 
L 349.983117 181.546799 
L 352.087013 181.442071 
L 353.138961 181.385574 
L 353.138961 181.385574 
L 361.554545 180.832836 
L 364.71039 180.578656 
L 364.71039 180.578656 
L 365.762338 180.488163 
L 373.125974 179.773057 
L 375.22987 179.542249 
L 375.22987 179.542249 
L 377.333766 179.299559 
L 379.437662 179.044933 
L 387.853247 177.906162 
L 389.957143 177.591211 
L 391.009091 177.429176 
L 391.009091 177.429176 
L 392.061039 177.264095 
L 402.580519 175.445351 
L 406.788312 174.632191 
L 408.892208 174.207253 
L 409.944156 173.990198 
L 414.151948 173.091446 
L 422.567532 171.147973 
L 429.931169 169.289132 
L 432.035065 168.731176 
L 435.190909 167.872059 
L 438.346753 166.986509 
L 438.346753 166.986509 
L 439.398701 166.68549 
L 448.866234 163.846824 
L 454.125974 162.170877 
L 462.541558 159.34688 
L 462.541558 159.34688 
L 467.801299 157.495423 
L 473.061039 155.579645 
L 475.164935 154.795763 
L 489.892208 149.040786 
L 502.515584 143.762019 
L 505.671429 142.396782 
L 514.087013 138.67434 
L 521.450649 135.326708 
L 537.22987 127.907783 
L 560.372727 116.570007 
" style="fill:none;stroke:#800080;stroke-linecap:square;stroke-width:1.5;"/>
   </g>
   <g id="patch_3">
    <path d="M 81 320.4 
L 81 43.2 
" style="fill:none;stroke:#000000;stroke-linecap:square;stroke-linejoin:miter;stroke-width:0.8;"/>
   </g>
   <g id="patch_4">
    <path d="M 583.2 320.4 
L 583.2 43.2 
" style="fill:none;stroke:#000000;stroke-linecap:square;stroke-linejoin:miter;stroke-width:0.8;"/>
   </g>
   <g id="patch_5">
    <path d="M 81 320.4 
L 583.2 320.4 
" style="fill:none;stroke:#000000;stroke-linecap:square;stroke-linejoin:miter;stroke-width:0.8;"/>
   </g>
   <g id="patch_6">
    <path d="M 81 43.2 
L 583.2 43.2 
" style="fill:none;stroke:#000000;stroke-linecap:square;stroke-linejoin:miter;stroke-width:0.8;"/>
   </g>
   <g id="legend_1">
    <g id="patch_7">
     <path d="M 88 110.190625 
L 230.684375 110.190625 
Q 232.684375 110.190625 232.684375 108.190625 
L 232.684375 50.2 
Q 232.684375 48.2 230.684375 48.2 
L 88 48.2 
Q 86 48.2 86 50.2 
L 86 108.190625 
Q 86 110.190625 88 110.190625 
z
" style="fill:#ffffff;opacity:0.8;stroke:#cccccc;stroke-linejoin:miter;"/>
    </g>
    <g id="line2d_15"/>
    <g id="line2d_16">
     <g>
      <use style="fill:#ff0000;stroke:#ff0000;" x="100" xlink:href="#ma318cbe8ea" y="56.298437"/>
     </g>
    </g>
    <g id="text_11">
     <!-- data_2 -->
     <g transform="translate(118 59.798437)scale(0.1 -0.1)">
      <defs>
       <path d="M 45.40625 46.390625 
L 45.40625 75.984375 
L 54.390625 75.984375 
L 54.390625 0 
L 45.40625 0 
L 45.40625 8.203125 
Q 42.578125 3.328125 38.25 0.953125 
Q 33.9375 -1.421875 27.875 -1.421875 
Q 17.96875 -1.421875 11.734375 6.484375 
Q 5.515625 14.40625 5.515625 27.296875 
Q 5.515625 40.1875 11.734375 48.09375 
Q 17.96875 56 27.875 56 
Q 33.9375 56 38.25 53.625 
Q 42.578125 51.265625 45.40625 46.390625 
z
M 14.796875 27.296875 
Q 14.796875 17.390625 18.875 11.75 
Q 22.953125 6.109375 30.078125 6.109375 
Q 37.203125 6.109375 41.296875 11.75 
Q 45.40625 17.390625 45.40625 27.296875 
Q 45.40625 37.203125 41.296875 42.84375 
Q 37.203125 48.484375 30.078125 48.484375 
Q 22.953125 48.484375 18.875 42.84375 
Q 14.796875 37.203125 14.796875 27.296875 
z
" id="DejaVuSans-100"/>
       <path d="M 34.28125 27.484375 
Q 23.390625 27.484375 19.1875 25 
Q 14.984375 22.515625 14.984375 16.5 
Q 14.984375 11.71875 18.140625 8.90625 
Q 21.296875 6.109375 26.703125 6.109375 
Q 34.1875 6.109375 38.703125 11.40625 
Q 43.21875 16.703125 43.21875 25.484375 
L 43.21875 27.484375 
z
M 52.203125 31.203125 
L 52.203125 0 
L 43.21875 0 
L 43.21875 8.296875 
Q 40.140625 3.328125 35.546875 0.953125 
Q 30.953125 -1.421875 24.3125 -1.421875 
Q 15.921875 -1.421875 10.953125 3.296875 
Q 6 8.015625 6 15.921875 
Q 6 25.140625 12.171875 29.828125 
Q 18.359375 34.515625 30.609375 34.515625 
L 43.21875 34.515625 
L 43.21875 35.40625 
Q 43.21875 41.609375 39.140625 45 
Q 35.0625 48.390625 27.6875 48.390625 
Q 23 48.390625 18.546875 47.265625 
Q 14.109375 46.140625 10.015625 43.890625 
L 10.015625 52.203125 
Q 14.9375 54.109375 19.578125 55.046875 
Q 24.21875 56 28.609375 56 
Q 40.484375 56 46.34375 49.84375 
Q 52.203125 43.703125 52.203125 31.203125 
z
" id="DejaVuSans-97"/>
       <path d="M 18.3125 70.21875 
L 18.3125 54.6875 
L 36.8125 54.6875 
L 36.8125 47.703125 
L 18.3125 47.703125 
L 18.3125 18.015625 
Q 18.3125 11.328125 20.140625 9.421875 
Q 21.96875 7.515625 27.59375 7.515625 
L 36.8125 7.515625 
L 36.8125 0 
L 27.59375 0 
Q 17.1875 0 13.234375 3.875 
Q 9.28125 7.765625 9.28125 18.015625 
L 9.28125 47.703125 
L 2.6875 47.703125 
L 2.6875 54.6875 
L 9.28125 54.6875 
L 9.28125 70.21875 
z
" id="DejaVuSans-116"/>
       <path d="M 50.984375 -16.609375 
L 50.984375 -23.578125 
L -0.984375 -23.578125 
L -0.984375 -16.609375 
z
" id="DejaVuSans-95"/>
      </defs>
      <use xlink:href="#DejaVuSans-100"/>
      <use x="63.476562" xlink:href="#DejaVuSans-97"/>
      <use x="124.755859" xlink:href="#DejaVuSans-116"/>
      <use x="163.964844" xlink:href="#DejaVuSans-97"/>
      <use x="225.244141" xlink:href="#DejaVuSans-95"/>
      <use x="275.244141" xlink:href="#DejaVuSans-50"/>
     </g>
    </g>
    <g id="line2d_17">
     <path d="M 90 71.254687 
L 110 71.254687 
" style="fill:none;stroke:#008000;stroke-linecap:square;stroke-width:1.5;"/>
    </g>
    <g id="line2d_18"/>
    <g id="text_12">
     <!-- f(x)=ax -->
     <g transform="translate(118 74.754687)scale(0.1 -0.1)">
      <defs>
       <path d="M 37.109375 75.984375 
L 37.109375 68.5 
L 28.515625 68.5 
Q 23.6875 68.5 21.796875 66.546875 
Q 19.921875 64.59375 19.921875 59.515625 
L 19.921875 54.6875 
L 34.71875 54.6875 
L 34.71875 47.703125 
L 19.921875 47.703125 
L 19.921875 0 
L 10.890625 0 
L 10.890625 47.703125 
L 2.296875 47.703125 
L 2.296875 54.6875 
L 10.890625 54.6875 
L 10.890625 58.5 
Q 10.890625 67.625 15.140625 71.796875 
Q 19.390625 75.984375 28.609375 75.984375 
z
" id="DejaVuSans-102"/>
       <path d="M 31 75.875 
Q 24.46875 64.65625 21.28125 53.65625 
Q 18.109375 42.671875 18.109375 31.390625 
Q 18.109375 20.125 21.3125 9.0625 
Q 24.515625 -2 31 -13.1875 
L 23.1875 -13.1875 
Q 15.875 -1.703125 12.234375 9.375 
Q 8.59375 20.453125 8.59375 31.390625 
Q 8.59375 42.28125 12.203125 53.3125 
Q 15.828125 64.359375 23.1875 75.875 
z
" id="DejaVuSans-40"/>
       <path d="M 54.890625 54.6875 
L 35.109375 28.078125 
L 55.90625 0 
L 45.3125 0 
L 29.390625 21.484375 
L 13.484375 0 
L 2.875 0 
L 24.125 28.609375 
L 4.6875 54.6875 
L 15.28125 54.6875 
L 29.78125 35.203125 
L 44.28125 54.6875 
z
" id="DejaVuSans-120"/>
       <path d="M 8.015625 75.875 
L 15.828125 75.875 
Q 23.140625 64.359375 26.78125 53.3125 
Q 30.421875 42.28125 30.421875 31.390625 
Q 30.421875 20.453125 26.78125 9.375 
Q 23.140625 -1.703125 15.828125 -13.1875 
L 8.015625 -13.1875 
Q 14.5 -2 17.703125 9.0625 
Q 20.90625 20.125 20.90625 31.390625 
Q 20.90625 42.671875 17.703125 53.65625 
Q 14.5 64.65625 8.015625 75.875 
z
" id="DejaVuSans-41"/>
       <path d="M 10.59375 45.40625 
L 73.1875 45.40625 
L 73.1875 37.203125 
L 10.59375 37.203125 
z
M 10.59375 25.484375 
L 73.1875 25.484375 
L 73.1875 17.1875 
L 10.59375 17.1875 
z
" id="DejaVuSans-61"/>
      </defs>
      <use xlink:href="#DejaVuSans-102"/>
      <use x="35.205078" xlink:href="#DejaVuSans-40"/>
      <use x="74.21875" xlink:href="#DejaVuSans-120"/>
      <use x="133.398438" xlink:href="#DejaVuSans-41"/>
      <use x="172.412109" xlink:href="#DejaVuSans-61"/>
      <use x="256.201172" xlink:href="#DejaVuSans-97"/>
      <use x="317.480469" xlink:href="#DejaVuSans-120"/>
     </g>
    </g>
    <g id="line2d_19">
     <path d="M 90 85.932812 
L 110 85.932812 
" style="fill:none;stroke:#ffa500;stroke-linecap:square;stroke-width:1.5;"/>
    </g>
    <g id="line2d_20"/>
    <g id="text_13">
     <!-- f(x)=ax+b -->
     <g transform="translate(118 89.432812)scale(0.1 -0.1)">
      <defs>
       <path d="M 46 62.703125 
L 46 35.5 
L 73.1875 35.5 
L 73.1875 27.203125 
L 46 27.203125 
L 46 0 
L 37.796875 0 
L 37.796875 27.203125 
L 10.59375 27.203125 
L 10.59375 35.5 
L 37.796875 35.5 
L 37.796875 62.703125 
z
" id="DejaVuSans-43"/>
       <path d="M 48.6875 27.296875 
Q 48.6875 37.203125 44.609375 42.84375 
Q 40.53125 48.484375 33.40625 48.484375 
Q 26.265625 48.484375 22.1875 42.84375 
Q 18.109375 37.203125 18.109375 27.296875 
Q 18.109375 17.390625 22.1875 11.75 
Q 26.265625 6.109375 33.40625 6.109375 
Q 40.53125 6.109375 44.609375 11.75 
Q 48.6875 17.390625 48.6875 27.296875 
z
M 18.109375 46.390625 
Q 20.953125 51.265625 25.265625 53.625 
Q 29.59375 56 35.59375 56 
Q 45.5625 56 51.78125 48.09375 
Q 58.015625 40.1875 58.015625 27.296875 
Q 58.015625 14.40625 51.78125 6.484375 
Q 45.5625 -1.421875 35.59375 -1.421875 
Q 29.59375 -1.421875 25.265625 0.953125 
Q 20.953125 3.328125 18.109375 8.203125 
L 18.109375 0 
L 9.078125 0 
L 9.078125 75.984375 
L 18.109375 75.984375 
z
" id="DejaVuSans-98"/>
      </defs>
      <use xlink:href="#DejaVuSans-102"/>
      <use x="35.205078" xlink:href="#DejaVuSans-40"/>
      <use x="74.21875" xlink:href="#DejaVuSans-120"/>
      <use x="133.398438" xlink:href="#DejaVuSans-41"/>
      <use x="172.412109" xlink:href="#DejaVuSans-61"/>
      <use x="256.201172" xlink:href="#DejaVuSans-97"/>
      <use x="317.480469" xlink:href="#DejaVuSans-120"/>
      <use x="376.660156" xlink:href="#DejaVuSans-43"/>
      <use x="460.449219" xlink:href="#DejaVuSans-98"/>
     </g>
    </g>
    <g id="line2d_21">
     <path d="M 90 100.610937 
L 110 100.610937 
" style="fill:none;stroke:#800080;stroke-linecap:square;stroke-width:1.5;"/>
    </g>
    <g id="line2d_22"/>
    <g id="text_14">
     <!-- f(x)=ax**2+bsin(x)+c -->
     <g transform="translate(118 104.110937)scale(0.1 -0.1)">
      <defs>
       <path d="M 47.015625 60.890625 
L 29.5 51.421875 
L 47.015625 41.890625 
L 44.1875 37.109375 
L 27.78125 47.015625 
L 27.78125 28.609375 
L 22.21875 28.609375 
L 22.21875 47.015625 
L 5.8125 37.109375 
L 2.984375 41.890625 
L 20.515625 51.421875 
L 2.984375 60.890625 
L 5.8125 65.71875 
L 22.21875 55.8125 
L 22.21875 74.21875 
L 27.78125 74.21875 
L 27.78125 55.8125 
L 44.1875 65.71875 
z
" id="DejaVuSans-42"/>
       <path d="M 44.28125 53.078125 
L 44.28125 44.578125 
Q 40.484375 46.53125 36.375 47.5 
Q 32.28125 48.484375 27.875 48.484375 
Q 21.1875 48.484375 17.84375 46.4375 
Q 14.5 44.390625 14.5 40.28125 
Q 14.5 37.15625 16.890625 35.375 
Q 19.28125 33.59375 26.515625 31.984375 
L 29.59375 31.296875 
Q 39.15625 29.25 43.1875 25.515625 
Q 47.21875 21.78125 47.21875 15.09375 
Q 47.21875 7.46875 41.1875 3.015625 
Q 35.15625 -1.421875 24.609375 -1.421875 
Q 20.21875 -1.421875 15.453125 -0.5625 
Q 10.6875 0.296875 5.421875 2 
L 5.421875 11.28125 
Q 10.40625 8.6875 15.234375 7.390625 
Q 20.0625 6.109375 24.8125 6.109375 
Q 31.15625 6.109375 34.5625 8.28125 
Q 37.984375 10.453125 37.984375 14.40625 
Q 37.984375 18.0625 35.515625 20.015625 
Q 33.0625 21.96875 24.703125 23.78125 
L 21.578125 24.515625 
Q 13.234375 26.265625 9.515625 29.90625 
Q 5.8125 33.546875 5.8125 39.890625 
Q 5.8125 47.609375 11.28125 51.796875 
Q 16.75 56 26.8125 56 
Q 31.78125 56 36.171875 55.265625 
Q 40.578125 54.546875 44.28125 53.078125 
z
" id="DejaVuSans-115"/>
       <path d="M 9.421875 54.6875 
L 18.40625 54.6875 
L 18.40625 0 
L 9.421875 0 
z
M 9.421875 75.984375 
L 18.40625 75.984375 
L 18.40625 64.59375 
L 9.421875 64.59375 
z
" id="DejaVuSans-105"/>
       <path d="M 54.890625 33.015625 
L 54.890625 0 
L 45.90625 0 
L 45.90625 32.71875 
Q 45.90625 40.484375 42.875 44.328125 
Q 39.84375 48.1875 33.796875 48.1875 
Q 26.515625 48.1875 22.3125 43.546875 
Q 18.109375 38.921875 18.109375 30.90625 
L 18.109375 0 
L 9.078125 0 
L 9.078125 54.6875 
L 18.109375 54.6875 
L 18.109375 46.1875 
Q 21.34375 51.125 25.703125 53.5625 
Q 30.078125 56 35.796875 56 
Q 45.21875 56 50.046875 50.171875 
Q 54.890625 44.34375 54.890625 33.015625 
z
" id="DejaVuSans-110"/>
       <path d="M 48.78125 52.59375 
L 48.78125 44.1875 
Q 44.96875 46.296875 41.140625 47.34375 
Q 37.3125 48.390625 33.40625 48.390625 
Q 24.65625 48.390625 19.8125 42.84375 
Q 14.984375 37.3125 14.984375 27.296875 
Q 14.984375 17.28125 19.8125 11.734375 
Q 24.65625 6.203125 33.40625 6.203125 
Q 37.3125 6.203125 41.140625 7.25 
Q 44.96875 8.296875 48.78125 10.40625 
L 48.78125 2.09375 
Q 45.015625 0.34375 40.984375 -0.53125 
Q 36.96875 -1.421875 32.421875 -1.421875 
Q 20.0625 -1.421875 12.78125 6.34375 
Q 5.515625 14.109375 5.515625 27.296875 
Q 5.515625 40.671875 12.859375 48.328125 
Q 20.21875 56 33.015625 56 
Q 37.15625 56 41.109375 55.140625 
Q 45.0625 54.296875 48.78125 52.59375 
z
" id="DejaVuSans-99"/>
      </defs>
      <use xlink:href="#DejaVuSans-102"/>
      <use x="35.205078" xlink:href="#DejaVuSans-40"/>
      <use x="74.21875" xlink:href="#DejaVuSans-120"/>
      <use x="133.398438" xlink:href="#DejaVuSans-41"/>
      <use x="172.412109" xlink:href="#DejaVuSans-61"/>
      <use x="256.201172" xlink:href="#DejaVuSans-97"/>
      <use x="317.480469" xlink:href="#DejaVuSans-120"/>
      <use x="376.660156" xlink:href="#DejaVuSans-42"/>
      <use x="426.660156" xlink:href="#DejaVuSans-42"/>
      <use x="476.660156" xlink:href="#DejaVuSans-50"/>
      <use x="540.283203" xlink:href="#DejaVuSans-43"/>
      <use x="624.072266" xlink:href="#DejaVuSans-98"/>
      <use x="687.548828" xlink:href="#DejaVuSans-115"/>
      <use x="739.648438" xlink:href="#DejaVuSans-105"/>
      <use x="767.431641" xlink:href="#DejaVuSans-110"/>
      <use x="830.810547" xlink:href="#DejaVuSans-40"/>
      <use x="869.824219" xlink:href="#DejaVuSans-120"/>
      <use x="929.003906" xlink:href="#DejaVuSans-41"/>
      <use x="968.017578" xlink:href="#DejaVuSans-43"/>
      <use x="1051.806641" xlink:href="#DejaVuSans-99"/>
     </g>
    </g>
   </g>
  </g>
  <g id="text_15">
   <!-- data_2 -->
   <g transform="translate(286.72375 31.116563)scale(0.22 -0.22)">
    <use xlink:href="#DejaVuSans-100"/>
    <use x="63.476562" xlink:href="#DejaVuSans-97"/>
    <use x="124.755859" xlink:href="#DejaVuSans-116"/>
    <use x="163.964844" xlink:href="#DejaVuSans-97"/>
    <use x="225.244141" xlink:href="#DejaVuSans-95"/>
    <use x="275.244141" xlink:href="#DejaVuSans-50"/>
   </g>
  </g>
 </g>
 <defs>
  <clipPath id="pdc861af061">
   <rect height="277.2" width="502.2" x="81" y="43.2"/>
  </clipPath>
 </defs>
</svg>
