<?xml version="1.0" encoding="utf-8" standalone="no"?>
<!DOCTYPE svg PUBLIC "-//W3C//DTD SVG 1.1//EN"
  "http://www.w3.org/Graphics/SVG/1.1/DTD/svg11.dtd">
<!-- Created with matplotlib (https://matplotlib.org/) -->
<svg height="360pt" version="1.1" viewBox="0 0 648 360" width="648pt" xmlns="http://www.w3.org/2000/svg" xmlns:xlink="http://www.w3.org/1999/xlink">
 <metadata>
  <rdf:RDF xmlns:cc="http://creativecommons.org/ns#" xmlns:dc="http://purl.org/dc/elements/1.1/" xmlns:rdf="http://www.w3.org/1999/02/22-rdf-syntax-ns#">
   <cc:Work>
    <dc:type rdf:resource="http://purl.org/dc/dcmitype/StillImage"/>
    <dc:date>2021-01-19T11:51:32.199002</dc:date>
    <dc:format>image/svg+xml</dc:format>
    <dc:creator>
     <cc:Agent>
      <dc:title>Matplotlib v3.3.3, https://matplotlib.org/</dc:title>
     </cc:Agent>
    </dc:creator>
   </cc:Work>
  </rdf:RDF>
 </metadata>
 <defs>
  <style type="text/css">*{stroke-linecap:butt;stroke-linejoin:round;}</style>
 </defs>
 <g id="figure_1">
  <g id="patch_1">
   <path d="M 0 360 
L 648 360 
L 648 0 
L 0 0 
z
" style="fill:#ffffff;"/>
  </g>
  <g id="axes_1">
   <g id="patch_2">
    <path d="M 81 320.4 
L 228.705882 320.4 
L 228.705882 43.2 
L 81 43.2 
z
" style="fill:#ffffff;"/>
   </g>
   <g id="patch_3">
    <path clip-path="url(#p92eabf8de6)" d="M 87.713904 320.4 
L 94.427807 320.4 
L 94.427807 214.8 
L 87.713904 214.8 
z
" style="fill:#008000;"/>
   </g>
   <g id="patch_4">
    <path clip-path="url(#p92eabf8de6)" d="M 94.427807 320.4 
L 101.141711 320.4 
L 101.141711 214.8 
L 94.427807 214.8 
z
" style="fill:#008000;"/>
   </g>
   <g id="patch_5">
    <path clip-path="url(#p92eabf8de6)" d="M 101.141711 320.4 
L 107.855615 320.4 
L 107.855615 201.6 
L 101.141711 201.6 
z
" style="fill:#008000;"/>
   </g>
   <g id="patch_6">
    <path clip-path="url(#p92eabf8de6)" d="M 107.855615 320.4 
L 114.569519 320.4 
L 114.569519 228 
L 107.855615 228 
z
" style="fill:#008000;"/>
   </g>
   <g id="patch_7">
    <path clip-path="url(#p92eabf8de6)" d="M 114.569519 320.4 
L 121.283422 320.4 
L 121.283422 175.2 
L 114.569519 175.2 
z
" style="fill:#008000;"/>
   </g>
   <g id="patch_8">
    <path clip-path="url(#p92eabf8de6)" d="M 121.283422 320.4 
L 127.997326 320.4 
L 127.997326 228 
L 121.283422 228 
z
" style="fill:#008000;"/>
   </g>
   <g id="patch_9">
    <path clip-path="url(#p92eabf8de6)" d="M 127.997326 320.4 
L 134.71123 320.4 
L 134.71123 254.4 
L 127.997326 254.4 
z
" style="fill:#008000;"/>
   </g>
   <g id="patch_10">
    <path clip-path="url(#p92eabf8de6)" d="M 134.71123 320.4 
L 141.425134 320.4 
L 141.425134 241.2 
L 134.71123 241.2 
z
" style="fill:#008000;"/>
   </g>
   <g id="patch_11">
    <path clip-path="url(#p92eabf8de6)" d="M 141.425134 320.4 
L 148.139037 320.4 
L 148.139037 267.6 
L 141.425134 267.6 
z
" style="fill:#008000;"/>
   </g>
   <g id="patch_12">
    <path clip-path="url(#p92eabf8de6)" d="M 148.139037 320.4 
L 154.852941 320.4 
L 154.852941 254.4 
L 148.139037 254.4 
z
" style="fill:#008000;"/>
   </g>
   <g id="patch_13">
    <path clip-path="url(#p92eabf8de6)" d="M 154.852941 320.4 
L 161.566845 320.4 
L 161.566845 254.4 
L 154.852941 254.4 
z
" style="fill:#008000;"/>
   </g>
   <g id="patch_14">
    <path clip-path="url(#p92eabf8de6)" d="M 161.566845 320.4 
L 168.280749 320.4 
L 168.280749 294 
L 161.566845 294 
z
" style="fill:#008000;"/>
   </g>
   <g id="patch_15">
    <path clip-path="url(#p92eabf8de6)" d="M 168.280749 320.4 
L 174.994652 320.4 
L 174.994652 254.4 
L 168.280749 254.4 
z
" style="fill:#008000;"/>
   </g>
   <g id="patch_16">
    <path clip-path="url(#p92eabf8de6)" d="M 174.994652 320.4 
L 181.708556 320.4 
L 181.708556 228 
L 174.994652 228 
z
" style="fill:#008000;"/>
   </g>
   <g id="patch_17">
    <path clip-path="url(#p92eabf8de6)" d="M 181.708556 320.4 
L 188.42246 320.4 
L 188.42246 307.2 
L 181.708556 307.2 
z
" style="fill:#008000;"/>
   </g>
   <g id="patch_18">
    <path clip-path="url(#p92eabf8de6)" d="M 188.42246 320.4 
L 195.136364 320.4 
L 195.136364 267.6 
L 188.42246 267.6 
z
" style="fill:#008000;"/>
   </g>
   <g id="patch_19">
    <path clip-path="url(#p92eabf8de6)" d="M 195.136364 320.4 
L 201.850267 320.4 
L 201.850267 294 
L 195.136364 294 
z
" style="fill:#008000;"/>
   </g>
   <g id="patch_20">
    <path clip-path="url(#p92eabf8de6)" d="M 201.850267 320.4 
L 208.564171 320.4 
L 208.564171 307.2 
L 201.850267 307.2 
z
" style="fill:#008000;"/>
   </g>
   <g id="patch_21">
    <path clip-path="url(#p92eabf8de6)" d="M 208.564171 320.4 
L 215.278075 320.4 
L 215.278075 294 
L 208.564171 294 
z
" style="fill:#008000;"/>
   </g>
   <g id="patch_22">
    <path clip-path="url(#p92eabf8de6)" d="M 215.278075 320.4 
L 221.991979 320.4 
L 221.991979 307.2 
L 215.278075 307.2 
z
" style="fill:#008000;"/>
   </g>
   <g id="matplotlib.axis_1">
    <g id="xtick_1">
     <g id="line2d_1">
      <defs>
       <path d="M 0 0 
L 0 3.5 
" id="mdfd8a9a998" style="stroke:#000000;stroke-width:0.8;"/>
      </defs>
      <g>
       <use style="stroke:#000000;stroke-width:0.8;" x="127.918023" xlink:href="#mdfd8a9a998" y="320.4"/>
      </g>
     </g>
     <g id="text_1">
      <!-- 0 -->
      <g transform="translate(124.736773 334.998438)scale(0.1 -0.1)">
       <defs>
        <path d="M 31.78125 66.40625 
Q 24.171875 66.40625 20.328125 58.90625 
Q 16.5 51.421875 16.5 36.375 
Q 16.5 21.390625 20.328125 13.890625 
Q 24.171875 6.390625 31.78125 6.390625 
Q 39.453125 6.390625 43.28125 13.890625 
Q 47.125 21.390625 47.125 36.375 
Q 47.125 51.421875 43.28125 58.90625 
Q 39.453125 66.40625 31.78125 66.40625 
z
M 31.78125 74.21875 
Q 44.046875 74.21875 50.515625 64.515625 
Q 56.984375 54.828125 56.984375 36.375 
Q 56.984375 17.96875 50.515625 8.265625 
Q 44.046875 -1.421875 31.78125 -1.421875 
Q 19.53125 -1.421875 13.0625 8.265625 
Q 6.59375 17.96875 6.59375 36.375 
Q 6.59375 54.828125 13.0625 64.515625 
Q 19.53125 74.21875 31.78125 74.21875 
z
" id="DejaVuSans-48"/>
       </defs>
       <use xlink:href="#DejaVuSans-48"/>
      </g>
     </g>
    </g>
    <g id="xtick_2">
     <g id="line2d_2">
      <g>
       <use style="stroke:#000000;stroke-width:0.8;" x="196.658842" xlink:href="#mdfd8a9a998" y="320.4"/>
      </g>
     </g>
     <g id="text_2">
      <!-- 2 -->
      <g transform="translate(193.477592 334.998438)scale(0.1 -0.1)">
       <defs>
        <path d="M 19.1875 8.296875 
L 53.609375 8.296875 
L 53.609375 0 
L 7.328125 0 
L 7.328125 8.296875 
Q 12.9375 14.109375 22.625 23.890625 
Q 32.328125 33.6875 34.8125 36.53125 
Q 39.546875 41.84375 41.421875 45.53125 
Q 43.3125 49.21875 43.3125 52.78125 
Q 43.3125 58.59375 39.234375 62.25 
Q 35.15625 65.921875 28.609375 65.921875 
Q 23.96875 65.921875 18.8125 64.3125 
Q 13.671875 62.703125 7.8125 59.421875 
L 7.8125 69.390625 
Q 13.765625 71.78125 18.9375 73 
Q 24.125 74.21875 28.421875 74.21875 
Q 39.75 74.21875 46.484375 68.546875 
Q 53.21875 62.890625 53.21875 53.421875 
Q 53.21875 48.921875 51.53125 44.890625 
Q 49.859375 40.875 45.40625 35.40625 
Q 44.1875 33.984375 37.640625 27.21875 
Q 31.109375 20.453125 19.1875 8.296875 
z
" id="DejaVuSans-50"/>
       </defs>
       <use xlink:href="#DejaVuSans-50"/>
      </g>
     </g>
    </g>
   </g>
   <g id="matplotlib.axis_2">
    <g id="ytick_1">
     <g id="line2d_3">
      <defs>
       <path d="M 0 0 
L -3.5 0 
" id="m5df67a76ca" style="stroke:#000000;stroke-width:0.8;"/>
      </defs>
      <g>
       <use style="stroke:#000000;stroke-width:0.8;" x="81" xlink:href="#m5df67a76ca" y="320.4"/>
      </g>
     </g>
     <g id="text_3">
      <!-- 0.0 -->
      <g transform="translate(58.096875 324.199219)scale(0.1 -0.1)">
       <defs>
        <path d="M 10.6875 12.40625 
L 21 12.40625 
L 21 0 
L 10.6875 0 
z
" id="DejaVuSans-46"/>
       </defs>
       <use xlink:href="#DejaVuSans-48"/>
       <use x="63.623047" xlink:href="#DejaVuSans-46"/>
       <use x="95.410156" xlink:href="#DejaVuSans-48"/>
      </g>
     </g>
    </g>
    <g id="ytick_2">
     <g id="line2d_4">
      <g>
       <use style="stroke:#000000;stroke-width:0.8;" x="81" xlink:href="#m5df67a76ca" y="287.4"/>
      </g>
     </g>
     <g id="text_4">
      <!-- 2.5 -->
      <g transform="translate(58.096875 291.199219)scale(0.1 -0.1)">
       <defs>
        <path d="M 10.796875 72.90625 
L 49.515625 72.90625 
L 49.515625 64.59375 
L 19.828125 64.59375 
L 19.828125 46.734375 
Q 21.96875 47.46875 24.109375 47.828125 
Q 26.265625 48.1875 28.421875 48.1875 
Q 40.625 48.1875 47.75 41.5 
Q 54.890625 34.8125 54.890625 23.390625 
Q 54.890625 11.625 47.5625 5.09375 
Q 40.234375 -1.421875 26.90625 -1.421875 
Q 22.3125 -1.421875 17.546875 -0.640625 
Q 12.796875 0.140625 7.71875 1.703125 
L 7.71875 11.625 
Q 12.109375 9.234375 16.796875 8.0625 
Q 21.484375 6.890625 26.703125 6.890625 
Q 35.15625 6.890625 40.078125 11.328125 
Q 45.015625 15.765625 45.015625 23.390625 
Q 45.015625 31 40.078125 35.4375 
Q 35.15625 39.890625 26.703125 39.890625 
Q 22.75 39.890625 18.8125 39.015625 
Q 14.890625 38.140625 10.796875 36.28125 
z
" id="DejaVuSans-53"/>
       </defs>
       <use xlink:href="#DejaVuSans-50"/>
       <use x="63.623047" xlink:href="#DejaVuSans-46"/>
       <use x="95.410156" xlink:href="#DejaVuSans-53"/>
      </g>
     </g>
    </g>
    <g id="ytick_3">
     <g id="line2d_5">
      <g>
       <use style="stroke:#000000;stroke-width:0.8;" x="81" xlink:href="#m5df67a76ca" y="254.4"/>
      </g>
     </g>
     <g id="text_5">
      <!-- 5.0 -->
      <g transform="translate(58.096875 258.199219)scale(0.1 -0.1)">
       <use xlink:href="#DejaVuSans-53"/>
       <use x="63.623047" xlink:href="#DejaVuSans-46"/>
       <use x="95.410156" xlink:href="#DejaVuSans-48"/>
      </g>
     </g>
    </g>
    <g id="ytick_4">
     <g id="line2d_6">
      <g>
       <use style="stroke:#000000;stroke-width:0.8;" x="81" xlink:href="#m5df67a76ca" y="221.4"/>
      </g>
     </g>
     <g id="text_6">
      <!-- 7.5 -->
      <g transform="translate(58.096875 225.199219)scale(0.1 -0.1)">
       <defs>
        <path d="M 8.203125 72.90625 
L 55.078125 72.90625 
L 55.078125 68.703125 
L 28.609375 0 
L 18.3125 0 
L 43.21875 64.59375 
L 8.203125 64.59375 
z
" id="DejaVuSans-55"/>
       </defs>
       <use xlink:href="#DejaVuSans-55"/>
       <use x="63.623047" xlink:href="#DejaVuSans-46"/>
       <use x="95.410156" xlink:href="#DejaVuSans-53"/>
      </g>
     </g>
    </g>
    <g id="ytick_5">
     <g id="line2d_7">
      <g>
       <use style="stroke:#000000;stroke-width:0.8;" x="81" xlink:href="#m5df67a76ca" y="188.4"/>
      </g>
     </g>
     <g id="text_7">
      <!-- 10.0 -->
      <g transform="translate(51.734375 192.199219)scale(0.1 -0.1)">
       <defs>
        <path d="M 12.40625 8.296875 
L 28.515625 8.296875 
L 28.515625 63.921875 
L 10.984375 60.40625 
L 10.984375 69.390625 
L 28.421875 72.90625 
L 38.28125 72.90625 
L 38.28125 8.296875 
L 54.390625 8.296875 
L 54.390625 0 
L 12.40625 0 
z
" id="DejaVuSans-49"/>
       </defs>
       <use xlink:href="#DejaVuSans-49"/>
       <use x="63.623047" xlink:href="#DejaVuSans-48"/>
       <use x="127.246094" xlink:href="#DejaVuSans-46"/>
       <use x="159.033203" xlink:href="#DejaVuSans-48"/>
      </g>
     </g>
    </g>
    <g id="ytick_6">
     <g id="line2d_8">
      <g>
       <use style="stroke:#000000;stroke-width:0.8;" x="81" xlink:href="#m5df67a76ca" y="155.4"/>
      </g>
     </g>
     <g id="text_8">
      <!-- 12.5 -->
      <g transform="translate(51.734375 159.199219)scale(0.1 -0.1)">
       <use xlink:href="#DejaVuSans-49"/>
       <use x="63.623047" xlink:href="#DejaVuSans-50"/>
       <use x="127.246094" xlink:href="#DejaVuSans-46"/>
       <use x="159.033203" xlink:href="#DejaVuSans-53"/>
      </g>
     </g>
    </g>
    <g id="ytick_7">
     <g id="line2d_9">
      <g>
       <use style="stroke:#000000;stroke-width:0.8;" x="81" xlink:href="#m5df67a76ca" y="122.4"/>
      </g>
     </g>
     <g id="text_9">
      <!-- 15.0 -->
      <g transform="translate(51.734375 126.199219)scale(0.1 -0.1)">
       <use xlink:href="#DejaVuSans-49"/>
       <use x="63.623047" xlink:href="#DejaVuSans-53"/>
       <use x="127.246094" xlink:href="#DejaVuSans-46"/>
       <use x="159.033203" xlink:href="#DejaVuSans-48"/>
      </g>
     </g>
    </g>
    <g id="ytick_8">
     <g id="line2d_10">
      <g>
       <use style="stroke:#000000;stroke-width:0.8;" x="81" xlink:href="#m5df67a76ca" y="89.4"/>
      </g>
     </g>
     <g id="text_10">
      <!-- 17.5 -->
      <g transform="translate(51.734375 93.199219)scale(0.1 -0.1)">
       <use xlink:href="#DejaVuSans-49"/>
       <use x="63.623047" xlink:href="#DejaVuSans-55"/>
       <use x="127.246094" xlink:href="#DejaVuSans-46"/>
       <use x="159.033203" xlink:href="#DejaVuSans-53"/>
      </g>
     </g>
    </g>
    <g id="ytick_9">
     <g id="line2d_11">
      <g>
       <use style="stroke:#000000;stroke-width:0.8;" x="81" xlink:href="#m5df67a76ca" y="56.4"/>
      </g>
     </g>
     <g id="text_11">
      <!-- 20.0 -->
      <g transform="translate(51.734375 60.199219)scale(0.1 -0.1)">
       <use xlink:href="#DejaVuSans-50"/>
       <use x="63.623047" xlink:href="#DejaVuSans-48"/>
       <use x="127.246094" xlink:href="#DejaVuSans-46"/>
       <use x="159.033203" xlink:href="#DejaVuSans-48"/>
      </g>
     </g>
    </g>
   </g>
   <g id="patch_23">
    <path d="M 81 320.4 
L 81 43.2 
" style="fill:none;stroke:#000000;stroke-linecap:square;stroke-linejoin:miter;stroke-width:0.8;"/>
   </g>
   <g id="patch_24">
    <path d="M 228.705882 320.4 
L 228.705882 43.2 
" style="fill:none;stroke:#000000;stroke-linecap:square;stroke-linejoin:miter;stroke-width:0.8;"/>
   </g>
   <g id="patch_25">
    <path d="M 81 320.4 
L 228.705882 320.4 
" style="fill:none;stroke:#000000;stroke-linecap:square;stroke-linejoin:miter;stroke-width:0.8;"/>
   </g>
   <g id="patch_26">
    <path d="M 81 43.2 
L 228.705882 43.2 
" style="fill:none;stroke:#000000;stroke-linecap:square;stroke-linejoin:miter;stroke-width:0.8;"/>
   </g>
   <g id="text_12">
    <!-- f(x)=ax -->
    <g transform="translate(113.417316 37.2)scale(0.22 -0.22)">
     <defs>
      <path d="M 37.109375 75.984375 
L 37.109375 68.5 
L 28.515625 68.5 
Q 23.6875 68.5 21.796875 66.546875 
Q 19.921875 64.59375 19.921875 59.515625 
L 19.921875 54.6875 
L 34.71875 54.6875 
L 34.71875 47.703125 
L 19.921875 47.703125 
L 19.921875 0 
L 10.890625 0 
L 10.890625 47.703125 
L 2.296875 47.703125 
L 2.296875 54.6875 
L 10.890625 54.6875 
L 10.890625 58.5 
Q 10.890625 67.625 15.140625 71.796875 
Q 19.390625 75.984375 28.609375 75.984375 
z
" id="DejaVuSans-102"/>
      <path d="M 31 75.875 
Q 24.46875 64.65625 21.28125 53.65625 
Q 18.109375 42.671875 18.109375 31.390625 
Q 18.109375 20.125 21.3125 9.0625 
Q 24.515625 -2 31 -13.1875 
L 23.1875 -13.1875 
Q 15.875 -1.703125 12.234375 9.375 
Q 8.59375 20.453125 8.59375 31.390625 
Q 8.59375 42.28125 12.203125 53.3125 
Q 15.828125 64.359375 23.1875 75.875 
z
" id="DejaVuSans-40"/>
      <path d="M 54.890625 54.6875 
L 35.109375 28.078125 
L 55.90625 0 
L 45.3125 0 
L 29.390625 21.484375 
L 13.484375 0 
L 2.875 0 
L 24.125 28.609375 
L 4.6875 54.6875 
L 15.28125 54.6875 
L 29.78125 35.203125 
L 44.28125 54.6875 
z
" id="DejaVuSans-120"/>
      <path d="M 8.015625 75.875 
L 15.828125 75.875 
Q 23.140625 64.359375 26.78125 53.3125 
Q 30.421875 42.28125 30.421875 31.390625 
Q 30.421875 20.453125 26.78125 9.375 
Q 23.140625 -1.703125 15.828125 -13.1875 
L 8.015625 -13.1875 
Q 14.5 -2 17.703125 9.0625 
Q 20.90625 20.125 20.90625 31.390625 
Q 20.90625 42.671875 17.703125 53.65625 
Q 14.5 64.65625 8.015625 75.875 
z
" id="DejaVuSans-41"/>
      <path d="M 10.59375 45.40625 
L 73.1875 45.40625 
L 73.1875 37.203125 
L 10.59375 37.203125 
z
M 10.59375 25.484375 
L 73.1875 25.484375 
L 73.1875 17.1875 
L 10.59375 17.1875 
z
" id="DejaVuSans-61"/>
      <path d="M 34.28125 27.484375 
Q 23.390625 27.484375 19.1875 25 
Q 14.984375 22.515625 14.984375 16.5 
Q 14.984375 11.71875 18.140625 8.90625 
Q 21.296875 6.109375 26.703125 6.109375 
Q 34.1875 6.109375 38.703125 11.40625 
Q 43.21875 16.703125 43.21875 25.484375 
L 43.21875 27.484375 
z
M 52.203125 31.203125 
L 52.203125 0 
L 43.21875 0 
L 43.21875 8.296875 
Q 40.140625 3.328125 35.546875 0.953125 
Q 30.953125 -1.421875 24.3125 -1.421875 
Q 15.921875 -1.421875 10.953125 3.296875 
Q 6 8.015625 6 15.921875 
Q 6 25.140625 12.171875 29.828125 
Q 18.359375 34.515625 30.609375 34.515625 
L 43.21875 34.515625 
L 43.21875 35.40625 
Q 43.21875 41.609375 39.140625 45 
Q 35.0625 48.390625 27.6875 48.390625 
Q 23 48.390625 18.546875 47.265625 
Q 14.109375 46.140625 10.015625 43.890625 
L 10.015625 52.203125 
Q 14.9375 54.109375 19.578125 55.046875 
Q 24.21875 56 28.609375 56 
Q 40.484375 56 46.34375 49.84375 
Q 52.203125 43.703125 52.203125 31.203125 
z
" id="DejaVuSans-97"/>
     </defs>
     <use xlink:href="#DejaVuSans-102"/>
     <use x="35.205078" xlink:href="#DejaVuSans-40"/>
     <use x="74.21875" xlink:href="#DejaVuSans-120"/>
     <use x="133.398438" xlink:href="#DejaVuSans-41"/>
     <use x="172.412109" xlink:href="#DejaVuSans-61"/>
     <use x="256.201172" xlink:href="#DejaVuSans-97"/>
     <use x="317.480469" xlink:href="#DejaVuSans-120"/>
    </g>
   </g>
  </g>
  <g id="axes_2">
   <g id="patch_27">
    <path d="M 258.247059 320.4 
L 405.952941 320.4 
L 405.952941 43.2 
L 258.247059 43.2 
z
" style="fill:#ffffff;"/>
   </g>
   <g id="patch_28">
    <path clip-path="url(#p44f83d8063)" d="M 264.960963 320.4 
L 271.674866 320.4 
L 271.674866 307.2 
L 264.960963 307.2 
z
" style="fill:#ffa500;"/>
   </g>
   <g id="patch_29">
    <path clip-path="url(#p44f83d8063)" d="M 271.674866 320.4 
L 278.38877 320.4 
L 278.38877 254.4 
L 271.674866 254.4 
z
" style="fill:#ffa500;"/>
   </g>
   <g id="patch_30">
    <path clip-path="url(#p44f83d8063)" d="M 278.38877 320.4 
L 285.102674 320.4 
L 285.102674 175.2 
L 278.38877 175.2 
z
" style="fill:#ffa500;"/>
   </g>
   <g id="patch_31">
    <path clip-path="url(#p44f83d8063)" d="M 285.102674 320.4 
L 291.816578 320.4 
L 291.816578 96 
L 285.102674 96 
z
" style="fill:#ffa500;"/>
   </g>
   <g id="patch_32">
    <path clip-path="url(#p44f83d8063)" d="M 291.816578 320.4 
L 298.530481 320.4 
L 298.530481 148.8 
L 291.816578 148.8 
z
" style="fill:#ffa500;"/>
   </g>
   <g id="patch_33">
    <path clip-path="url(#p44f83d8063)" d="M 298.530481 320.4 
L 305.244385 320.4 
L 305.244385 214.8 
L 298.530481 214.8 
z
" style="fill:#ffa500;"/>
   </g>
   <g id="patch_34">
    <path clip-path="url(#p44f83d8063)" d="M 305.244385 320.4 
L 311.958289 320.4 
L 311.958289 188.4 
L 305.244385 188.4 
z
" style="fill:#ffa500;"/>
   </g>
   <g id="patch_35">
    <path clip-path="url(#p44f83d8063)" d="M 311.958289 320.4 
L 318.672193 320.4 
L 318.672193 241.2 
L 311.958289 241.2 
z
" style="fill:#ffa500;"/>
   </g>
   <g id="patch_36">
    <path clip-path="url(#p44f83d8063)" d="M 318.672193 320.4 
L 325.386096 320.4 
L 325.386096 214.8 
L 318.672193 214.8 
z
" style="fill:#ffa500;"/>
   </g>
   <g id="patch_37">
    <path clip-path="url(#p44f83d8063)" d="M 325.386096 320.4 
L 332.1 320.4 
L 332.1 267.6 
L 325.386096 267.6 
z
" style="fill:#ffa500;"/>
   </g>
   <g id="patch_38">
    <path clip-path="url(#p44f83d8063)" d="M 332.1 320.4 
L 338.813904 320.4 
L 338.813904 214.8 
L 332.1 214.8 
z
" style="fill:#ffa500;"/>
   </g>
   <g id="patch_39">
    <path clip-path="url(#p44f83d8063)" d="M 338.813904 320.4 
L 345.527807 320.4 
L 345.527807 307.2 
L 338.813904 307.2 
z
" style="fill:#ffa500;"/>
   </g>
   <g id="patch_40">
    <path clip-path="url(#p44f83d8063)" d="M 345.527807 320.4 
L 352.241711 320.4 
L 352.241711 294 
L 345.527807 294 
z
" style="fill:#ffa500;"/>
   </g>
   <g id="patch_41">
    <path clip-path="url(#p44f83d8063)" d="M 352.241711 320.4 
L 358.955615 320.4 
L 358.955615 307.2 
L 352.241711 307.2 
z
" style="fill:#ffa500;"/>
   </g>
   <g id="patch_42">
    <path clip-path="url(#p44f83d8063)" d="M 358.955615 320.4 
L 365.669519 320.4 
L 365.669519 294 
L 358.955615 294 
z
" style="fill:#ffa500;"/>
   </g>
   <g id="patch_43">
    <path clip-path="url(#p44f83d8063)" d="M 365.669519 320.4 
L 372.383422 320.4 
L 372.383422 294 
L 365.669519 294 
z
" style="fill:#ffa500;"/>
   </g>
   <g id="patch_44">
    <path clip-path="url(#p44f83d8063)" d="M 372.383422 320.4 
L 379.097326 320.4 
L 379.097326 320.4 
L 372.383422 320.4 
z
" style="fill:#ffa500;"/>
   </g>
   <g id="patch_45">
    <path clip-path="url(#p44f83d8063)" d="M 379.097326 320.4 
L 385.81123 320.4 
L 385.81123 320.4 
L 379.097326 320.4 
z
" style="fill:#ffa500;"/>
   </g>
   <g id="patch_46">
    <path clip-path="url(#p44f83d8063)" d="M 385.81123 320.4 
L 392.525134 320.4 
L 392.525134 320.4 
L 385.81123 320.4 
z
" style="fill:#ffa500;"/>
   </g>
   <g id="patch_47">
    <path clip-path="url(#p44f83d8063)" d="M 392.525134 320.4 
L 399.239037 320.4 
L 399.239037 307.2 
L 392.525134 307.2 
z
" style="fill:#ffa500;"/>
   </g>
   <g id="matplotlib.axis_3">
    <g id="xtick_3">
     <g id="line2d_12">
      <g>
       <use style="stroke:#000000;stroke-width:0.8;" x="306.9763" xlink:href="#mdfd8a9a998" y="320.4"/>
      </g>
     </g>
     <g id="text_13">
      <!-- 0.0 -->
      <g transform="translate(299.024738 334.998438)scale(0.1 -0.1)">
       <use xlink:href="#DejaVuSans-48"/>
       <use x="63.623047" xlink:href="#DejaVuSans-46"/>
       <use x="95.410156" xlink:href="#DejaVuSans-48"/>
      </g>
     </g>
    </g>
    <g id="xtick_4">
     <g id="line2d_13">
      <g>
       <use style="stroke:#000000;stroke-width:0.8;" x="365.581436" xlink:href="#mdfd8a9a998" y="320.4"/>
      </g>
     </g>
     <g id="text_14">
      <!-- 0.5 -->
      <g transform="translate(357.629873 334.998438)scale(0.1 -0.1)">
       <use xlink:href="#DejaVuSans-48"/>
       <use x="63.623047" xlink:href="#DejaVuSans-46"/>
       <use x="95.410156" xlink:href="#DejaVuSans-53"/>
      </g>
     </g>
    </g>
   </g>
   <g id="matplotlib.axis_4">
    <g id="ytick_10">
     <g id="line2d_14">
      <g>
       <use style="stroke:#000000;stroke-width:0.8;" x="258.247059" xlink:href="#m5df67a76ca" y="320.4"/>
      </g>
     </g>
     <g id="text_15">
      <!-- 0.0 -->
      <g transform="translate(235.343934 324.199219)scale(0.1 -0.1)">
       <use xlink:href="#DejaVuSans-48"/>
       <use x="63.623047" xlink:href="#DejaVuSans-46"/>
       <use x="95.410156" xlink:href="#DejaVuSans-48"/>
      </g>
     </g>
    </g>
    <g id="ytick_11">
     <g id="line2d_15">
      <g>
       <use style="stroke:#000000;stroke-width:0.8;" x="258.247059" xlink:href="#m5df67a76ca" y="287.4"/>
      </g>
     </g>
     <g id="text_16">
      <!-- 2.5 -->
      <g transform="translate(235.343934 291.199219)scale(0.1 -0.1)">
       <use xlink:href="#DejaVuSans-50"/>
       <use x="63.623047" xlink:href="#DejaVuSans-46"/>
       <use x="95.410156" xlink:href="#DejaVuSans-53"/>
      </g>
     </g>
    </g>
    <g id="ytick_12">
     <g id="line2d_16">
      <g>
       <use style="stroke:#000000;stroke-width:0.8;" x="258.247059" xlink:href="#m5df67a76ca" y="254.4"/>
      </g>
     </g>
     <g id="text_17">
      <!-- 5.0 -->
      <g transform="translate(235.343934 258.199219)scale(0.1 -0.1)">
       <use xlink:href="#DejaVuSans-53"/>
       <use x="63.623047" xlink:href="#DejaVuSans-46"/>
       <use x="95.410156" xlink:href="#DejaVuSans-48"/>
      </g>
     </g>
    </g>
    <g id="ytick_13">
     <g id="line2d_17">
      <g>
       <use style="stroke:#000000;stroke-width:0.8;" x="258.247059" xlink:href="#m5df67a76ca" y="221.4"/>
      </g>
     </g>
     <g id="text_18">
      <!-- 7.5 -->
      <g transform="translate(235.343934 225.199219)scale(0.1 -0.1)">
       <use xlink:href="#DejaVuSans-55"/>
       <use x="63.623047" xlink:href="#DejaVuSans-46"/>
       <use x="95.410156" xlink:href="#DejaVuSans-53"/>
      </g>
     </g>
    </g>
    <g id="ytick_14">
     <g id="line2d_18">
      <g>
       <use style="stroke:#000000;stroke-width:0.8;" x="258.247059" xlink:href="#m5df67a76ca" y="188.4"/>
      </g>
     </g>
     <g id="text_19">
      <!-- 10.0 -->
      <g transform="translate(228.981434 192.199219)scale(0.1 -0.1)">
       <use xlink:href="#DejaVuSans-49"/>
       <use x="63.623047" xlink:href="#DejaVuSans-48"/>
       <use x="127.246094" xlink:href="#DejaVuSans-46"/>
       <use x="159.033203" xlink:href="#DejaVuSans-48"/>
      </g>
     </g>
    </g>
    <g id="ytick_15">
     <g id="line2d_19">
      <g>
       <use style="stroke:#000000;stroke-width:0.8;" x="258.247059" xlink:href="#m5df67a76ca" y="155.4"/>
      </g>
     </g>
     <g id="text_20">
      <!-- 12.5 -->
      <g transform="translate(228.981434 159.199219)scale(0.1 -0.1)">
       <use xlink:href="#DejaVuSans-49"/>
       <use x="63.623047" xlink:href="#DejaVuSans-50"/>
       <use x="127.246094" xlink:href="#DejaVuSans-46"/>
       <use x="159.033203" xlink:href="#DejaVuSans-53"/>
      </g>
     </g>
    </g>
    <g id="ytick_16">
     <g id="line2d_20">
      <g>
       <use style="stroke:#000000;stroke-width:0.8;" x="258.247059" xlink:href="#m5df67a76ca" y="122.4"/>
      </g>
     </g>
     <g id="text_21">
      <!-- 15.0 -->
      <g transform="translate(228.981434 126.199219)scale(0.1 -0.1)">
       <use xlink:href="#DejaVuSans-49"/>
       <use x="63.623047" xlink:href="#DejaVuSans-53"/>
       <use x="127.246094" xlink:href="#DejaVuSans-46"/>
       <use x="159.033203" xlink:href="#DejaVuSans-48"/>
      </g>
     </g>
    </g>
    <g id="ytick_17">
     <g id="line2d_21">
      <g>
       <use style="stroke:#000000;stroke-width:0.8;" x="258.247059" xlink:href="#m5df67a76ca" y="89.4"/>
      </g>
     </g>
     <g id="text_22">
      <!-- 17.5 -->
      <g transform="translate(228.981434 93.199219)scale(0.1 -0.1)">
       <use xlink:href="#DejaVuSans-49"/>
       <use x="63.623047" xlink:href="#DejaVuSans-55"/>
       <use x="127.246094" xlink:href="#DejaVuSans-46"/>
       <use x="159.033203" xlink:href="#DejaVuSans-53"/>
      </g>
     </g>
    </g>
    <g id="ytick_18">
     <g id="line2d_22">
      <g>
       <use style="stroke:#000000;stroke-width:0.8;" x="258.247059" xlink:href="#m5df67a76ca" y="56.4"/>
      </g>
     </g>
     <g id="text_23">
      <!-- 20.0 -->
      <g transform="translate(228.981434 60.199219)scale(0.1 -0.1)">
       <use xlink:href="#DejaVuSans-50"/>
       <use x="63.623047" xlink:href="#DejaVuSans-48"/>
       <use x="127.246094" xlink:href="#DejaVuSans-46"/>
       <use x="159.033203" xlink:href="#DejaVuSans-48"/>
      </g>
     </g>
    </g>
   </g>
   <g id="patch_48">
    <path d="M 258.247059 320.4 
L 258.247059 43.2 
" style="fill:none;stroke:#000000;stroke-linecap:square;stroke-linejoin:miter;stroke-width:0.8;"/>
   </g>
   <g id="patch_49">
    <path d="M 405.952941 320.4 
L 405.952941 43.2 
" style="fill:none;stroke:#000000;stroke-linecap:square;stroke-linejoin:miter;stroke-width:0.8;"/>
   </g>
   <g id="patch_50">
    <path d="M 258.247059 320.4 
L 405.952941 320.4 
" style="fill:none;stroke:#000000;stroke-linecap:square;stroke-linejoin:miter;stroke-width:0.8;"/>
   </g>
   <g id="patch_51">
    <path d="M 258.247059 43.2 
L 405.952941 43.2 
" style="fill:none;stroke:#000000;stroke-linecap:square;stroke-linejoin:miter;stroke-width:0.8;"/>
   </g>
   <g id="text_24">
    <!-- f(x)=ax+b -->
    <g transform="translate(274.463437 37.2)scale(0.22 -0.22)">
     <defs>
      <path d="M 46 62.703125 
L 46 35.5 
L 73.1875 35.5 
L 73.1875 27.203125 
L 46 27.203125 
L 46 0 
L 37.796875 0 
L 37.796875 27.203125 
L 10.59375 27.203125 
L 10.59375 35.5 
L 37.796875 35.5 
L 37.796875 62.703125 
z
" id="DejaVuSans-43"/>
      <path d="M 48.6875 27.296875 
Q 48.6875 37.203125 44.609375 42.84375 
Q 40.53125 48.484375 33.40625 48.484375 
Q 26.265625 48.484375 22.1875 42.84375 
Q 18.109375 37.203125 18.109375 27.296875 
Q 18.109375 17.390625 22.1875 11.75 
Q 26.265625 6.109375 33.40625 6.109375 
Q 40.53125 6.109375 44.609375 11.75 
Q 48.6875 17.390625 48.6875 27.296875 
z
M 18.109375 46.390625 
Q 20.953125 51.265625 25.265625 53.625 
Q 29.59375 56 35.59375 56 
Q 45.5625 56 51.78125 48.09375 
Q 58.015625 40.1875 58.015625 27.296875 
Q 58.015625 14.40625 51.78125 6.484375 
Q 45.5625 -1.421875 35.59375 -1.421875 
Q 29.59375 -1.421875 25.265625 0.953125 
Q 20.953125 3.328125 18.109375 8.203125 
L 18.109375 0 
L 9.078125 0 
L 9.078125 75.984375 
L 18.109375 75.984375 
z
" id="DejaVuSans-98"/>
     </defs>
     <use xlink:href="#DejaVuSans-102"/>
     <use x="35.205078" xlink:href="#DejaVuSans-40"/>
     <use x="74.21875" xlink:href="#DejaVuSans-120"/>
     <use x="133.398438" xlink:href="#DejaVuSans-41"/>
     <use x="172.412109" xlink:href="#DejaVuSans-61"/>
     <use x="256.201172" xlink:href="#DejaVuSans-97"/>
     <use x="317.480469" xlink:href="#DejaVuSans-120"/>
     <use x="376.660156" xlink:href="#DejaVuSans-43"/>
     <use x="460.449219" xlink:href="#DejaVuSans-98"/>
    </g>
   </g>
  </g>
  <g id="axes_3">
   <g id="patch_52">
    <path d="M 435.494118 320.4 
L 583.2 320.4 
L 583.2 43.2 
L 435.494118 43.2 
z
" style="fill:#ffffff;"/>
   </g>
   <g id="patch_53">
    <path clip-path="url(#p72b77fe3d7)" d="M 442.208021 320.4 
L 448.921925 320.4 
L 448.921925 307.2 
L 442.208021 307.2 
z
" style="fill:#800080;"/>
   </g>
   <g id="patch_54">
    <path clip-path="url(#p72b77fe3d7)" d="M 448.921925 320.4 
L 455.635829 320.4 
L 455.635829 228 
L 448.921925 228 
z
" style="fill:#800080;"/>
   </g>
   <g id="patch_55">
    <path clip-path="url(#p72b77fe3d7)" d="M 455.635829 320.4 
L 462.349733 320.4 
L 462.349733 201.6 
L 455.635829 201.6 
z
" style="fill:#800080;"/>
   </g>
   <g id="patch_56">
    <path clip-path="url(#p72b77fe3d7)" d="M 462.349733 320.4 
L 469.063636 320.4 
L 469.063636 56.4 
L 462.349733 56.4 
z
" style="fill:#800080;"/>
   </g>
   <g id="patch_57">
    <path clip-path="url(#p72b77fe3d7)" d="M 469.063636 320.4 
L 475.77754 320.4 
L 475.77754 201.6 
L 469.063636 201.6 
z
" style="fill:#800080;"/>
   </g>
   <g id="patch_58">
    <path clip-path="url(#p72b77fe3d7)" d="M 475.77754 320.4 
L 482.491444 320.4 
L 482.491444 214.8 
L 475.77754 214.8 
z
" style="fill:#800080;"/>
   </g>
   <g id="patch_59">
    <path clip-path="url(#p72b77fe3d7)" d="M 482.491444 320.4 
L 489.205348 320.4 
L 489.205348 254.4 
L 482.491444 254.4 
z
" style="fill:#800080;"/>
   </g>
   <g id="patch_60">
    <path clip-path="url(#p72b77fe3d7)" d="M 489.205348 320.4 
L 495.919251 320.4 
L 495.919251 228 
L 489.205348 228 
z
" style="fill:#800080;"/>
   </g>
   <g id="patch_61">
    <path clip-path="url(#p72b77fe3d7)" d="M 495.919251 320.4 
L 502.633155 320.4 
L 502.633155 254.4 
L 495.919251 254.4 
z
" style="fill:#800080;"/>
   </g>
   <g id="patch_62">
    <path clip-path="url(#p72b77fe3d7)" d="M 502.633155 320.4 
L 509.347059 320.4 
L 509.347059 254.4 
L 502.633155 254.4 
z
" style="fill:#800080;"/>
   </g>
   <g id="patch_63">
    <path clip-path="url(#p72b77fe3d7)" d="M 509.347059 320.4 
L 516.060963 320.4 
L 516.060963 294 
L 509.347059 294 
z
" style="fill:#800080;"/>
   </g>
   <g id="patch_64">
    <path clip-path="url(#p72b77fe3d7)" d="M 516.060963 320.4 
L 522.774866 320.4 
L 522.774866 280.8 
L 516.060963 280.8 
z
" style="fill:#800080;"/>
   </g>
   <g id="patch_65">
    <path clip-path="url(#p72b77fe3d7)" d="M 522.774866 320.4 
L 529.48877 320.4 
L 529.48877 254.4 
L 522.774866 254.4 
z
" style="fill:#800080;"/>
   </g>
   <g id="patch_66">
    <path clip-path="url(#p72b77fe3d7)" d="M 529.48877 320.4 
L 536.202674 320.4 
L 536.202674 267.6 
L 529.48877 267.6 
z
" style="fill:#800080;"/>
   </g>
   <g id="patch_67">
    <path clip-path="url(#p72b77fe3d7)" d="M 536.202674 320.4 
L 542.916578 320.4 
L 542.916578 294 
L 536.202674 294 
z
" style="fill:#800080;"/>
   </g>
   <g id="patch_68">
    <path clip-path="url(#p72b77fe3d7)" d="M 542.916578 320.4 
L 549.630481 320.4 
L 549.630481 267.6 
L 542.916578 267.6 
z
" style="fill:#800080;"/>
   </g>
   <g id="patch_69">
    <path clip-path="url(#p72b77fe3d7)" d="M 549.630481 320.4 
L 556.344385 320.4 
L 556.344385 294 
L 549.630481 294 
z
" style="fill:#800080;"/>
   </g>
   <g id="patch_70">
    <path clip-path="url(#p72b77fe3d7)" d="M 556.344385 320.4 
L 563.058289 320.4 
L 563.058289 320.4 
L 556.344385 320.4 
z
" style="fill:#800080;"/>
   </g>
   <g id="patch_71">
    <path clip-path="url(#p72b77fe3d7)" d="M 563.058289 320.4 
L 569.772193 320.4 
L 569.772193 307.2 
L 563.058289 307.2 
z
" style="fill:#800080;"/>
   </g>
   <g id="patch_72">
    <path clip-path="url(#p72b77fe3d7)" d="M 569.772193 320.4 
L 576.486096 320.4 
L 576.486096 307.2 
L 569.772193 307.2 
z
" style="fill:#800080;"/>
   </g>
   <g id="matplotlib.axis_5">
    <g id="xtick_5">
     <g id="line2d_23">
      <g>
       <use style="stroke:#000000;stroke-width:0.8;" x="451.63249" xlink:href="#mdfd8a9a998" y="320.4"/>
      </g>
     </g>
     <g id="text_25">
      <!-- −0.5 -->
      <g transform="translate(439.491084 334.998438)scale(0.1 -0.1)">
       <defs>
        <path d="M 10.59375 35.5 
L 73.1875 35.5 
L 73.1875 27.203125 
L 10.59375 27.203125 
z
" id="DejaVuSans-8722"/>
       </defs>
       <use xlink:href="#DejaVuSans-8722"/>
       <use x="83.789062" xlink:href="#DejaVuSans-48"/>
       <use x="147.412109" xlink:href="#DejaVuSans-46"/>
       <use x="179.199219" xlink:href="#DejaVuSans-53"/>
      </g>
     </g>
    </g>
    <g id="xtick_6">
     <g id="line2d_24">
      <g>
       <use style="stroke:#000000;stroke-width:0.8;" x="512.314536" xlink:href="#mdfd8a9a998" y="320.4"/>
      </g>
     </g>
     <g id="text_26">
      <!-- 0.0 -->
      <g transform="translate(504.362973 334.998438)scale(0.1 -0.1)">
       <use xlink:href="#DejaVuSans-48"/>
       <use x="63.623047" xlink:href="#DejaVuSans-46"/>
       <use x="95.410156" xlink:href="#DejaVuSans-48"/>
      </g>
     </g>
    </g>
    <g id="xtick_7">
     <g id="line2d_25">
      <g>
       <use style="stroke:#000000;stroke-width:0.8;" x="572.996581" xlink:href="#mdfd8a9a998" y="320.4"/>
      </g>
     </g>
     <g id="text_27">
      <!-- 0.5 -->
      <g transform="translate(565.045019 334.998438)scale(0.1 -0.1)">
       <use xlink:href="#DejaVuSans-48"/>
       <use x="63.623047" xlink:href="#DejaVuSans-46"/>
       <use x="95.410156" xlink:href="#DejaVuSans-53"/>
      </g>
     </g>
    </g>
   </g>
   <g id="matplotlib.axis_6">
    <g id="ytick_19">
     <g id="line2d_26">
      <g>
       <use style="stroke:#000000;stroke-width:0.8;" x="435.494118" xlink:href="#m5df67a76ca" y="320.4"/>
      </g>
     </g>
     <g id="text_28">
      <!-- 0.0 -->
      <g transform="translate(412.590993 324.199219)scale(0.1 -0.1)">
       <use xlink:href="#DejaVuSans-48"/>
       <use x="63.623047" xlink:href="#DejaVuSans-46"/>
       <use x="95.410156" xlink:href="#DejaVuSans-48"/>
      </g>
     </g>
    </g>
    <g id="ytick_20">
     <g id="line2d_27">
      <g>
       <use style="stroke:#000000;stroke-width:0.8;" x="435.494118" xlink:href="#m5df67a76ca" y="287.4"/>
      </g>
     </g>
     <g id="text_29">
      <!-- 2.5 -->
      <g transform="translate(412.590993 291.199219)scale(0.1 -0.1)">
       <use xlink:href="#DejaVuSans-50"/>
       <use x="63.623047" xlink:href="#DejaVuSans-46"/>
       <use x="95.410156" xlink:href="#DejaVuSans-53"/>
      </g>
     </g>
    </g>
    <g id="ytick_21">
     <g id="line2d_28">
      <g>
       <use style="stroke:#000000;stroke-width:0.8;" x="435.494118" xlink:href="#m5df67a76ca" y="254.4"/>
      </g>
     </g>
     <g id="text_30">
      <!-- 5.0 -->
      <g transform="translate(412.590993 258.199219)scale(0.1 -0.1)">
       <use xlink:href="#DejaVuSans-53"/>
       <use x="63.623047" xlink:href="#DejaVuSans-46"/>
       <use x="95.410156" xlink:href="#DejaVuSans-48"/>
      </g>
     </g>
    </g>
    <g id="ytick_22">
     <g id="line2d_29">
      <g>
       <use style="stroke:#000000;stroke-width:0.8;" x="435.494118" xlink:href="#m5df67a76ca" y="221.4"/>
      </g>
     </g>
     <g id="text_31">
      <!-- 7.5 -->
      <g transform="translate(412.590993 225.199219)scale(0.1 -0.1)">
       <use xlink:href="#DejaVuSans-55"/>
       <use x="63.623047" xlink:href="#DejaVuSans-46"/>
       <use x="95.410156" xlink:href="#DejaVuSans-53"/>
      </g>
     </g>
    </g>
    <g id="ytick_23">
     <g id="line2d_30">
      <g>
       <use style="stroke:#000000;stroke-width:0.8;" x="435.494118" xlink:href="#m5df67a76ca" y="188.4"/>
      </g>
     </g>
     <g id="text_32">
      <!-- 10.0 -->
      <g transform="translate(406.228493 192.199219)scale(0.1 -0.1)">
       <use xlink:href="#DejaVuSans-49"/>
       <use x="63.623047" xlink:href="#DejaVuSans-48"/>
       <use x="127.246094" xlink:href="#DejaVuSans-46"/>
       <use x="159.033203" xlink:href="#DejaVuSans-48"/>
      </g>
     </g>
    </g>
    <g id="ytick_24">
     <g id="line2d_31">
      <g>
       <use style="stroke:#000000;stroke-width:0.8;" x="435.494118" xlink:href="#m5df67a76ca" y="155.4"/>
      </g>
     </g>
     <g id="text_33">
      <!-- 12.5 -->
      <g transform="translate(406.228493 159.199219)scale(0.1 -0.1)">
       <use xlink:href="#DejaVuSans-49"/>
       <use x="63.623047" xlink:href="#DejaVuSans-50"/>
       <use x="127.246094" xlink:href="#DejaVuSans-46"/>
       <use x="159.033203" xlink:href="#DejaVuSans-53"/>
      </g>
     </g>
    </g>
    <g id="ytick_25">
     <g id="line2d_32">
      <g>
       <use style="stroke:#000000;stroke-width:0.8;" x="435.494118" xlink:href="#m5df67a76ca" y="122.4"/>
      </g>
     </g>
     <g id="text_34">
      <!-- 15.0 -->
      <g transform="translate(406.228493 126.199219)scale(0.1 -0.1)">
       <use xlink:href="#DejaVuSans-49"/>
       <use x="63.623047" xlink:href="#DejaVuSans-53"/>
       <use x="127.246094" xlink:href="#DejaVuSans-46"/>
       <use x="159.033203" xlink:href="#DejaVuSans-48"/>
      </g>
     </g>
    </g>
    <g id="ytick_26">
     <g id="line2d_33">
      <g>
       <use style="stroke:#000000;stroke-width:0.8;" x="435.494118" xlink:href="#m5df67a76ca" y="89.4"/>
      </g>
     </g>
     <g id="text_35">
      <!-- 17.5 -->
      <g transform="translate(406.228493 93.199219)scale(0.1 -0.1)">
       <use xlink:href="#DejaVuSans-49"/>
       <use x="63.623047" xlink:href="#DejaVuSans-55"/>
       <use x="127.246094" xlink:href="#DejaVuSans-46"/>
       <use x="159.033203" xlink:href="#DejaVuSans-53"/>
      </g>
     </g>
    </g>
    <g id="ytick_27">
     <g id="line2d_34">
      <g>
       <use style="stroke:#000000;stroke-width:0.8;" x="435.494118" xlink:href="#m5df67a76ca" y="56.4"/>
      </g>
     </g>
     <g id="text_36">
      <!-- 20.0 -->
      <g transform="translate(406.228493 60.199219)scale(0.1 -0.1)">
       <use xlink:href="#DejaVuSans-50"/>
       <use x="63.623047" xlink:href="#DejaVuSans-48"/>
       <use x="127.246094" xlink:href="#DejaVuSans-46"/>
       <use x="159.033203" xlink:href="#DejaVuSans-48"/>
      </g>
     </g>
    </g>
   </g>
   <g id="patch_73">
    <path d="M 435.494118 320.4 
L 435.494118 43.2 
" style="fill:none;stroke:#000000;stroke-linecap:square;stroke-linejoin:miter;stroke-width:0.8;"/>
   </g>
   <g id="patch_74">
    <path d="M 583.2 320.4 
L 583.2 43.2 
" style="fill:none;stroke:#000000;stroke-linecap:square;stroke-linejoin:miter;stroke-width:0.8;"/>
   </g>
   <g id="patch_75">
    <path d="M 435.494118 320.4 
L 583.2 320.4 
" style="fill:none;stroke:#000000;stroke-linecap:square;stroke-linejoin:miter;stroke-width:0.8;"/>
   </g>
   <g id="patch_76">
    <path d="M 435.494118 43.2 
L 583.2 43.2 
" style="fill:none;stroke:#000000;stroke-linecap:square;stroke-linejoin:miter;stroke-width:0.8;"/>
   </g>
   <g id="text_37">
    <!-- f(x)=ax**2+bsin(x)+c -->
    <g transform="translate(387.594246 37.2)scale(0.22 -0.22)">
     <defs>
      <path d="M 47.015625 60.890625 
L 29.5 51.421875 
L 47.015625 41.890625 
L 44.1875 37.109375 
L 27.78125 47.015625 
L 27.78125 28.609375 
L 22.21875 28.609375 
L 22.21875 47.015625 
L 5.8125 37.109375 
L 2.984375 41.890625 
L 20.515625 51.421875 
L 2.984375 60.890625 
L 5.8125 65.71875 
L 22.21875 55.8125 
L 22.21875 74.21875 
L 27.78125 74.21875 
L 27.78125 55.8125 
L 44.1875 65.71875 
z
" id="DejaVuSans-42"/>
      <path d="M 44.28125 53.078125 
L 44.28125 44.578125 
Q 40.484375 46.53125 36.375 47.5 
Q 32.28125 48.484375 27.875 48.484375 
Q 21.1875 48.484375 17.84375 46.4375 
Q 14.5 44.390625 14.5 40.28125 
Q 14.5 37.15625 16.890625 35.375 
Q 19.28125 33.59375 26.515625 31.984375 
L 29.59375 31.296875 
Q 39.15625 29.25 43.1875 25.515625 
Q 47.21875 21.78125 47.21875 15.09375 
Q 47.21875 7.46875 41.1875 3.015625 
Q 35.15625 -1.421875 24.609375 -1.421875 
Q 20.21875 -1.421875 15.453125 -0.5625 
Q 10.6875 0.296875 5.421875 2 
L 5.421875 11.28125 
Q 10.40625 8.6875 15.234375 7.390625 
Q 20.0625 6.109375 24.8125 6.109375 
Q 31.15625 6.109375 34.5625 8.28125 
Q 37.984375 10.453125 37.984375 14.40625 
Q 37.984375 18.0625 35.515625 20.015625 
Q 33.0625 21.96875 24.703125 23.78125 
L 21.578125 24.515625 
Q 13.234375 26.265625 9.515625 29.90625 
Q 5.8125 33.546875 5.8125 39.890625 
Q 5.8125 47.609375 11.28125 51.796875 
Q 16.75 56 26.8125 56 
Q 31.78125 56 36.171875 55.265625 
Q 40.578125 54.546875 44.28125 53.078125 
z
" id="DejaVuSans-115"/>
      <path d="M 9.421875 54.6875 
L 18.40625 54.6875 
L 18.40625 0 
L 9.421875 0 
z
M 9.421875 75.984375 
L 18.40625 75.984375 
L 18.40625 64.59375 
L 9.421875 64.59375 
z
" id="DejaVuSans-105"/>
      <path d="M 54.890625 33.015625 
L 54.890625 0 
L 45.90625 0 
L 45.90625 32.71875 
Q 45.90625 40.484375 42.875 44.328125 
Q 39.84375 48.1875 33.796875 48.1875 
Q 26.515625 48.1875 22.3125 43.546875 
Q 18.109375 38.921875 18.109375 30.90625 
L 18.109375 0 
L 9.078125 0 
L 9.078125 54.6875 
L 18.109375 54.6875 
L 18.109375 46.1875 
Q 21.34375 51.125 25.703125 53.5625 
Q 30.078125 56 35.796875 56 
Q 45.21875 56 50.046875 50.171875 
Q 54.890625 44.34375 54.890625 33.015625 
z
" id="DejaVuSans-110"/>
      <path d="M 48.78125 52.59375 
L 48.78125 44.1875 
Q 44.96875 46.296875 41.140625 47.34375 
Q 37.3125 48.390625 33.40625 48.390625 
Q 24.65625 48.390625 19.8125 42.84375 
Q 14.984375 37.3125 14.984375 27.296875 
Q 14.984375 17.28125 19.8125 11.734375 
Q 24.65625 6.203125 33.40625 6.203125 
Q 37.3125 6.203125 41.140625 7.25 
Q 44.96875 8.296875 48.78125 10.40625 
L 48.78125 2.09375 
Q 45.015625 0.34375 40.984375 -0.53125 
Q 36.96875 -1.421875 32.421875 -1.421875 
Q 20.0625 -1.421875 12.78125 6.34375 
Q 5.515625 14.109375 5.515625 27.296875 
Q 5.515625 40.671875 12.859375 48.328125 
Q 20.21875 56 33.015625 56 
Q 37.15625 56 41.109375 55.140625 
Q 45.0625 54.296875 48.78125 52.59375 
z
" id="DejaVuSans-99"/>
     </defs>
     <use xlink:href="#DejaVuSans-102"/>
     <use x="35.205078" xlink:href="#DejaVuSans-40"/>
     <use x="74.21875" xlink:href="#DejaVuSans-120"/>
     <use x="133.398438" xlink:href="#DejaVuSans-41"/>
     <use x="172.412109" xlink:href="#DejaVuSans-61"/>
     <use x="256.201172" xlink:href="#DejaVuSans-97"/>
     <use x="317.480469" xlink:href="#DejaVuSans-120"/>
     <use x="376.660156" xlink:href="#DejaVuSans-42"/>
     <use x="426.660156" xlink:href="#DejaVuSans-42"/>
     <use x="476.660156" xlink:href="#DejaVuSans-50"/>
     <use x="540.283203" xlink:href="#DejaVuSans-43"/>
     <use x="624.072266" xlink:href="#DejaVuSans-98"/>
     <use x="687.548828" xlink:href="#DejaVuSans-115"/>
     <use x="739.648438" xlink:href="#DejaVuSans-105"/>
     <use x="767.431641" xlink:href="#DejaVuSans-110"/>
     <use x="830.810547" xlink:href="#DejaVuSans-40"/>
     <use x="869.824219" xlink:href="#DejaVuSans-120"/>
     <use x="929.003906" xlink:href="#DejaVuSans-41"/>
     <use x="968.017578" xlink:href="#DejaVuSans-43"/>
     <use x="1051.806641" xlink:href="#DejaVuSans-99"/>
    </g>
   </g>
  </g>
 </g>
 <defs>
  <clipPath id="p92eabf8de6">
   <rect height="277.2" width="147.705882" x="81" y="43.2"/>
  </clipPath>
  <clipPath id="p44f83d8063">
   <rect height="277.2" width="147.705882" x="258.247059" y="43.2"/>
  </clipPath>
  <clipPath id="p72b77fe3d7">
   <rect height="277.2" width="147.705882" x="435.494118" y="43.2"/>
  </clipPath>
 </defs>
</svg>
