<?xml version="1.0" encoding="utf-8" standalone="no"?>
<!DOCTYPE svg PUBLIC "-//W3C//DTD SVG 1.1//EN"
  "http://www.w3.org/Graphics/SVG/1.1/DTD/svg11.dtd">
<!-- Created with matplotlib (https://matplotlib.org/) -->
<svg height="360pt" version="1.1" viewBox="0 0 648 360" width="648pt" xmlns="http://www.w3.org/2000/svg" xmlns:xlink="http://www.w3.org/1999/xlink">
 <metadata>
  <rdf:RDF xmlns:cc="http://creativecommons.org/ns#" xmlns:dc="http://purl.org/dc/elements/1.1/" xmlns:rdf="http://www.w3.org/1999/02/22-rdf-syntax-ns#">
   <cc:Work>
    <dc:type rdf:resource="http://purl.org/dc/dcmitype/StillImage"/>
    <dc:date>2021-01-19T11:51:31.616840</dc:date>
    <dc:format>image/svg+xml</dc:format>
    <dc:creator>
     <cc:Agent>
      <dc:title>Matplotlib v3.3.3, https://matplotlib.org/</dc:title>
     </cc:Agent>
    </dc:creator>
   </cc:Work>
  </rdf:RDF>
 </metadata>
 <defs>
  <style type="text/css">*{stroke-linecap:butt;stroke-linejoin:round;}</style>
 </defs>
 <g id="figure_1">
  <g id="patch_1">
   <path d="M 0 360 
L 648 360 
L 648 0 
L 0 0 
z
" style="fill:#ffffff;"/>
  </g>
  <g id="axes_1">
   <g id="patch_2">
    <path d="M 81 320.4 
L 583.2 320.4 
L 583.2 43.2 
L 81 43.2 
z
" style="fill:#ffffff;"/>
   </g>
   <g id="matplotlib.axis_1">
    <g id="xtick_1">
     <g id="line2d_1">
      <defs>
       <path d="M 0 0 
L 0 3.5 
" id="md7a08eedce" style="stroke:#000000;stroke-width:0.8;"/>
      </defs>
      <g>
       <use style="stroke:#000000;stroke-width:0.8;" x="141.480506" xlink:href="#md7a08eedce" y="320.4"/>
      </g>
     </g>
     <g id="text_1">
      <!-- 1 -->
      <g transform="translate(138.299256 334.998438)scale(0.1 -0.1)">
       <defs>
        <path d="M 12.40625 8.296875 
L 28.515625 8.296875 
L 28.515625 63.921875 
L 10.984375 60.40625 
L 10.984375 69.390625 
L 28.421875 72.90625 
L 38.28125 72.90625 
L 38.28125 8.296875 
L 54.390625 8.296875 
L 54.390625 0 
L 12.40625 0 
z
" id="DejaVuSans-49"/>
       </defs>
       <use xlink:href="#DejaVuSans-49"/>
      </g>
     </g>
    </g>
    <g id="xtick_2">
     <g id="line2d_2">
      <g>
       <use style="stroke:#000000;stroke-width:0.8;" x="235.61359" xlink:href="#md7a08eedce" y="320.4"/>
      </g>
     </g>
     <g id="text_2">
      <!-- 2 -->
      <g transform="translate(232.43234 334.998438)scale(0.1 -0.1)">
       <defs>
        <path d="M 19.1875 8.296875 
L 53.609375 8.296875 
L 53.609375 0 
L 7.328125 0 
L 7.328125 8.296875 
Q 12.9375 14.109375 22.625 23.890625 
Q 32.328125 33.6875 34.8125 36.53125 
Q 39.546875 41.84375 41.421875 45.53125 
Q 43.3125 49.21875 43.3125 52.78125 
Q 43.3125 58.59375 39.234375 62.25 
Q 35.15625 65.921875 28.609375 65.921875 
Q 23.96875 65.921875 18.8125 64.3125 
Q 13.671875 62.703125 7.8125 59.421875 
L 7.8125 69.390625 
Q 13.765625 71.78125 18.9375 73 
Q 24.125 74.21875 28.421875 74.21875 
Q 39.75 74.21875 46.484375 68.546875 
Q 53.21875 62.890625 53.21875 53.421875 
Q 53.21875 48.921875 51.53125 44.890625 
Q 49.859375 40.875 45.40625 35.40625 
Q 44.1875 33.984375 37.640625 27.21875 
Q 31.109375 20.453125 19.1875 8.296875 
z
" id="DejaVuSans-50"/>
       </defs>
       <use xlink:href="#DejaVuSans-50"/>
      </g>
     </g>
    </g>
    <g id="xtick_3">
     <g id="line2d_3">
      <g>
       <use style="stroke:#000000;stroke-width:0.8;" x="329.746673" xlink:href="#md7a08eedce" y="320.4"/>
      </g>
     </g>
     <g id="text_3">
      <!-- 3 -->
      <g transform="translate(326.565423 334.998438)scale(0.1 -0.1)">
       <defs>
        <path d="M 40.578125 39.3125 
Q 47.65625 37.796875 51.625 33 
Q 55.609375 28.21875 55.609375 21.1875 
Q 55.609375 10.40625 48.1875 4.484375 
Q 40.765625 -1.421875 27.09375 -1.421875 
Q 22.515625 -1.421875 17.65625 -0.515625 
Q 12.796875 0.390625 7.625 2.203125 
L 7.625 11.71875 
Q 11.71875 9.328125 16.59375 8.109375 
Q 21.484375 6.890625 26.8125 6.890625 
Q 36.078125 6.890625 40.9375 10.546875 
Q 45.796875 14.203125 45.796875 21.1875 
Q 45.796875 27.640625 41.28125 31.265625 
Q 36.765625 34.90625 28.71875 34.90625 
L 20.21875 34.90625 
L 20.21875 43.015625 
L 29.109375 43.015625 
Q 36.375 43.015625 40.234375 45.921875 
Q 44.09375 48.828125 44.09375 54.296875 
Q 44.09375 59.90625 40.109375 62.90625 
Q 36.140625 65.921875 28.71875 65.921875 
Q 24.65625 65.921875 20.015625 65.03125 
Q 15.375 64.15625 9.8125 62.3125 
L 9.8125 71.09375 
Q 15.4375 72.65625 20.34375 73.4375 
Q 25.25 74.21875 29.59375 74.21875 
Q 40.828125 74.21875 47.359375 69.109375 
Q 53.90625 64.015625 53.90625 55.328125 
Q 53.90625 49.265625 50.4375 45.09375 
Q 46.96875 40.921875 40.578125 39.3125 
z
" id="DejaVuSans-51"/>
       </defs>
       <use xlink:href="#DejaVuSans-51"/>
      </g>
     </g>
    </g>
    <g id="xtick_4">
     <g id="line2d_4">
      <g>
       <use style="stroke:#000000;stroke-width:0.8;" x="423.879756" xlink:href="#md7a08eedce" y="320.4"/>
      </g>
     </g>
     <g id="text_4">
      <!-- 4 -->
      <g transform="translate(420.698506 334.998438)scale(0.1 -0.1)">
       <defs>
        <path d="M 37.796875 64.3125 
L 12.890625 25.390625 
L 37.796875 25.390625 
z
M 35.203125 72.90625 
L 47.609375 72.90625 
L 47.609375 25.390625 
L 58.015625 25.390625 
L 58.015625 17.1875 
L 47.609375 17.1875 
L 47.609375 0 
L 37.796875 0 
L 37.796875 17.1875 
L 4.890625 17.1875 
L 4.890625 26.703125 
z
" id="DejaVuSans-52"/>
       </defs>
       <use xlink:href="#DejaVuSans-52"/>
      </g>
     </g>
    </g>
    <g id="xtick_5">
     <g id="line2d_5">
      <g>
       <use style="stroke:#000000;stroke-width:0.8;" x="518.01284" xlink:href="#md7a08eedce" y="320.4"/>
      </g>
     </g>
     <g id="text_5">
      <!-- 5 -->
      <g transform="translate(514.83159 334.998438)scale(0.1 -0.1)">
       <defs>
        <path d="M 10.796875 72.90625 
L 49.515625 72.90625 
L 49.515625 64.59375 
L 19.828125 64.59375 
L 19.828125 46.734375 
Q 21.96875 47.46875 24.109375 47.828125 
Q 26.265625 48.1875 28.421875 48.1875 
Q 40.625 48.1875 47.75 41.5 
Q 54.890625 34.8125 54.890625 23.390625 
Q 54.890625 11.625 47.5625 5.09375 
Q 40.234375 -1.421875 26.90625 -1.421875 
Q 22.3125 -1.421875 17.546875 -0.640625 
Q 12.796875 0.140625 7.71875 1.703125 
L 7.71875 11.625 
Q 12.109375 9.234375 16.796875 8.0625 
Q 21.484375 6.890625 26.703125 6.890625 
Q 35.15625 6.890625 40.078125 11.328125 
Q 45.015625 15.765625 45.015625 23.390625 
Q 45.015625 31 40.078125 35.4375 
Q 35.15625 39.890625 26.703125 39.890625 
Q 22.75 39.890625 18.8125 39.015625 
Q 14.890625 38.140625 10.796875 36.28125 
z
" id="DejaVuSans-53"/>
       </defs>
       <use xlink:href="#DejaVuSans-53"/>
      </g>
     </g>
    </g>
   </g>
   <g id="matplotlib.axis_2">
    <g id="ytick_1">
     <g id="line2d_6">
      <defs>
       <path d="M 0 0 
L -3.5 0 
" id="m61ecbf5f9a" style="stroke:#000000;stroke-width:0.8;"/>
      </defs>
      <g>
       <use style="stroke:#000000;stroke-width:0.8;" x="81" xlink:href="#m61ecbf5f9a" y="269.258461"/>
      </g>
     </g>
     <g id="text_6">
      <!-- 0.2 -->
      <g transform="translate(58.096875 273.05768)scale(0.1 -0.1)">
       <defs>
        <path d="M 31.78125 66.40625 
Q 24.171875 66.40625 20.328125 58.90625 
Q 16.5 51.421875 16.5 36.375 
Q 16.5 21.390625 20.328125 13.890625 
Q 24.171875 6.390625 31.78125 6.390625 
Q 39.453125 6.390625 43.28125 13.890625 
Q 47.125 21.390625 47.125 36.375 
Q 47.125 51.421875 43.28125 58.90625 
Q 39.453125 66.40625 31.78125 66.40625 
z
M 31.78125 74.21875 
Q 44.046875 74.21875 50.515625 64.515625 
Q 56.984375 54.828125 56.984375 36.375 
Q 56.984375 17.96875 50.515625 8.265625 
Q 44.046875 -1.421875 31.78125 -1.421875 
Q 19.53125 -1.421875 13.0625 8.265625 
Q 6.59375 17.96875 6.59375 36.375 
Q 6.59375 54.828125 13.0625 64.515625 
Q 19.53125 74.21875 31.78125 74.21875 
z
" id="DejaVuSans-48"/>
        <path d="M 10.6875 12.40625 
L 21 12.40625 
L 21 0 
L 10.6875 0 
z
" id="DejaVuSans-46"/>
       </defs>
       <use xlink:href="#DejaVuSans-48"/>
       <use x="63.623047" xlink:href="#DejaVuSans-46"/>
       <use x="95.410156" xlink:href="#DejaVuSans-50"/>
      </g>
     </g>
    </g>
    <g id="ytick_2">
     <g id="line2d_7">
      <g>
       <use style="stroke:#000000;stroke-width:0.8;" x="81" xlink:href="#m61ecbf5f9a" y="214.19912"/>
      </g>
     </g>
     <g id="text_7">
      <!-- 0.4 -->
      <g transform="translate(58.096875 217.998338)scale(0.1 -0.1)">
       <use xlink:href="#DejaVuSans-48"/>
       <use x="63.623047" xlink:href="#DejaVuSans-46"/>
       <use x="95.410156" xlink:href="#DejaVuSans-52"/>
      </g>
     </g>
    </g>
    <g id="ytick_3">
     <g id="line2d_8">
      <g>
       <use style="stroke:#000000;stroke-width:0.8;" x="81" xlink:href="#m61ecbf5f9a" y="159.139778"/>
      </g>
     </g>
     <g id="text_8">
      <!-- 0.6 -->
      <g transform="translate(58.096875 162.938997)scale(0.1 -0.1)">
       <defs>
        <path d="M 33.015625 40.375 
Q 26.375 40.375 22.484375 35.828125 
Q 18.609375 31.296875 18.609375 23.390625 
Q 18.609375 15.53125 22.484375 10.953125 
Q 26.375 6.390625 33.015625 6.390625 
Q 39.65625 6.390625 43.53125 10.953125 
Q 47.40625 15.53125 47.40625 23.390625 
Q 47.40625 31.296875 43.53125 35.828125 
Q 39.65625 40.375 33.015625 40.375 
z
M 52.59375 71.296875 
L 52.59375 62.3125 
Q 48.875 64.0625 45.09375 64.984375 
Q 41.3125 65.921875 37.59375 65.921875 
Q 27.828125 65.921875 22.671875 59.328125 
Q 17.53125 52.734375 16.796875 39.40625 
Q 19.671875 43.65625 24.015625 45.921875 
Q 28.375 48.1875 33.59375 48.1875 
Q 44.578125 48.1875 50.953125 41.515625 
Q 57.328125 34.859375 57.328125 23.390625 
Q 57.328125 12.15625 50.6875 5.359375 
Q 44.046875 -1.421875 33.015625 -1.421875 
Q 20.359375 -1.421875 13.671875 8.265625 
Q 6.984375 17.96875 6.984375 36.375 
Q 6.984375 53.65625 15.1875 63.9375 
Q 23.390625 74.21875 37.203125 74.21875 
Q 40.921875 74.21875 44.703125 73.484375 
Q 48.484375 72.75 52.59375 71.296875 
z
" id="DejaVuSans-54"/>
       </defs>
       <use xlink:href="#DejaVuSans-48"/>
       <use x="63.623047" xlink:href="#DejaVuSans-46"/>
       <use x="95.410156" xlink:href="#DejaVuSans-54"/>
      </g>
     </g>
    </g>
    <g id="ytick_4">
     <g id="line2d_9">
      <g>
       <use style="stroke:#000000;stroke-width:0.8;" x="81" xlink:href="#m61ecbf5f9a" y="104.080437"/>
      </g>
     </g>
     <g id="text_9">
      <!-- 0.8 -->
      <g transform="translate(58.096875 107.879655)scale(0.1 -0.1)">
       <defs>
        <path d="M 31.78125 34.625 
Q 24.75 34.625 20.71875 30.859375 
Q 16.703125 27.09375 16.703125 20.515625 
Q 16.703125 13.921875 20.71875 10.15625 
Q 24.75 6.390625 31.78125 6.390625 
Q 38.8125 6.390625 42.859375 10.171875 
Q 46.921875 13.96875 46.921875 20.515625 
Q 46.921875 27.09375 42.890625 30.859375 
Q 38.875 34.625 31.78125 34.625 
z
M 21.921875 38.8125 
Q 15.578125 40.375 12.03125 44.71875 
Q 8.5 49.078125 8.5 55.328125 
Q 8.5 64.0625 14.71875 69.140625 
Q 20.953125 74.21875 31.78125 74.21875 
Q 42.671875 74.21875 48.875 69.140625 
Q 55.078125 64.0625 55.078125 55.328125 
Q 55.078125 49.078125 51.53125 44.71875 
Q 48 40.375 41.703125 38.8125 
Q 48.828125 37.15625 52.796875 32.3125 
Q 56.78125 27.484375 56.78125 20.515625 
Q 56.78125 9.90625 50.3125 4.234375 
Q 43.84375 -1.421875 31.78125 -1.421875 
Q 19.734375 -1.421875 13.25 4.234375 
Q 6.78125 9.90625 6.78125 20.515625 
Q 6.78125 27.484375 10.78125 32.3125 
Q 14.796875 37.15625 21.921875 38.8125 
z
M 18.3125 54.390625 
Q 18.3125 48.734375 21.84375 45.5625 
Q 25.390625 42.390625 31.78125 42.390625 
Q 38.140625 42.390625 41.71875 45.5625 
Q 45.3125 48.734375 45.3125 54.390625 
Q 45.3125 60.0625 41.71875 63.234375 
Q 38.140625 66.40625 31.78125 66.40625 
Q 25.390625 66.40625 21.84375 63.234375 
Q 18.3125 60.0625 18.3125 54.390625 
z
" id="DejaVuSans-56"/>
       </defs>
       <use xlink:href="#DejaVuSans-48"/>
       <use x="63.623047" xlink:href="#DejaVuSans-46"/>
       <use x="95.410156" xlink:href="#DejaVuSans-56"/>
      </g>
     </g>
    </g>
    <g id="ytick_5">
     <g id="line2d_10">
      <g>
       <use style="stroke:#000000;stroke-width:0.8;" x="81" xlink:href="#m61ecbf5f9a" y="49.021095"/>
      </g>
     </g>
     <g id="text_10">
      <!-- 1.0 -->
      <g transform="translate(58.096875 52.820314)scale(0.1 -0.1)">
       <use xlink:href="#DejaVuSans-49"/>
       <use x="63.623047" xlink:href="#DejaVuSans-46"/>
       <use x="95.410156" xlink:href="#DejaVuSans-48"/>
      </g>
     </g>
    </g>
   </g>
   <g id="line2d_11">
    <defs>
     <path d="M 0 1.5 
C 0.397805 1.5 0.77937 1.341951 1.06066 1.06066 
C 1.341951 0.77937 1.5 0.397805 1.5 0 
C 1.5 -0.397805 1.341951 -0.77937 1.06066 -1.06066 
C 0.77937 -1.341951 0.397805 -1.5 0 -1.5 
C -0.397805 -1.5 -0.77937 -1.341951 -1.06066 -1.06066 
C -1.341951 -0.77937 -1.5 -0.397805 -1.5 0 
C -1.5 0.397805 -1.341951 0.77937 -1.06066 1.06066 
C -0.77937 1.341951 -0.397805 1.5 0 1.5 
z
" id="m5643fb4911" style="stroke:#ff0000;"/>
    </defs>
    <g clip-path="url(#p4402da3b68)">
     <use style="fill:#ff0000;stroke:#ff0000;" x="103.827273" xlink:href="#m5643fb4911" y="307.8"/>
     <use style="fill:#ff0000;stroke:#ff0000;" x="132.067198" xlink:href="#m5643fb4911" y="266.505494"/>
     <use style="fill:#ff0000;stroke:#ff0000;" x="134.89119" xlink:href="#m5643fb4911" y="266.505494"/>
     <use style="fill:#ff0000;stroke:#ff0000;" x="147.128491" xlink:href="#m5643fb4911" y="258.246593"/>
     <use style="fill:#ff0000;stroke:#ff0000;" x="169.720431" xlink:href="#m5643fb4911" y="244.481757"/>
     <use style="fill:#ff0000;stroke:#ff0000;" x="190.429709" xlink:href="#m5643fb4911" y="249.987691"/>
     <use style="fill:#ff0000;stroke:#ff0000;" x="196.077694" xlink:href="#m5643fb4911" y="280.270329"/>
     <use style="fill:#ff0000;stroke:#ff0000;" x="206.432334" xlink:href="#m5643fb4911" y="230.716922"/>
     <use style="fill:#ff0000;stroke:#ff0000;" x="212.080319" xlink:href="#m5643fb4911" y="222.458021"/>
     <use style="fill:#ff0000;stroke:#ff0000;" x="219.610965" xlink:href="#m5643fb4911" y="227.963955"/>
     <use style="fill:#ff0000;stroke:#ff0000;" x="229.965604" xlink:href="#m5643fb4911" y="222.458021"/>
     <use style="fill:#ff0000;stroke:#ff0000;" x="235.61359" xlink:href="#m5643fb4911" y="225.210988"/>
     <use style="fill:#ff0000;stroke:#ff0000;" x="238.437582" xlink:href="#m5643fb4911" y="208.693185"/>
     <use style="fill:#ff0000;stroke:#ff0000;" x="252.557545" xlink:href="#m5643fb4911" y="197.681317"/>
     <use style="fill:#ff0000;stroke:#ff0000;" x="256.322868" xlink:href="#m5643fb4911" y="236.222856"/>
     <use style="fill:#ff0000;stroke:#ff0000;" x="256.322868" xlink:href="#m5643fb4911" y="200.434284"/>
     <use style="fill:#ff0000;stroke:#ff0000;" x="256.322868" xlink:href="#m5643fb4911" y="194.92835"/>
     <use style="fill:#ff0000;stroke:#ff0000;" x="256.322868" xlink:href="#m5643fb4911" y="197.681317"/>
     <use style="fill:#ff0000;stroke:#ff0000;" x="261.029522" xlink:href="#m5643fb4911" y="200.434284"/>
     <use style="fill:#ff0000;stroke:#ff0000;" x="261.970853" xlink:href="#m5643fb4911" y="211.446152"/>
     <use style="fill:#ff0000;stroke:#ff0000;" x="262.912184" xlink:href="#m5643fb4911" y="214.19912"/>
     <use style="fill:#ff0000;stroke:#ff0000;" x="264.794845" xlink:href="#m5643fb4911" y="214.19912"/>
     <use style="fill:#ff0000;stroke:#ff0000;" x="268.560169" xlink:href="#m5643fb4911" y="208.693185"/>
     <use style="fill:#ff0000;stroke:#ff0000;" x="271.384161" xlink:href="#m5643fb4911" y="197.681317"/>
     <use style="fill:#ff0000;stroke:#ff0000;" x="272.325492" xlink:href="#m5643fb4911" y="200.434284"/>
     <use style="fill:#ff0000;stroke:#ff0000;" x="276.090815" xlink:href="#m5643fb4911" y="183.916482"/>
     <use style="fill:#ff0000;stroke:#ff0000;" x="285.504124" xlink:href="#m5643fb4911" y="189.422416"/>
     <use style="fill:#ff0000;stroke:#ff0000;" x="287.386785" xlink:href="#m5643fb4911" y="181.163515"/>
     <use style="fill:#ff0000;stroke:#ff0000;" x="289.269447" xlink:href="#m5643fb4911" y="186.669449"/>
     <use style="fill:#ff0000;stroke:#ff0000;" x="292.09344" xlink:href="#m5643fb4911" y="172.904613"/>
     <use style="fill:#ff0000;stroke:#ff0000;" x="292.09344" xlink:href="#m5643fb4911" y="175.65758"/>
     <use style="fill:#ff0000;stroke:#ff0000;" x="293.03477" xlink:href="#m5643fb4911" y="197.681317"/>
     <use style="fill:#ff0000;stroke:#ff0000;" x="293.976101" xlink:href="#m5643fb4911" y="197.681317"/>
     <use style="fill:#ff0000;stroke:#ff0000;" x="293.976101" xlink:href="#m5643fb4911" y="189.422416"/>
     <use style="fill:#ff0000;stroke:#ff0000;" x="293.976101" xlink:href="#m5643fb4911" y="183.916482"/>
     <use style="fill:#ff0000;stroke:#ff0000;" x="293.976101" xlink:href="#m5643fb4911" y="175.65758"/>
     <use style="fill:#ff0000;stroke:#ff0000;" x="298.682755" xlink:href="#m5643fb4911" y="153.633844"/>
     <use style="fill:#ff0000;stroke:#ff0000;" x="299.624086" xlink:href="#m5643fb4911" y="183.916482"/>
     <use style="fill:#ff0000;stroke:#ff0000;" x="303.38941" xlink:href="#m5643fb4911" y="178.410548"/>
     <use style="fill:#ff0000;stroke:#ff0000;" x="304.33074" xlink:href="#m5643fb4911" y="197.681317"/>
     <use style="fill:#ff0000;stroke:#ff0000;" x="305.272071" xlink:href="#m5643fb4911" y="159.139778"/>
     <use style="fill:#ff0000;stroke:#ff0000;" x="305.272071" xlink:href="#m5643fb4911" y="192.175383"/>
     <use style="fill:#ff0000;stroke:#ff0000;" x="306.213402" xlink:href="#m5643fb4911" y="186.669449"/>
     <use style="fill:#ff0000;stroke:#ff0000;" x="307.154733" xlink:href="#m5643fb4911" y="161.892745"/>
     <use style="fill:#ff0000;stroke:#ff0000;" x="309.978725" xlink:href="#m5643fb4911" y="194.92835"/>
     <use style="fill:#ff0000;stroke:#ff0000;" x="313.744049" xlink:href="#m5643fb4911" y="161.892745"/>
     <use style="fill:#ff0000;stroke:#ff0000;" x="314.68538" xlink:href="#m5643fb4911" y="200.434284"/>
     <use style="fill:#ff0000;stroke:#ff0000;" x="314.68538" xlink:href="#m5643fb4911" y="183.916482"/>
     <use style="fill:#ff0000;stroke:#ff0000;" x="322.216026" xlink:href="#m5643fb4911" y="186.669449"/>
     <use style="fill:#ff0000;stroke:#ff0000;" x="324.098688" xlink:href="#m5643fb4911" y="175.65758"/>
     <use style="fill:#ff0000;stroke:#ff0000;" x="325.98135" xlink:href="#m5643fb4911" y="194.92835"/>
     <use style="fill:#ff0000;stroke:#ff0000;" x="325.98135" xlink:href="#m5643fb4911" y="161.892745"/>
     <use style="fill:#ff0000;stroke:#ff0000;" x="334.453327" xlink:href="#m5643fb4911" y="192.175383"/>
     <use style="fill:#ff0000;stroke:#ff0000;" x="337.27732" xlink:href="#m5643fb4911" y="186.669449"/>
     <use style="fill:#ff0000;stroke:#ff0000;" x="337.27732" xlink:href="#m5643fb4911" y="156.386811"/>
     <use style="fill:#ff0000;stroke:#ff0000;" x="360.81059" xlink:href="#m5643fb4911" y="156.386811"/>
     <use style="fill:#ff0000;stroke:#ff0000;" x="360.81059" xlink:href="#m5643fb4911" y="159.139778"/>
     <use style="fill:#ff0000;stroke:#ff0000;" x="360.81059" xlink:href="#m5643fb4911" y="139.869009"/>
     <use style="fill:#ff0000;stroke:#ff0000;" x="363.634583" xlink:href="#m5643fb4911" y="150.880877"/>
     <use style="fill:#ff0000;stroke:#ff0000;" x="363.634583" xlink:href="#m5643fb4911" y="153.633844"/>
     <use style="fill:#ff0000;stroke:#ff0000;" x="364.575914" xlink:href="#m5643fb4911" y="159.139778"/>
     <use style="fill:#ff0000;stroke:#ff0000;" x="369.282568" xlink:href="#m5643fb4911" y="167.398679"/>
     <use style="fill:#ff0000;stroke:#ff0000;" x="373.989222" xlink:href="#m5643fb4911" y="150.880877"/>
     <use style="fill:#ff0000;stroke:#ff0000;" x="375.871884" xlink:href="#m5643fb4911" y="192.175383"/>
     <use style="fill:#ff0000;stroke:#ff0000;" x="375.871884" xlink:href="#m5643fb4911" y="156.386811"/>
     <use style="fill:#ff0000;stroke:#ff0000;" x="376.813215" xlink:href="#m5643fb4911" y="150.880877"/>
     <use style="fill:#ff0000;stroke:#ff0000;" x="377.754545" xlink:href="#m5643fb4911" y="148.12791"/>
     <use style="fill:#ff0000;stroke:#ff0000;" x="377.754545" xlink:href="#m5643fb4911" y="150.880877"/>
     <use style="fill:#ff0000;stroke:#ff0000;" x="380.578538" xlink:href="#m5643fb4911" y="142.621976"/>
     <use style="fill:#ff0000;stroke:#ff0000;" x="389.050515" xlink:href="#m5643fb4911" y="128.85714"/>
     <use style="fill:#ff0000;stroke:#ff0000;" x="399.405155" xlink:href="#m5643fb4911" y="115.092305"/>
     <use style="fill:#ff0000;stroke:#ff0000;" x="402.229147" xlink:href="#m5643fb4911" y="134.363074"/>
     <use style="fill:#ff0000;stroke:#ff0000;" x="402.229147" xlink:href="#m5643fb4911" y="137.116041"/>
     <use style="fill:#ff0000;stroke:#ff0000;" x="405.05314" xlink:href="#m5643fb4911" y="120.598239"/>
     <use style="fill:#ff0000;stroke:#ff0000;" x="407.877132" xlink:href="#m5643fb4911" y="161.892745"/>
     <use style="fill:#ff0000;stroke:#ff0000;" x="409.759794" xlink:href="#m5643fb4911" y="131.610107"/>
     <use style="fill:#ff0000;stroke:#ff0000;" x="411.642455" xlink:href="#m5643fb4911" y="150.880877"/>
     <use style="fill:#ff0000;stroke:#ff0000;" x="411.642455" xlink:href="#m5643fb4911" y="131.610107"/>
     <use style="fill:#ff0000;stroke:#ff0000;" x="414.466448" xlink:href="#m5643fb4911" y="120.598239"/>
     <use style="fill:#ff0000;stroke:#ff0000;" x="417.29044" xlink:href="#m5643fb4911" y="145.374943"/>
     <use style="fill:#ff0000;stroke:#ff0000;" x="417.29044" xlink:href="#m5643fb4911" y="142.621976"/>
     <use style="fill:#ff0000;stroke:#ff0000;" x="421.997095" xlink:href="#m5643fb4911" y="137.116041"/>
     <use style="fill:#ff0000;stroke:#ff0000;" x="421.997095" xlink:href="#m5643fb4911" y="137.116041"/>
     <use style="fill:#ff0000;stroke:#ff0000;" x="425.762418" xlink:href="#m5643fb4911" y="139.869009"/>
     <use style="fill:#ff0000;stroke:#ff0000;" x="436.117057" xlink:href="#m5643fb4911" y="123.351206"/>
     <use style="fill:#ff0000;stroke:#ff0000;" x="442.706373" xlink:href="#m5643fb4911" y="112.339338"/>
     <use style="fill:#ff0000;stroke:#ff0000;" x="442.706373" xlink:href="#m5643fb4911" y="104.080437"/>
     <use style="fill:#ff0000;stroke:#ff0000;" x="442.706373" xlink:href="#m5643fb4911" y="131.610107"/>
     <use style="fill:#ff0000;stroke:#ff0000;" x="442.706373" xlink:href="#m5643fb4911" y="109.586371"/>
     <use style="fill:#ff0000;stroke:#ff0000;" x="449.295689" xlink:href="#m5643fb4911" y="139.869009"/>
     <use style="fill:#ff0000;stroke:#ff0000;" x="456.826336" xlink:href="#m5643fb4911" y="109.586371"/>
     <use style="fill:#ff0000;stroke:#ff0000;" x="456.826336" xlink:href="#m5643fb4911" y="137.116041"/>
     <use style="fill:#ff0000;stroke:#ff0000;" x="460.591659" xlink:href="#m5643fb4911" y="87.562634"/>
     <use style="fill:#ff0000;stroke:#ff0000;" x="462.474321" xlink:href="#m5643fb4911" y="123.351206"/>
     <use style="fill:#ff0000;stroke:#ff0000;" x="469.063636" xlink:href="#m5643fb4911" y="104.080437"/>
     <use style="fill:#ff0000;stroke:#ff0000;" x="475.652952" xlink:href="#m5643fb4911" y="112.339338"/>
     <use style="fill:#ff0000;stroke:#ff0000;" x="494.479569" xlink:href="#m5643fb4911" y="112.339338"/>
     <use style="fill:#ff0000;stroke:#ff0000;" x="507.658201" xlink:href="#m5643fb4911" y="109.586371"/>
     <use style="fill:#ff0000;stroke:#ff0000;" x="550.018088" xlink:href="#m5643fb4911" y="87.562634"/>
     <use style="fill:#ff0000;stroke:#ff0000;" x="560.372727" xlink:href="#m5643fb4911" y="79.303733"/>
    </g>
   </g>
   <g id="line2d_12">
    <path clip-path="url(#p4402da3b68)" d="M 103.827273 294.75621 
L 132.067198 279.975413 
L 134.89119 278.497333 
L 147.128491 272.092322 
L 169.720431 260.267684 
L 190.429709 249.428434 
L 196.077694 246.472274 
L 206.432334 241.052649 
L 212.080319 238.09649 
L 219.610965 234.154944 
L 229.965604 228.735319 
L 235.61359 225.779159 
L 238.437582 224.30108 
L 252.557545 216.910681 
L 256.322868 214.939909 
L 256.322868 214.939909 
L 256.322868 214.939909 
L 256.322868 214.939909 
L 261.029522 212.476443 
L 261.970853 211.983749 
L 262.912184 211.491056 
L 264.794845 210.50567 
L 268.560169 208.534897 
L 271.384161 207.056817 
L 272.325492 206.564124 
L 276.090815 204.593351 
L 285.504124 199.666419 
L 287.386785 198.681032 
L 289.269447 197.695646 
L 292.09344 196.217566 
L 292.09344 196.217566 
L 293.03477 195.724873 
L 293.976101 195.23218 
L 293.976101 195.23218 
L 293.976101 195.23218 
L 293.976101 195.23218 
L 298.682755 192.768714 
L 299.624086 192.276021 
L 303.38941 190.305248 
L 304.33074 189.812555 
L 305.272071 189.319861 
L 305.272071 189.319861 
L 306.213402 188.827168 
L 307.154733 188.334475 
L 309.978725 186.856395 
L 313.744049 184.885622 
L 314.68538 184.392929 
L 314.68538 184.392929 
L 322.216026 180.451384 
L 324.098688 179.465997 
L 325.98135 178.480611 
L 325.98135 178.480611 
L 334.453327 174.046372 
L 337.27732 172.568292 
L 337.27732 172.568292 
L 360.81059 160.250962 
L 360.81059 160.250962 
L 360.81059 160.250962 
L 363.634583 158.772882 
L 363.634583 158.772882 
L 364.575914 158.280189 
L 369.282568 155.816723 
L 373.989222 153.353257 
L 375.871884 152.36787 
L 375.871884 152.36787 
L 376.813215 151.875177 
L 377.754545 151.382484 
L 377.754545 151.382484 
L 380.578538 149.904404 
L 389.050515 145.470165 
L 399.405155 140.05054 
L 402.229147 138.57246 
L 402.229147 138.57246 
L 405.05314 137.094381 
L 407.877132 135.616301 
L 409.759794 134.630914 
L 411.642455 133.645528 
L 411.642455 133.645528 
L 414.466448 132.167448 
L 417.29044 130.689369 
L 417.29044 130.689369 
L 421.997095 128.225903 
L 421.997095 128.225903 
L 425.762418 126.25513 
L 436.117057 120.835504 
L 442.706373 117.386652 
L 442.706373 117.386652 
L 442.706373 117.386652 
L 442.706373 117.386652 
L 449.295689 113.937799 
L 456.826336 109.996254 
L 456.826336 109.996254 
L 460.591659 108.025481 
L 462.474321 107.040094 
L 469.063636 103.591242 
L 475.652952 100.142389 
L 494.479569 90.288525 
L 507.658201 83.39082 
L 550.018088 61.219625 
L 560.372727 55.8 
" style="fill:none;stroke:#008000;stroke-linecap:square;stroke-width:1.5;"/>
   </g>
   <g id="line2d_13">
    <path clip-path="url(#p4402da3b68)" d="M 103.827273 278.205496 
L 132.067198 265.212664 
L 134.89119 263.913381 
L 147.128491 258.283154 
L 169.720431 247.888888 
L 190.429709 238.360811 
L 196.077694 235.762245 
L 206.432334 230.998206 
L 212.080319 228.39964 
L 219.610965 224.934884 
L 229.965604 220.170846 
L 235.61359 217.57228 
L 238.437582 216.272996 
L 252.557545 209.77658 
L 256.322868 208.044203 
L 256.322868 208.044203 
L 256.322868 208.044203 
L 256.322868 208.044203 
L 261.029522 205.878731 
L 261.970853 205.445636 
L 262.912184 205.012542 
L 264.794845 204.146353 
L 268.560169 202.413976 
L 271.384161 201.114692 
L 272.325492 200.681598 
L 276.090815 198.94922 
L 285.504124 194.618276 
L 287.386785 193.752087 
L 289.269447 192.885899 
L 292.09344 191.586615 
L 292.09344 191.586615 
L 293.03477 191.153521 
L 293.976101 190.720427 
L 293.976101 190.720427 
L 293.976101 190.720427 
L 293.976101 190.720427 
L 298.682755 188.554955 
L 299.624086 188.12186 
L 303.38941 186.389483 
L 304.33074 185.956388 
L 305.272071 185.523294 
L 305.272071 185.523294 
L 306.213402 185.090199 
L 307.154733 184.657105 
L 309.978725 183.357822 
L 313.744049 181.625444 
L 314.68538 181.19235 
L 314.68538 181.19235 
L 322.216026 177.727595 
L 324.098688 176.861406 
L 325.98135 175.995217 
L 325.98135 175.995217 
L 334.453327 172.097367 
L 337.27732 170.798084 
L 337.27732 170.798084 
L 360.81059 159.970724 
L 360.81059 159.970724 
L 360.81059 159.970724 
L 363.634583 158.671441 
L 363.634583 158.671441 
L 364.575914 158.238346 
L 369.282568 156.072874 
L 373.989222 153.907402 
L 375.871884 153.041214 
L 375.871884 153.041214 
L 376.813215 152.608119 
L 377.754545 152.175025 
L 377.754545 152.175025 
L 380.578538 150.875742 
L 389.050515 146.977892 
L 399.405155 142.213853 
L 402.229147 140.91457 
L 402.229147 140.91457 
L 405.05314 139.615287 
L 407.877132 138.316004 
L 409.759794 137.449815 
L 411.642455 136.583626 
L 411.642455 136.583626 
L 414.466448 135.284343 
L 417.29044 133.98506 
L 417.29044 133.98506 
L 421.997095 131.819588 
L 421.997095 131.819588 
L 425.762418 130.08721 
L 436.117057 125.323172 
L 442.706373 122.291511 
L 442.706373 122.291511 
L 442.706373 122.291511 
L 442.706373 122.291511 
L 449.295689 119.25985 
L 456.826336 115.795095 
L 456.826336 115.795095 
L 460.591659 114.062717 
L 462.474321 113.196528 
L 469.063636 110.164868 
L 475.652952 107.133207 
L 494.479569 98.471319 
L 507.658201 92.407997 
L 550.018088 72.918749 
L 560.372727 68.15471 
" style="fill:none;stroke:#ffa500;stroke-linecap:square;stroke-width:1.5;"/>
   </g>
   <g id="line2d_14">
    <path clip-path="url(#p4402da3b68)" d="M 103.827273 230.58745 
L 132.067198 231.566478 
L 134.89119 231.559693 
L 147.128491 231.294952 
L 169.720431 229.757068 
L 190.429709 227.098057 
L 196.077694 226.161022 
L 206.432334 224.206436 
L 212.080319 223.011571 
L 219.610965 221.278063 
L 229.965604 218.635584 
L 235.61359 217.06982 
L 238.437582 216.254507 
L 252.557545 211.860937 
L 256.322868 210.602231 
L 256.322868 210.602231 
L 256.322868 210.602231 
L 256.322868 210.602231 
L 261.029522 208.97882 
L 261.970853 208.64756 
L 262.912184 208.314131 
L 264.794845 207.640802 
L 268.560169 206.268546 
L 271.384161 205.217282 
L 272.325492 204.862714 
L 276.090815 203.423997 
L 285.504124 199.688096 
L 287.386785 198.917826 
L 289.269447 198.140087 
L 292.09344 196.959696 
L 292.09344 196.959696 
L 293.03477 196.562608 
L 293.976101 196.163729 
L 293.976101 196.163729 
L 293.976101 196.163729 
L 293.976101 196.163729 
L 298.682755 194.142933 
L 299.624086 193.733585 
L 303.38941 192.079351 
L 304.33074 191.661649 
L 305.272071 191.242317 
L 305.272071 191.242317 
L 306.213402 190.821369 
L 307.154733 190.398819 
L 309.978725 189.121695 
L 313.744049 187.397285 
L 314.68538 186.962424 
L 314.68538 186.962424 
L 322.216026 183.431653 
L 324.098688 182.535083 
L 325.98135 181.633197 
L 325.98135 181.633197 
L 334.453327 177.512094 
L 337.27732 176.116878 
L 337.27732 176.116878 
L 360.81059 164.136522 
L 360.81059 164.136522 
L 360.81059 164.136522 
L 363.634583 162.662959 
L 363.634583 162.662959 
L 364.575914 162.170349 
L 369.282568 159.697284 
L 373.989222 157.208865 
L 375.871884 156.209601 
L 375.871884 156.209601 
L 376.813215 155.709191 
L 377.754545 155.208281 
L 377.754545 155.208281 
L 380.578538 153.702693 
L 389.050515 149.163444 
L 399.405155 143.581013 
L 402.229147 142.054044 
L 402.229147 142.054044 
L 405.05314 140.525788 
L 407.877132 138.996569 
L 409.759794 137.976713 
L 411.642455 136.956663 
L 411.642455 136.956663 
L 414.466448 135.426421 
L 417.29044 133.896246 
L 417.29044 133.896246 
L 421.997095 131.346887 
L 421.997095 131.346887 
L 425.762418 129.308981 
L 436.117057 123.717303 
L 442.706373 120.172649 
L 442.706373 120.172649 
L 442.706373 120.172649 
L 442.706373 120.172649 
L 449.295689 116.641889 
L 456.826336 112.626773 
L 456.826336 112.626773 
L 460.591659 110.628142 
L 462.474321 109.631206 
L 469.063636 106.155034 
L 475.652952 102.700242 
L 494.479569 92.95476 
L 507.658201 86.245611 
L 550.018088 65.22079 
L 560.372727 60.16547 
" style="fill:none;stroke:#800080;stroke-linecap:square;stroke-width:1.5;"/>
   </g>
   <g id="patch_3">
    <path d="M 81 320.4 
L 81 43.2 
" style="fill:none;stroke:#000000;stroke-linecap:square;stroke-linejoin:miter;stroke-width:0.8;"/>
   </g>
   <g id="patch_4">
    <path d="M 583.2 320.4 
L 583.2 43.2 
" style="fill:none;stroke:#000000;stroke-linecap:square;stroke-linejoin:miter;stroke-width:0.8;"/>
   </g>
   <g id="patch_5">
    <path d="M 81 320.4 
L 583.2 320.4 
" style="fill:none;stroke:#000000;stroke-linecap:square;stroke-linejoin:miter;stroke-width:0.8;"/>
   </g>
   <g id="patch_6">
    <path d="M 81 43.2 
L 583.2 43.2 
" style="fill:none;stroke:#000000;stroke-linecap:square;stroke-linejoin:miter;stroke-width:0.8;"/>
   </g>
   <g id="legend_1">
    <g id="patch_7">
     <path d="M 88 110.190625 
L 230.684375 110.190625 
Q 232.684375 110.190625 232.684375 108.190625 
L 232.684375 50.2 
Q 232.684375 48.2 230.684375 48.2 
L 88 48.2 
Q 86 48.2 86 50.2 
L 86 108.190625 
Q 86 110.190625 88 110.190625 
z
" style="fill:#ffffff;opacity:0.8;stroke:#cccccc;stroke-linejoin:miter;"/>
    </g>
    <g id="line2d_15"/>
    <g id="line2d_16">
     <g>
      <use style="fill:#ff0000;stroke:#ff0000;" x="100" xlink:href="#m5643fb4911" y="56.298437"/>
     </g>
    </g>
    <g id="text_11">
     <!-- data_1 -->
     <g transform="translate(118 59.798437)scale(0.1 -0.1)">
      <defs>
       <path d="M 45.40625 46.390625 
L 45.40625 75.984375 
L 54.390625 75.984375 
L 54.390625 0 
L 45.40625 0 
L 45.40625 8.203125 
Q 42.578125 3.328125 38.25 0.953125 
Q 33.9375 -1.421875 27.875 -1.421875 
Q 17.96875 -1.421875 11.734375 6.484375 
Q 5.515625 14.40625 5.515625 27.296875 
Q 5.515625 40.1875 11.734375 48.09375 
Q 17.96875 56 27.875 56 
Q 33.9375 56 38.25 53.625 
Q 42.578125 51.265625 45.40625 46.390625 
z
M 14.796875 27.296875 
Q 14.796875 17.390625 18.875 11.75 
Q 22.953125 6.109375 30.078125 6.109375 
Q 37.203125 6.109375 41.296875 11.75 
Q 45.40625 17.390625 45.40625 27.296875 
Q 45.40625 37.203125 41.296875 42.84375 
Q 37.203125 48.484375 30.078125 48.484375 
Q 22.953125 48.484375 18.875 42.84375 
Q 14.796875 37.203125 14.796875 27.296875 
z
" id="DejaVuSans-100"/>
       <path d="M 34.28125 27.484375 
Q 23.390625 27.484375 19.1875 25 
Q 14.984375 22.515625 14.984375 16.5 
Q 14.984375 11.71875 18.140625 8.90625 
Q 21.296875 6.109375 26.703125 6.109375 
Q 34.1875 6.109375 38.703125 11.40625 
Q 43.21875 16.703125 43.21875 25.484375 
L 43.21875 27.484375 
z
M 52.203125 31.203125 
L 52.203125 0 
L 43.21875 0 
L 43.21875 8.296875 
Q 40.140625 3.328125 35.546875 0.953125 
Q 30.953125 -1.421875 24.3125 -1.421875 
Q 15.921875 -1.421875 10.953125 3.296875 
Q 6 8.015625 6 15.921875 
Q 6 25.140625 12.171875 29.828125 
Q 18.359375 34.515625 30.609375 34.515625 
L 43.21875 34.515625 
L 43.21875 35.40625 
Q 43.21875 41.609375 39.140625 45 
Q 35.0625 48.390625 27.6875 48.390625 
Q 23 48.390625 18.546875 47.265625 
Q 14.109375 46.140625 10.015625 43.890625 
L 10.015625 52.203125 
Q 14.9375 54.109375 19.578125 55.046875 
Q 24.21875 56 28.609375 56 
Q 40.484375 56 46.34375 49.84375 
Q 52.203125 43.703125 52.203125 31.203125 
z
" id="DejaVuSans-97"/>
       <path d="M 18.3125 70.21875 
L 18.3125 54.6875 
L 36.8125 54.6875 
L 36.8125 47.703125 
L 18.3125 47.703125 
L 18.3125 18.015625 
Q 18.3125 11.328125 20.140625 9.421875 
Q 21.96875 7.515625 27.59375 7.515625 
L 36.8125 7.515625 
L 36.8125 0 
L 27.59375 0 
Q 17.1875 0 13.234375 3.875 
Q 9.28125 7.765625 9.28125 18.015625 
L 9.28125 47.703125 
L 2.6875 47.703125 
L 2.6875 54.6875 
L 9.28125 54.6875 
L 9.28125 70.21875 
z
" id="DejaVuSans-116"/>
       <path d="M 50.984375 -16.609375 
L 50.984375 -23.578125 
L -0.984375 -23.578125 
L -0.984375 -16.609375 
z
" id="DejaVuSans-95"/>
      </defs>
      <use xlink:href="#DejaVuSans-100"/>
      <use x="63.476562" xlink:href="#DejaVuSans-97"/>
      <use x="124.755859" xlink:href="#DejaVuSans-116"/>
      <use x="163.964844" xlink:href="#DejaVuSans-97"/>
      <use x="225.244141" xlink:href="#DejaVuSans-95"/>
      <use x="275.244141" xlink:href="#DejaVuSans-49"/>
     </g>
    </g>
    <g id="line2d_17">
     <path d="M 90 71.254687 
L 110 71.254687 
" style="fill:none;stroke:#008000;stroke-linecap:square;stroke-width:1.5;"/>
    </g>
    <g id="line2d_18"/>
    <g id="text_12">
     <!-- f(x)=ax -->
     <g transform="translate(118 74.754687)scale(0.1 -0.1)">
      <defs>
       <path d="M 37.109375 75.984375 
L 37.109375 68.5 
L 28.515625 68.5 
Q 23.6875 68.5 21.796875 66.546875 
Q 19.921875 64.59375 19.921875 59.515625 
L 19.921875 54.6875 
L 34.71875 54.6875 
L 34.71875 47.703125 
L 19.921875 47.703125 
L 19.921875 0 
L 10.890625 0 
L 10.890625 47.703125 
L 2.296875 47.703125 
L 2.296875 54.6875 
L 10.890625 54.6875 
L 10.890625 58.5 
Q 10.890625 67.625 15.140625 71.796875 
Q 19.390625 75.984375 28.609375 75.984375 
z
" id="DejaVuSans-102"/>
       <path d="M 31 75.875 
Q 24.46875 64.65625 21.28125 53.65625 
Q 18.109375 42.671875 18.109375 31.390625 
Q 18.109375 20.125 21.3125 9.0625 
Q 24.515625 -2 31 -13.1875 
L 23.1875 -13.1875 
Q 15.875 -1.703125 12.234375 9.375 
Q 8.59375 20.453125 8.59375 31.390625 
Q 8.59375 42.28125 12.203125 53.3125 
Q 15.828125 64.359375 23.1875 75.875 
z
" id="DejaVuSans-40"/>
       <path d="M 54.890625 54.6875 
L 35.109375 28.078125 
L 55.90625 0 
L 45.3125 0 
L 29.390625 21.484375 
L 13.484375 0 
L 2.875 0 
L 24.125 28.609375 
L 4.6875 54.6875 
L 15.28125 54.6875 
L 29.78125 35.203125 
L 44.28125 54.6875 
z
" id="DejaVuSans-120"/>
       <path d="M 8.015625 75.875 
L 15.828125 75.875 
Q 23.140625 64.359375 26.78125 53.3125 
Q 30.421875 42.28125 30.421875 31.390625 
Q 30.421875 20.453125 26.78125 9.375 
Q 23.140625 -1.703125 15.828125 -13.1875 
L 8.015625 -13.1875 
Q 14.5 -2 17.703125 9.0625 
Q 20.90625 20.125 20.90625 31.390625 
Q 20.90625 42.671875 17.703125 53.65625 
Q 14.5 64.65625 8.015625 75.875 
z
" id="DejaVuSans-41"/>
       <path d="M 10.59375 45.40625 
L 73.1875 45.40625 
L 73.1875 37.203125 
L 10.59375 37.203125 
z
M 10.59375 25.484375 
L 73.1875 25.484375 
L 73.1875 17.1875 
L 10.59375 17.1875 
z
" id="DejaVuSans-61"/>
      </defs>
      <use xlink:href="#DejaVuSans-102"/>
      <use x="35.205078" xlink:href="#DejaVuSans-40"/>
      <use x="74.21875" xlink:href="#DejaVuSans-120"/>
      <use x="133.398438" xlink:href="#DejaVuSans-41"/>
      <use x="172.412109" xlink:href="#DejaVuSans-61"/>
      <use x="256.201172" xlink:href="#DejaVuSans-97"/>
      <use x="317.480469" xlink:href="#DejaVuSans-120"/>
     </g>
    </g>
    <g id="line2d_19">
     <path d="M 90 85.932812 
L 110 85.932812 
" style="fill:none;stroke:#ffa500;stroke-linecap:square;stroke-width:1.5;"/>
    </g>
    <g id="line2d_20"/>
    <g id="text_13">
     <!-- f(x)=ax+b -->
     <g transform="translate(118 89.432812)scale(0.1 -0.1)">
      <defs>
       <path d="M 46 62.703125 
L 46 35.5 
L 73.1875 35.5 
L 73.1875 27.203125 
L 46 27.203125 
L 46 0 
L 37.796875 0 
L 37.796875 27.203125 
L 10.59375 27.203125 
L 10.59375 35.5 
L 37.796875 35.5 
L 37.796875 62.703125 
z
" id="DejaVuSans-43"/>
       <path d="M 48.6875 27.296875 
Q 48.6875 37.203125 44.609375 42.84375 
Q 40.53125 48.484375 33.40625 48.484375 
Q 26.265625 48.484375 22.1875 42.84375 
Q 18.109375 37.203125 18.109375 27.296875 
Q 18.109375 17.390625 22.1875 11.75 
Q 26.265625 6.109375 33.40625 6.109375 
Q 40.53125 6.109375 44.609375 11.75 
Q 48.6875 17.390625 48.6875 27.296875 
z
M 18.109375 46.390625 
Q 20.953125 51.265625 25.265625 53.625 
Q 29.59375 56 35.59375 56 
Q 45.5625 56 51.78125 48.09375 
Q 58.015625 40.1875 58.015625 27.296875 
Q 58.015625 14.40625 51.78125 6.484375 
Q 45.5625 -1.421875 35.59375 -1.421875 
Q 29.59375 -1.421875 25.265625 0.953125 
Q 20.953125 3.328125 18.109375 8.203125 
L 18.109375 0 
L 9.078125 0 
L 9.078125 75.984375 
L 18.109375 75.984375 
z
" id="DejaVuSans-98"/>
      </defs>
      <use xlink:href="#DejaVuSans-102"/>
      <use x="35.205078" xlink:href="#DejaVuSans-40"/>
      <use x="74.21875" xlink:href="#DejaVuSans-120"/>
      <use x="133.398438" xlink:href="#DejaVuSans-41"/>
      <use x="172.412109" xlink:href="#DejaVuSans-61"/>
      <use x="256.201172" xlink:href="#DejaVuSans-97"/>
      <use x="317.480469" xlink:href="#DejaVuSans-120"/>
      <use x="376.660156" xlink:href="#DejaVuSans-43"/>
      <use x="460.449219" xlink:href="#DejaVuSans-98"/>
     </g>
    </g>
    <g id="line2d_21">
     <path d="M 90 100.610937 
L 110 100.610937 
" style="fill:none;stroke:#800080;stroke-linecap:square;stroke-width:1.5;"/>
    </g>
    <g id="line2d_22"/>
    <g id="text_14">
     <!-- f(x)=ax**2+bsin(x)+c -->
     <g transform="translate(118 104.110937)scale(0.1 -0.1)">
      <defs>
       <path d="M 47.015625 60.890625 
L 29.5 51.421875 
L 47.015625 41.890625 
L 44.1875 37.109375 
L 27.78125 47.015625 
L 27.78125 28.609375 
L 22.21875 28.609375 
L 22.21875 47.015625 
L 5.8125 37.109375 
L 2.984375 41.890625 
L 20.515625 51.421875 
L 2.984375 60.890625 
L 5.8125 65.71875 
L 22.21875 55.8125 
L 22.21875 74.21875 
L 27.78125 74.21875 
L 27.78125 55.8125 
L 44.1875 65.71875 
z
" id="DejaVuSans-42"/>
       <path d="M 44.28125 53.078125 
L 44.28125 44.578125 
Q 40.484375 46.53125 36.375 47.5 
Q 32.28125 48.484375 27.875 48.484375 
Q 21.1875 48.484375 17.84375 46.4375 
Q 14.5 44.390625 14.5 40.28125 
Q 14.5 37.15625 16.890625 35.375 
Q 19.28125 33.59375 26.515625 31.984375 
L 29.59375 31.296875 
Q 39.15625 29.25 43.1875 25.515625 
Q 47.21875 21.78125 47.21875 15.09375 
Q 47.21875 7.46875 41.1875 3.015625 
Q 35.15625 -1.421875 24.609375 -1.421875 
Q 20.21875 -1.421875 15.453125 -0.5625 
Q 10.6875 0.296875 5.421875 2 
L 5.421875 11.28125 
Q 10.40625 8.6875 15.234375 7.390625 
Q 20.0625 6.109375 24.8125 6.109375 
Q 31.15625 6.109375 34.5625 8.28125 
Q 37.984375 10.453125 37.984375 14.40625 
Q 37.984375 18.0625 35.515625 20.015625 
Q 33.0625 21.96875 24.703125 23.78125 
L 21.578125 24.515625 
Q 13.234375 26.265625 9.515625 29.90625 
Q 5.8125 33.546875 5.8125 39.890625 
Q 5.8125 47.609375 11.28125 51.796875 
Q 16.75 56 26.8125 56 
Q 31.78125 56 36.171875 55.265625 
Q 40.578125 54.546875 44.28125 53.078125 
z
" id="DejaVuSans-115"/>
       <path d="M 9.421875 54.6875 
L 18.40625 54.6875 
L 18.40625 0 
L 9.421875 0 
z
M 9.421875 75.984375 
L 18.40625 75.984375 
L 18.40625 64.59375 
L 9.421875 64.59375 
z
" id="DejaVuSans-105"/>
       <path d="M 54.890625 33.015625 
L 54.890625 0 
L 45.90625 0 
L 45.90625 32.71875 
Q 45.90625 40.484375 42.875 44.328125 
Q 39.84375 48.1875 33.796875 48.1875 
Q 26.515625 48.1875 22.3125 43.546875 
Q 18.109375 38.921875 18.109375 30.90625 
L 18.109375 0 
L 9.078125 0 
L 9.078125 54.6875 
L 18.109375 54.6875 
L 18.109375 46.1875 
Q 21.34375 51.125 25.703125 53.5625 
Q 30.078125 56 35.796875 56 
Q 45.21875 56 50.046875 50.171875 
Q 54.890625 44.34375 54.890625 33.015625 
z
" id="DejaVuSans-110"/>
       <path d="M 48.78125 52.59375 
L 48.78125 44.1875 
Q 44.96875 46.296875 41.140625 47.34375 
Q 37.3125 48.390625 33.40625 48.390625 
Q 24.65625 48.390625 19.8125 42.84375 
Q 14.984375 37.3125 14.984375 27.296875 
Q 14.984375 17.28125 19.8125 11.734375 
Q 24.65625 6.203125 33.40625 6.203125 
Q 37.3125 6.203125 41.140625 7.25 
Q 44.96875 8.296875 48.78125 10.40625 
L 48.78125 2.09375 
Q 45.015625 0.34375 40.984375 -0.53125 
Q 36.96875 -1.421875 32.421875 -1.421875 
Q 20.0625 -1.421875 12.78125 6.34375 
Q 5.515625 14.109375 5.515625 27.296875 
Q 5.515625 40.671875 12.859375 48.328125 
Q 20.21875 56 33.015625 56 
Q 37.15625 56 41.109375 55.140625 
Q 45.0625 54.296875 48.78125 52.59375 
z
" id="DejaVuSans-99"/>
      </defs>
      <use xlink:href="#DejaVuSans-102"/>
      <use x="35.205078" xlink:href="#DejaVuSans-40"/>
      <use x="74.21875" xlink:href="#DejaVuSans-120"/>
      <use x="133.398438" xlink:href="#DejaVuSans-41"/>
      <use x="172.412109" xlink:href="#DejaVuSans-61"/>
      <use x="256.201172" xlink:href="#DejaVuSans-97"/>
      <use x="317.480469" xlink:href="#DejaVuSans-120"/>
      <use x="376.660156" xlink:href="#DejaVuSans-42"/>
      <use x="426.660156" xlink:href="#DejaVuSans-42"/>
      <use x="476.660156" xlink:href="#DejaVuSans-50"/>
      <use x="540.283203" xlink:href="#DejaVuSans-43"/>
      <use x="624.072266" xlink:href="#DejaVuSans-98"/>
      <use x="687.548828" xlink:href="#DejaVuSans-115"/>
      <use x="739.648438" xlink:href="#DejaVuSans-105"/>
      <use x="767.431641" xlink:href="#DejaVuSans-110"/>
      <use x="830.810547" xlink:href="#DejaVuSans-40"/>
      <use x="869.824219" xlink:href="#DejaVuSans-120"/>
      <use x="929.003906" xlink:href="#DejaVuSans-41"/>
      <use x="968.017578" xlink:href="#DejaVuSans-43"/>
      <use x="1051.806641" xlink:href="#DejaVuSans-99"/>
     </g>
    </g>
   </g>
  </g>
  <g id="text_15">
   <!-- data_1 -->
   <g transform="translate(286.72375 31.116563)scale(0.22 -0.22)">
    <use xlink:href="#DejaVuSans-100"/>
    <use x="63.476562" xlink:href="#DejaVuSans-97"/>
    <use x="124.755859" xlink:href="#DejaVuSans-116"/>
    <use x="163.964844" xlink:href="#DejaVuSans-97"/>
    <use x="225.244141" xlink:href="#DejaVuSans-95"/>
    <use x="275.244141" xlink:href="#DejaVuSans-49"/>
   </g>
  </g>
 </g>
 <defs>
  <clipPath id="p4402da3b68">
   <rect height="277.2" width="502.2" x="81" y="43.2"/>
  </clipPath>
 </defs>
</svg>
