<?xml version="1.0" encoding="utf-8" standalone="no"?>
<!DOCTYPE svg PUBLIC "-//W3C//DTD SVG 1.1//EN"
  "http://www.w3.org/Graphics/SVG/1.1/DTD/svg11.dtd">
<!-- Created with matplotlib (https://matplotlib.org/) -->
<svg height="360pt" version="1.1" viewBox="0 0 648 360" width="648pt" xmlns="http://www.w3.org/2000/svg" xmlns:xlink="http://www.w3.org/1999/xlink">
 <metadata>
  <rdf:RDF xmlns:cc="http://creativecommons.org/ns#" xmlns:dc="http://purl.org/dc/elements/1.1/" xmlns:rdf="http://www.w3.org/1999/02/22-rdf-syntax-ns#">
   <cc:Work>
    <dc:type rdf:resource="http://purl.org/dc/dcmitype/StillImage"/>
    <dc:date>2021-01-19T11:51:31.781388</dc:date>
    <dc:format>image/svg+xml</dc:format>
    <dc:creator>
     <cc:Agent>
      <dc:title>Matplotlib v3.3.3, https://matplotlib.org/</dc:title>
     </cc:Agent>
    </dc:creator>
   </cc:Work>
  </rdf:RDF>
 </metadata>
 <defs>
  <style type="text/css">*{stroke-linecap:butt;stroke-linejoin:round;}</style>
 </defs>
 <g id="figure_1">
  <g id="patch_1">
   <path d="M 0 360 
L 648 360 
L 648 0 
L 0 0 
z
" style="fill:#ffffff;"/>
  </g>
  <g id="axes_1">
   <g id="patch_2">
    <path d="M 81 320.4 
L 228.705882 320.4 
L 228.705882 43.2 
L 81 43.2 
z
" style="fill:#ffffff;"/>
   </g>
   <g id="patch_3">
    <path clip-path="url(#pa1249129d5)" d="M 87.713904 320.4 
L 94.427807 320.4 
L 94.427807 304.870588 
L 87.713904 304.870588 
z
" style="fill:#008000;"/>
   </g>
   <g id="patch_4">
    <path clip-path="url(#pa1249129d5)" d="M 94.427807 320.4 
L 101.141711 320.4 
L 101.141711 304.870588 
L 94.427807 304.870588 
z
" style="fill:#008000;"/>
   </g>
   <g id="patch_5">
    <path clip-path="url(#pa1249129d5)" d="M 101.141711 320.4 
L 107.855615 320.4 
L 107.855615 320.4 
L 101.141711 320.4 
z
" style="fill:#008000;"/>
   </g>
   <g id="patch_6">
    <path clip-path="url(#pa1249129d5)" d="M 107.855615 320.4 
L 114.569519 320.4 
L 114.569519 242.752941 
L 107.855615 242.752941 
z
" style="fill:#008000;"/>
   </g>
   <g id="patch_7">
    <path clip-path="url(#pa1249129d5)" d="M 114.569519 320.4 
L 121.283422 320.4 
L 121.283422 273.811765 
L 114.569519 273.811765 
z
" style="fill:#008000;"/>
   </g>
   <g id="patch_8">
    <path clip-path="url(#pa1249129d5)" d="M 121.283422 320.4 
L 127.997326 320.4 
L 127.997326 258.282353 
L 121.283422 258.282353 
z
" style="fill:#008000;"/>
   </g>
   <g id="patch_9">
    <path clip-path="url(#pa1249129d5)" d="M 127.997326 320.4 
L 134.71123 320.4 
L 134.71123 211.694118 
L 127.997326 211.694118 
z
" style="fill:#008000;"/>
   </g>
   <g id="patch_10">
    <path clip-path="url(#pa1249129d5)" d="M 134.71123 320.4 
L 141.425134 320.4 
L 141.425134 258.282353 
L 134.71123 258.282353 
z
" style="fill:#008000;"/>
   </g>
   <g id="patch_11">
    <path clip-path="url(#pa1249129d5)" d="M 141.425134 320.4 
L 148.139037 320.4 
L 148.139037 273.811765 
L 141.425134 273.811765 
z
" style="fill:#008000;"/>
   </g>
   <g id="patch_12">
    <path clip-path="url(#pa1249129d5)" d="M 148.139037 320.4 
L 154.852941 320.4 
L 154.852941 165.105882 
L 148.139037 165.105882 
z
" style="fill:#008000;"/>
   </g>
   <g id="patch_13">
    <path clip-path="url(#pa1249129d5)" d="M 154.852941 320.4 
L 161.566845 320.4 
L 161.566845 102.988235 
L 154.852941 102.988235 
z
" style="fill:#008000;"/>
   </g>
   <g id="patch_14">
    <path clip-path="url(#pa1249129d5)" d="M 161.566845 320.4 
L 168.280749 320.4 
L 168.280749 165.105882 
L 161.566845 165.105882 
z
" style="fill:#008000;"/>
   </g>
   <g id="patch_15">
    <path clip-path="url(#pa1249129d5)" d="M 168.280749 320.4 
L 174.994652 320.4 
L 174.994652 196.164706 
L 168.280749 196.164706 
z
" style="fill:#008000;"/>
   </g>
   <g id="patch_16">
    <path clip-path="url(#pa1249129d5)" d="M 174.994652 320.4 
L 181.708556 320.4 
L 181.708556 196.164706 
L 174.994652 196.164706 
z
" style="fill:#008000;"/>
   </g>
   <g id="patch_17">
    <path clip-path="url(#pa1249129d5)" d="M 181.708556 320.4 
L 188.42246 320.4 
L 188.42246 165.105882 
L 181.708556 165.105882 
z
" style="fill:#008000;"/>
   </g>
   <g id="patch_18">
    <path clip-path="url(#pa1249129d5)" d="M 188.42246 320.4 
L 195.136364 320.4 
L 195.136364 196.164706 
L 188.42246 196.164706 
z
" style="fill:#008000;"/>
   </g>
   <g id="patch_19">
    <path clip-path="url(#pa1249129d5)" d="M 195.136364 320.4 
L 201.850267 320.4 
L 201.850267 289.341176 
L 195.136364 289.341176 
z
" style="fill:#008000;"/>
   </g>
   <g id="patch_20">
    <path clip-path="url(#pa1249129d5)" d="M 201.850267 320.4 
L 208.564171 320.4 
L 208.564171 304.870588 
L 201.850267 304.870588 
z
" style="fill:#008000;"/>
   </g>
   <g id="patch_21">
    <path clip-path="url(#pa1249129d5)" d="M 208.564171 320.4 
L 215.278075 320.4 
L 215.278075 320.4 
L 208.564171 320.4 
z
" style="fill:#008000;"/>
   </g>
   <g id="patch_22">
    <path clip-path="url(#pa1249129d5)" d="M 215.278075 320.4 
L 221.991979 320.4 
L 221.991979 304.870588 
L 215.278075 304.870588 
z
" style="fill:#008000;"/>
   </g>
   <g id="matplotlib.axis_1">
    <g id="xtick_1">
     <g id="line2d_1">
      <defs>
       <path d="M 0 0 
L 0 3.5 
" id="md1435c655a" style="stroke:#000000;stroke-width:0.8;"/>
      </defs>
      <g>
       <use style="stroke:#000000;stroke-width:0.8;" x="108.598059" xlink:href="#md1435c655a" y="320.4"/>
      </g>
     </g>
     <g id="text_1">
      <!-- −0.1 -->
      <g transform="translate(96.456653 334.998438)scale(0.1 -0.1)">
       <defs>
        <path d="M 10.59375 35.5 
L 73.1875 35.5 
L 73.1875 27.203125 
L 10.59375 27.203125 
z
" id="DejaVuSans-8722"/>
        <path d="M 31.78125 66.40625 
Q 24.171875 66.40625 20.328125 58.90625 
Q 16.5 51.421875 16.5 36.375 
Q 16.5 21.390625 20.328125 13.890625 
Q 24.171875 6.390625 31.78125 6.390625 
Q 39.453125 6.390625 43.28125 13.890625 
Q 47.125 21.390625 47.125 36.375 
Q 47.125 51.421875 43.28125 58.90625 
Q 39.453125 66.40625 31.78125 66.40625 
z
M 31.78125 74.21875 
Q 44.046875 74.21875 50.515625 64.515625 
Q 56.984375 54.828125 56.984375 36.375 
Q 56.984375 17.96875 50.515625 8.265625 
Q 44.046875 -1.421875 31.78125 -1.421875 
Q 19.53125 -1.421875 13.0625 8.265625 
Q 6.59375 17.96875 6.59375 36.375 
Q 6.59375 54.828125 13.0625 64.515625 
Q 19.53125 74.21875 31.78125 74.21875 
z
" id="DejaVuSans-48"/>
        <path d="M 10.6875 12.40625 
L 21 12.40625 
L 21 0 
L 10.6875 0 
z
" id="DejaVuSans-46"/>
        <path d="M 12.40625 8.296875 
L 28.515625 8.296875 
L 28.515625 63.921875 
L 10.984375 60.40625 
L 10.984375 69.390625 
L 28.421875 72.90625 
L 38.28125 72.90625 
L 38.28125 8.296875 
L 54.390625 8.296875 
L 54.390625 0 
L 12.40625 0 
z
" id="DejaVuSans-49"/>
       </defs>
       <use xlink:href="#DejaVuSans-8722"/>
       <use x="83.789062" xlink:href="#DejaVuSans-48"/>
       <use x="147.412109" xlink:href="#DejaVuSans-46"/>
       <use x="179.199219" xlink:href="#DejaVuSans-49"/>
      </g>
     </g>
    </g>
    <g id="xtick_2">
     <g id="line2d_2">
      <g>
       <use style="stroke:#000000;stroke-width:0.8;" x="155.425011" xlink:href="#md1435c655a" y="320.4"/>
      </g>
     </g>
     <g id="text_2">
      <!-- 0.0 -->
      <g transform="translate(147.473449 334.998438)scale(0.1 -0.1)">
       <use xlink:href="#DejaVuSans-48"/>
       <use x="63.623047" xlink:href="#DejaVuSans-46"/>
       <use x="95.410156" xlink:href="#DejaVuSans-48"/>
      </g>
     </g>
    </g>
    <g id="xtick_3">
     <g id="line2d_3">
      <g>
       <use style="stroke:#000000;stroke-width:0.8;" x="202.251964" xlink:href="#md1435c655a" y="320.4"/>
      </g>
     </g>
     <g id="text_3">
      <!-- 0.1 -->
      <g transform="translate(194.300401 334.998438)scale(0.1 -0.1)">
       <use xlink:href="#DejaVuSans-48"/>
       <use x="63.623047" xlink:href="#DejaVuSans-46"/>
       <use x="95.410156" xlink:href="#DejaVuSans-49"/>
      </g>
     </g>
    </g>
   </g>
   <g id="matplotlib.axis_2">
    <g id="ytick_1">
     <g id="line2d_4">
      <defs>
       <path d="M 0 0 
L -3.5 0 
" id="m06f88877a9" style="stroke:#000000;stroke-width:0.8;"/>
      </defs>
      <g>
       <use style="stroke:#000000;stroke-width:0.8;" x="81" xlink:href="#m06f88877a9" y="320.4"/>
      </g>
     </g>
     <g id="text_4">
      <!-- 0 -->
      <g transform="translate(67.6375 324.199219)scale(0.1 -0.1)">
       <use xlink:href="#DejaVuSans-48"/>
      </g>
     </g>
    </g>
    <g id="ytick_2">
     <g id="line2d_5">
      <g>
       <use style="stroke:#000000;stroke-width:0.8;" x="81" xlink:href="#m06f88877a9" y="289.341176"/>
      </g>
     </g>
     <g id="text_5">
      <!-- 2 -->
      <g transform="translate(67.6375 293.140395)scale(0.1 -0.1)">
       <defs>
        <path d="M 19.1875 8.296875 
L 53.609375 8.296875 
L 53.609375 0 
L 7.328125 0 
L 7.328125 8.296875 
Q 12.9375 14.109375 22.625 23.890625 
Q 32.328125 33.6875 34.8125 36.53125 
Q 39.546875 41.84375 41.421875 45.53125 
Q 43.3125 49.21875 43.3125 52.78125 
Q 43.3125 58.59375 39.234375 62.25 
Q 35.15625 65.921875 28.609375 65.921875 
Q 23.96875 65.921875 18.8125 64.3125 
Q 13.671875 62.703125 7.8125 59.421875 
L 7.8125 69.390625 
Q 13.765625 71.78125 18.9375 73 
Q 24.125 74.21875 28.421875 74.21875 
Q 39.75 74.21875 46.484375 68.546875 
Q 53.21875 62.890625 53.21875 53.421875 
Q 53.21875 48.921875 51.53125 44.890625 
Q 49.859375 40.875 45.40625 35.40625 
Q 44.1875 33.984375 37.640625 27.21875 
Q 31.109375 20.453125 19.1875 8.296875 
z
" id="DejaVuSans-50"/>
       </defs>
       <use xlink:href="#DejaVuSans-50"/>
      </g>
     </g>
    </g>
    <g id="ytick_3">
     <g id="line2d_6">
      <g>
       <use style="stroke:#000000;stroke-width:0.8;" x="81" xlink:href="#m06f88877a9" y="258.282353"/>
      </g>
     </g>
     <g id="text_6">
      <!-- 4 -->
      <g transform="translate(67.6375 262.081572)scale(0.1 -0.1)">
       <defs>
        <path d="M 37.796875 64.3125 
L 12.890625 25.390625 
L 37.796875 25.390625 
z
M 35.203125 72.90625 
L 47.609375 72.90625 
L 47.609375 25.390625 
L 58.015625 25.390625 
L 58.015625 17.1875 
L 47.609375 17.1875 
L 47.609375 0 
L 37.796875 0 
L 37.796875 17.1875 
L 4.890625 17.1875 
L 4.890625 26.703125 
z
" id="DejaVuSans-52"/>
       </defs>
       <use xlink:href="#DejaVuSans-52"/>
      </g>
     </g>
    </g>
    <g id="ytick_4">
     <g id="line2d_7">
      <g>
       <use style="stroke:#000000;stroke-width:0.8;" x="81" xlink:href="#m06f88877a9" y="227.223529"/>
      </g>
     </g>
     <g id="text_7">
      <!-- 6 -->
      <g transform="translate(67.6375 231.022748)scale(0.1 -0.1)">
       <defs>
        <path d="M 33.015625 40.375 
Q 26.375 40.375 22.484375 35.828125 
Q 18.609375 31.296875 18.609375 23.390625 
Q 18.609375 15.53125 22.484375 10.953125 
Q 26.375 6.390625 33.015625 6.390625 
Q 39.65625 6.390625 43.53125 10.953125 
Q 47.40625 15.53125 47.40625 23.390625 
Q 47.40625 31.296875 43.53125 35.828125 
Q 39.65625 40.375 33.015625 40.375 
z
M 52.59375 71.296875 
L 52.59375 62.3125 
Q 48.875 64.0625 45.09375 64.984375 
Q 41.3125 65.921875 37.59375 65.921875 
Q 27.828125 65.921875 22.671875 59.328125 
Q 17.53125 52.734375 16.796875 39.40625 
Q 19.671875 43.65625 24.015625 45.921875 
Q 28.375 48.1875 33.59375 48.1875 
Q 44.578125 48.1875 50.953125 41.515625 
Q 57.328125 34.859375 57.328125 23.390625 
Q 57.328125 12.15625 50.6875 5.359375 
Q 44.046875 -1.421875 33.015625 -1.421875 
Q 20.359375 -1.421875 13.671875 8.265625 
Q 6.984375 17.96875 6.984375 36.375 
Q 6.984375 53.65625 15.1875 63.9375 
Q 23.390625 74.21875 37.203125 74.21875 
Q 40.921875 74.21875 44.703125 73.484375 
Q 48.484375 72.75 52.59375 71.296875 
z
" id="DejaVuSans-54"/>
       </defs>
       <use xlink:href="#DejaVuSans-54"/>
      </g>
     </g>
    </g>
    <g id="ytick_5">
     <g id="line2d_8">
      <g>
       <use style="stroke:#000000;stroke-width:0.8;" x="81" xlink:href="#m06f88877a9" y="196.164706"/>
      </g>
     </g>
     <g id="text_8">
      <!-- 8 -->
      <g transform="translate(67.6375 199.963925)scale(0.1 -0.1)">
       <defs>
        <path d="M 31.78125 34.625 
Q 24.75 34.625 20.71875 30.859375 
Q 16.703125 27.09375 16.703125 20.515625 
Q 16.703125 13.921875 20.71875 10.15625 
Q 24.75 6.390625 31.78125 6.390625 
Q 38.8125 6.390625 42.859375 10.171875 
Q 46.921875 13.96875 46.921875 20.515625 
Q 46.921875 27.09375 42.890625 30.859375 
Q 38.875 34.625 31.78125 34.625 
z
M 21.921875 38.8125 
Q 15.578125 40.375 12.03125 44.71875 
Q 8.5 49.078125 8.5 55.328125 
Q 8.5 64.0625 14.71875 69.140625 
Q 20.953125 74.21875 31.78125 74.21875 
Q 42.671875 74.21875 48.875 69.140625 
Q 55.078125 64.0625 55.078125 55.328125 
Q 55.078125 49.078125 51.53125 44.71875 
Q 48 40.375 41.703125 38.8125 
Q 48.828125 37.15625 52.796875 32.3125 
Q 56.78125 27.484375 56.78125 20.515625 
Q 56.78125 9.90625 50.3125 4.234375 
Q 43.84375 -1.421875 31.78125 -1.421875 
Q 19.734375 -1.421875 13.25 4.234375 
Q 6.78125 9.90625 6.78125 20.515625 
Q 6.78125 27.484375 10.78125 32.3125 
Q 14.796875 37.15625 21.921875 38.8125 
z
M 18.3125 54.390625 
Q 18.3125 48.734375 21.84375 45.5625 
Q 25.390625 42.390625 31.78125 42.390625 
Q 38.140625 42.390625 41.71875 45.5625 
Q 45.3125 48.734375 45.3125 54.390625 
Q 45.3125 60.0625 41.71875 63.234375 
Q 38.140625 66.40625 31.78125 66.40625 
Q 25.390625 66.40625 21.84375 63.234375 
Q 18.3125 60.0625 18.3125 54.390625 
z
" id="DejaVuSans-56"/>
       </defs>
       <use xlink:href="#DejaVuSans-56"/>
      </g>
     </g>
    </g>
    <g id="ytick_6">
     <g id="line2d_9">
      <g>
       <use style="stroke:#000000;stroke-width:0.8;" x="81" xlink:href="#m06f88877a9" y="165.105882"/>
      </g>
     </g>
     <g id="text_9">
      <!-- 10 -->
      <g transform="translate(61.275 168.905101)scale(0.1 -0.1)">
       <use xlink:href="#DejaVuSans-49"/>
       <use x="63.623047" xlink:href="#DejaVuSans-48"/>
      </g>
     </g>
    </g>
    <g id="ytick_7">
     <g id="line2d_10">
      <g>
       <use style="stroke:#000000;stroke-width:0.8;" x="81" xlink:href="#m06f88877a9" y="134.047059"/>
      </g>
     </g>
     <g id="text_10">
      <!-- 12 -->
      <g transform="translate(61.275 137.846278)scale(0.1 -0.1)">
       <use xlink:href="#DejaVuSans-49"/>
       <use x="63.623047" xlink:href="#DejaVuSans-50"/>
      </g>
     </g>
    </g>
    <g id="ytick_8">
     <g id="line2d_11">
      <g>
       <use style="stroke:#000000;stroke-width:0.8;" x="81" xlink:href="#m06f88877a9" y="102.988235"/>
      </g>
     </g>
     <g id="text_11">
      <!-- 14 -->
      <g transform="translate(61.275 106.787454)scale(0.1 -0.1)">
       <use xlink:href="#DejaVuSans-49"/>
       <use x="63.623047" xlink:href="#DejaVuSans-52"/>
      </g>
     </g>
    </g>
    <g id="ytick_9">
     <g id="line2d_12">
      <g>
       <use style="stroke:#000000;stroke-width:0.8;" x="81" xlink:href="#m06f88877a9" y="71.929412"/>
      </g>
     </g>
     <g id="text_12">
      <!-- 16 -->
      <g transform="translate(61.275 75.728631)scale(0.1 -0.1)">
       <use xlink:href="#DejaVuSans-49"/>
       <use x="63.623047" xlink:href="#DejaVuSans-54"/>
      </g>
     </g>
    </g>
   </g>
   <g id="patch_23">
    <path d="M 81 320.4 
L 81 43.2 
" style="fill:none;stroke:#000000;stroke-linecap:square;stroke-linejoin:miter;stroke-width:0.8;"/>
   </g>
   <g id="patch_24">
    <path d="M 228.705882 320.4 
L 228.705882 43.2 
" style="fill:none;stroke:#000000;stroke-linecap:square;stroke-linejoin:miter;stroke-width:0.8;"/>
   </g>
   <g id="patch_25">
    <path d="M 81 320.4 
L 228.705882 320.4 
" style="fill:none;stroke:#000000;stroke-linecap:square;stroke-linejoin:miter;stroke-width:0.8;"/>
   </g>
   <g id="patch_26">
    <path d="M 81 43.2 
L 228.705882 43.2 
" style="fill:none;stroke:#000000;stroke-linecap:square;stroke-linejoin:miter;stroke-width:0.8;"/>
   </g>
   <g id="text_13">
    <!-- f(x)=ax -->
    <g transform="translate(113.417316 37.2)scale(0.22 -0.22)">
     <defs>
      <path d="M 37.109375 75.984375 
L 37.109375 68.5 
L 28.515625 68.5 
Q 23.6875 68.5 21.796875 66.546875 
Q 19.921875 64.59375 19.921875 59.515625 
L 19.921875 54.6875 
L 34.71875 54.6875 
L 34.71875 47.703125 
L 19.921875 47.703125 
L 19.921875 0 
L 10.890625 0 
L 10.890625 47.703125 
L 2.296875 47.703125 
L 2.296875 54.6875 
L 10.890625 54.6875 
L 10.890625 58.5 
Q 10.890625 67.625 15.140625 71.796875 
Q 19.390625 75.984375 28.609375 75.984375 
z
" id="DejaVuSans-102"/>
      <path d="M 31 75.875 
Q 24.46875 64.65625 21.28125 53.65625 
Q 18.109375 42.671875 18.109375 31.390625 
Q 18.109375 20.125 21.3125 9.0625 
Q 24.515625 -2 31 -13.1875 
L 23.1875 -13.1875 
Q 15.875 -1.703125 12.234375 9.375 
Q 8.59375 20.453125 8.59375 31.390625 
Q 8.59375 42.28125 12.203125 53.3125 
Q 15.828125 64.359375 23.1875 75.875 
z
" id="DejaVuSans-40"/>
      <path d="M 54.890625 54.6875 
L 35.109375 28.078125 
L 55.90625 0 
L 45.3125 0 
L 29.390625 21.484375 
L 13.484375 0 
L 2.875 0 
L 24.125 28.609375 
L 4.6875 54.6875 
L 15.28125 54.6875 
L 29.78125 35.203125 
L 44.28125 54.6875 
z
" id="DejaVuSans-120"/>
      <path d="M 8.015625 75.875 
L 15.828125 75.875 
Q 23.140625 64.359375 26.78125 53.3125 
Q 30.421875 42.28125 30.421875 31.390625 
Q 30.421875 20.453125 26.78125 9.375 
Q 23.140625 -1.703125 15.828125 -13.1875 
L 8.015625 -13.1875 
Q 14.5 -2 17.703125 9.0625 
Q 20.90625 20.125 20.90625 31.390625 
Q 20.90625 42.671875 17.703125 53.65625 
Q 14.5 64.65625 8.015625 75.875 
z
" id="DejaVuSans-41"/>
      <path d="M 10.59375 45.40625 
L 73.1875 45.40625 
L 73.1875 37.203125 
L 10.59375 37.203125 
z
M 10.59375 25.484375 
L 73.1875 25.484375 
L 73.1875 17.1875 
L 10.59375 17.1875 
z
" id="DejaVuSans-61"/>
      <path d="M 34.28125 27.484375 
Q 23.390625 27.484375 19.1875 25 
Q 14.984375 22.515625 14.984375 16.5 
Q 14.984375 11.71875 18.140625 8.90625 
Q 21.296875 6.109375 26.703125 6.109375 
Q 34.1875 6.109375 38.703125 11.40625 
Q 43.21875 16.703125 43.21875 25.484375 
L 43.21875 27.484375 
z
M 52.203125 31.203125 
L 52.203125 0 
L 43.21875 0 
L 43.21875 8.296875 
Q 40.140625 3.328125 35.546875 0.953125 
Q 30.953125 -1.421875 24.3125 -1.421875 
Q 15.921875 -1.421875 10.953125 3.296875 
Q 6 8.015625 6 15.921875 
Q 6 25.140625 12.171875 29.828125 
Q 18.359375 34.515625 30.609375 34.515625 
L 43.21875 34.515625 
L 43.21875 35.40625 
Q 43.21875 41.609375 39.140625 45 
Q 35.0625 48.390625 27.6875 48.390625 
Q 23 48.390625 18.546875 47.265625 
Q 14.109375 46.140625 10.015625 43.890625 
L 10.015625 52.203125 
Q 14.9375 54.109375 19.578125 55.046875 
Q 24.21875 56 28.609375 56 
Q 40.484375 56 46.34375 49.84375 
Q 52.203125 43.703125 52.203125 31.203125 
z
" id="DejaVuSans-97"/>
     </defs>
     <use xlink:href="#DejaVuSans-102"/>
     <use x="35.205078" xlink:href="#DejaVuSans-40"/>
     <use x="74.21875" xlink:href="#DejaVuSans-120"/>
     <use x="133.398438" xlink:href="#DejaVuSans-41"/>
     <use x="172.412109" xlink:href="#DejaVuSans-61"/>
     <use x="256.201172" xlink:href="#DejaVuSans-97"/>
     <use x="317.480469" xlink:href="#DejaVuSans-120"/>
    </g>
   </g>
  </g>
  <g id="axes_2">
   <g id="patch_27">
    <path d="M 258.247059 320.4 
L 405.952941 320.4 
L 405.952941 43.2 
L 258.247059 43.2 
z
" style="fill:#ffffff;"/>
   </g>
   <g id="patch_28">
    <path clip-path="url(#p523258ffe9)" d="M 264.960963 320.4 
L 271.674866 320.4 
L 271.674866 304.870588 
L 264.960963 304.870588 
z
" style="fill:#ffa500;"/>
   </g>
   <g id="patch_29">
    <path clip-path="url(#p523258ffe9)" d="M 271.674866 320.4 
L 278.38877 320.4 
L 278.38877 304.870588 
L 271.674866 304.870588 
z
" style="fill:#ffa500;"/>
   </g>
   <g id="patch_30">
    <path clip-path="url(#p523258ffe9)" d="M 278.38877 320.4 
L 285.102674 320.4 
L 285.102674 320.4 
L 278.38877 320.4 
z
" style="fill:#ffa500;"/>
   </g>
   <g id="patch_31">
    <path clip-path="url(#p523258ffe9)" d="M 285.102674 320.4 
L 291.816578 320.4 
L 291.816578 304.870588 
L 285.102674 304.870588 
z
" style="fill:#ffa500;"/>
   </g>
   <g id="patch_32">
    <path clip-path="url(#p523258ffe9)" d="M 291.816578 320.4 
L 298.530481 320.4 
L 298.530481 304.870588 
L 291.816578 304.870588 
z
" style="fill:#ffa500;"/>
   </g>
   <g id="patch_33">
    <path clip-path="url(#p523258ffe9)" d="M 298.530481 320.4 
L 305.244385 320.4 
L 305.244385 289.341176 
L 298.530481 289.341176 
z
" style="fill:#ffa500;"/>
   </g>
   <g id="patch_34">
    <path clip-path="url(#p523258ffe9)" d="M 305.244385 320.4 
L 311.958289 320.4 
L 311.958289 242.752941 
L 305.244385 242.752941 
z
" style="fill:#ffa500;"/>
   </g>
   <g id="patch_35">
    <path clip-path="url(#p523258ffe9)" d="M 311.958289 320.4 
L 318.672193 320.4 
L 318.672193 258.282353 
L 311.958289 258.282353 
z
" style="fill:#ffa500;"/>
   </g>
   <g id="patch_36">
    <path clip-path="url(#p523258ffe9)" d="M 318.672193 320.4 
L 325.386096 320.4 
L 325.386096 134.047059 
L 318.672193 134.047059 
z
" style="fill:#ffa500;"/>
   </g>
   <g id="patch_37">
    <path clip-path="url(#p523258ffe9)" d="M 325.386096 320.4 
L 332.1 320.4 
L 332.1 165.105882 
L 325.386096 165.105882 
z
" style="fill:#ffa500;"/>
   </g>
   <g id="patch_38">
    <path clip-path="url(#p523258ffe9)" d="M 332.1 320.4 
L 338.813904 320.4 
L 338.813904 196.164706 
L 332.1 196.164706 
z
" style="fill:#ffa500;"/>
   </g>
   <g id="patch_39">
    <path clip-path="url(#p523258ffe9)" d="M 338.813904 320.4 
L 345.527807 320.4 
L 345.527807 165.105882 
L 338.813904 165.105882 
z
" style="fill:#ffa500;"/>
   </g>
   <g id="patch_40">
    <path clip-path="url(#p523258ffe9)" d="M 345.527807 320.4 
L 352.241711 320.4 
L 352.241711 56.4 
L 345.527807 56.4 
z
" style="fill:#ffa500;"/>
   </g>
   <g id="patch_41">
    <path clip-path="url(#p523258ffe9)" d="M 352.241711 320.4 
L 358.955615 320.4 
L 358.955615 211.694118 
L 352.241711 211.694118 
z
" style="fill:#ffa500;"/>
   </g>
   <g id="patch_42">
    <path clip-path="url(#p523258ffe9)" d="M 358.955615 320.4 
L 365.669519 320.4 
L 365.669519 180.635294 
L 358.955615 180.635294 
z
" style="fill:#ffa500;"/>
   </g>
   <g id="patch_43">
    <path clip-path="url(#p523258ffe9)" d="M 365.669519 320.4 
L 372.383422 320.4 
L 372.383422 242.752941 
L 365.669519 242.752941 
z
" style="fill:#ffa500;"/>
   </g>
   <g id="patch_44">
    <path clip-path="url(#p523258ffe9)" d="M 372.383422 320.4 
L 379.097326 320.4 
L 379.097326 273.811765 
L 372.383422 273.811765 
z
" style="fill:#ffa500;"/>
   </g>
   <g id="patch_45">
    <path clip-path="url(#p523258ffe9)" d="M 379.097326 320.4 
L 385.81123 320.4 
L 385.81123 289.341176 
L 379.097326 289.341176 
z
" style="fill:#ffa500;"/>
   </g>
   <g id="patch_46">
    <path clip-path="url(#p523258ffe9)" d="M 385.81123 320.4 
L 392.525134 320.4 
L 392.525134 304.870588 
L 385.81123 304.870588 
z
" style="fill:#ffa500;"/>
   </g>
   <g id="patch_47">
    <path clip-path="url(#p523258ffe9)" d="M 392.525134 320.4 
L 399.239037 320.4 
L 399.239037 304.870588 
L 392.525134 304.870588 
z
" style="fill:#ffa500;"/>
   </g>
   <g id="matplotlib.axis_3">
    <g id="xtick_4">
     <g id="line2d_13">
      <g>
       <use style="stroke:#000000;stroke-width:0.8;" x="293.663617" xlink:href="#md1435c655a" y="320.4"/>
      </g>
     </g>
     <g id="text_14">
      <!-- −0.1 -->
      <g transform="translate(281.522211 334.998438)scale(0.1 -0.1)">
       <use xlink:href="#DejaVuSans-8722"/>
       <use x="83.789062" xlink:href="#DejaVuSans-48"/>
       <use x="147.412109" xlink:href="#DejaVuSans-46"/>
       <use x="179.199219" xlink:href="#DejaVuSans-49"/>
      </g>
     </g>
    </g>
    <g id="xtick_5">
     <g id="line2d_14">
      <g>
       <use style="stroke:#000000;stroke-width:0.8;" x="340.203572" xlink:href="#md1435c655a" y="320.4"/>
      </g>
     </g>
     <g id="text_15">
      <!-- 0.0 -->
      <g transform="translate(332.25201 334.998438)scale(0.1 -0.1)">
       <use xlink:href="#DejaVuSans-48"/>
       <use x="63.623047" xlink:href="#DejaVuSans-46"/>
       <use x="95.410156" xlink:href="#DejaVuSans-48"/>
      </g>
     </g>
    </g>
    <g id="xtick_6">
     <g id="line2d_15">
      <g>
       <use style="stroke:#000000;stroke-width:0.8;" x="386.743527" xlink:href="#md1435c655a" y="320.4"/>
      </g>
     </g>
     <g id="text_16">
      <!-- 0.1 -->
      <g transform="translate(378.791965 334.998438)scale(0.1 -0.1)">
       <use xlink:href="#DejaVuSans-48"/>
       <use x="63.623047" xlink:href="#DejaVuSans-46"/>
       <use x="95.410156" xlink:href="#DejaVuSans-49"/>
      </g>
     </g>
    </g>
   </g>
   <g id="matplotlib.axis_4">
    <g id="ytick_10">
     <g id="line2d_16">
      <g>
       <use style="stroke:#000000;stroke-width:0.8;" x="258.247059" xlink:href="#m06f88877a9" y="320.4"/>
      </g>
     </g>
     <g id="text_17">
      <!-- 0 -->
      <g transform="translate(244.884559 324.199219)scale(0.1 -0.1)">
       <use xlink:href="#DejaVuSans-48"/>
      </g>
     </g>
    </g>
    <g id="ytick_11">
     <g id="line2d_17">
      <g>
       <use style="stroke:#000000;stroke-width:0.8;" x="258.247059" xlink:href="#m06f88877a9" y="289.341176"/>
      </g>
     </g>
     <g id="text_18">
      <!-- 2 -->
      <g transform="translate(244.884559 293.140395)scale(0.1 -0.1)">
       <use xlink:href="#DejaVuSans-50"/>
      </g>
     </g>
    </g>
    <g id="ytick_12">
     <g id="line2d_18">
      <g>
       <use style="stroke:#000000;stroke-width:0.8;" x="258.247059" xlink:href="#m06f88877a9" y="258.282353"/>
      </g>
     </g>
     <g id="text_19">
      <!-- 4 -->
      <g transform="translate(244.884559 262.081572)scale(0.1 -0.1)">
       <use xlink:href="#DejaVuSans-52"/>
      </g>
     </g>
    </g>
    <g id="ytick_13">
     <g id="line2d_19">
      <g>
       <use style="stroke:#000000;stroke-width:0.8;" x="258.247059" xlink:href="#m06f88877a9" y="227.223529"/>
      </g>
     </g>
     <g id="text_20">
      <!-- 6 -->
      <g transform="translate(244.884559 231.022748)scale(0.1 -0.1)">
       <use xlink:href="#DejaVuSans-54"/>
      </g>
     </g>
    </g>
    <g id="ytick_14">
     <g id="line2d_20">
      <g>
       <use style="stroke:#000000;stroke-width:0.8;" x="258.247059" xlink:href="#m06f88877a9" y="196.164706"/>
      </g>
     </g>
     <g id="text_21">
      <!-- 8 -->
      <g transform="translate(244.884559 199.963925)scale(0.1 -0.1)">
       <use xlink:href="#DejaVuSans-56"/>
      </g>
     </g>
    </g>
    <g id="ytick_15">
     <g id="line2d_21">
      <g>
       <use style="stroke:#000000;stroke-width:0.8;" x="258.247059" xlink:href="#m06f88877a9" y="165.105882"/>
      </g>
     </g>
     <g id="text_22">
      <!-- 10 -->
      <g transform="translate(238.522059 168.905101)scale(0.1 -0.1)">
       <use xlink:href="#DejaVuSans-49"/>
       <use x="63.623047" xlink:href="#DejaVuSans-48"/>
      </g>
     </g>
    </g>
    <g id="ytick_16">
     <g id="line2d_22">
      <g>
       <use style="stroke:#000000;stroke-width:0.8;" x="258.247059" xlink:href="#m06f88877a9" y="134.047059"/>
      </g>
     </g>
     <g id="text_23">
      <!-- 12 -->
      <g transform="translate(238.522059 137.846278)scale(0.1 -0.1)">
       <use xlink:href="#DejaVuSans-49"/>
       <use x="63.623047" xlink:href="#DejaVuSans-50"/>
      </g>
     </g>
    </g>
    <g id="ytick_17">
     <g id="line2d_23">
      <g>
       <use style="stroke:#000000;stroke-width:0.8;" x="258.247059" xlink:href="#m06f88877a9" y="102.988235"/>
      </g>
     </g>
     <g id="text_24">
      <!-- 14 -->
      <g transform="translate(238.522059 106.787454)scale(0.1 -0.1)">
       <use xlink:href="#DejaVuSans-49"/>
       <use x="63.623047" xlink:href="#DejaVuSans-52"/>
      </g>
     </g>
    </g>
    <g id="ytick_18">
     <g id="line2d_24">
      <g>
       <use style="stroke:#000000;stroke-width:0.8;" x="258.247059" xlink:href="#m06f88877a9" y="71.929412"/>
      </g>
     </g>
     <g id="text_25">
      <!-- 16 -->
      <g transform="translate(238.522059 75.728631)scale(0.1 -0.1)">
       <use xlink:href="#DejaVuSans-49"/>
       <use x="63.623047" xlink:href="#DejaVuSans-54"/>
      </g>
     </g>
    </g>
   </g>
   <g id="patch_48">
    <path d="M 258.247059 320.4 
L 258.247059 43.2 
" style="fill:none;stroke:#000000;stroke-linecap:square;stroke-linejoin:miter;stroke-width:0.8;"/>
   </g>
   <g id="patch_49">
    <path d="M 405.952941 320.4 
L 405.952941 43.2 
" style="fill:none;stroke:#000000;stroke-linecap:square;stroke-linejoin:miter;stroke-width:0.8;"/>
   </g>
   <g id="patch_50">
    <path d="M 258.247059 320.4 
L 405.952941 320.4 
" style="fill:none;stroke:#000000;stroke-linecap:square;stroke-linejoin:miter;stroke-width:0.8;"/>
   </g>
   <g id="patch_51">
    <path d="M 258.247059 43.2 
L 405.952941 43.2 
" style="fill:none;stroke:#000000;stroke-linecap:square;stroke-linejoin:miter;stroke-width:0.8;"/>
   </g>
   <g id="text_26">
    <!-- f(x)=ax+b -->
    <g transform="translate(274.463437 37.2)scale(0.22 -0.22)">
     <defs>
      <path d="M 46 62.703125 
L 46 35.5 
L 73.1875 35.5 
L 73.1875 27.203125 
L 46 27.203125 
L 46 0 
L 37.796875 0 
L 37.796875 27.203125 
L 10.59375 27.203125 
L 10.59375 35.5 
L 37.796875 35.5 
L 37.796875 62.703125 
z
" id="DejaVuSans-43"/>
      <path d="M 48.6875 27.296875 
Q 48.6875 37.203125 44.609375 42.84375 
Q 40.53125 48.484375 33.40625 48.484375 
Q 26.265625 48.484375 22.1875 42.84375 
Q 18.109375 37.203125 18.109375 27.296875 
Q 18.109375 17.390625 22.1875 11.75 
Q 26.265625 6.109375 33.40625 6.109375 
Q 40.53125 6.109375 44.609375 11.75 
Q 48.6875 17.390625 48.6875 27.296875 
z
M 18.109375 46.390625 
Q 20.953125 51.265625 25.265625 53.625 
Q 29.59375 56 35.59375 56 
Q 45.5625 56 51.78125 48.09375 
Q 58.015625 40.1875 58.015625 27.296875 
Q 58.015625 14.40625 51.78125 6.484375 
Q 45.5625 -1.421875 35.59375 -1.421875 
Q 29.59375 -1.421875 25.265625 0.953125 
Q 20.953125 3.328125 18.109375 8.203125 
L 18.109375 0 
L 9.078125 0 
L 9.078125 75.984375 
L 18.109375 75.984375 
z
" id="DejaVuSans-98"/>
     </defs>
     <use xlink:href="#DejaVuSans-102"/>
     <use x="35.205078" xlink:href="#DejaVuSans-40"/>
     <use x="74.21875" xlink:href="#DejaVuSans-120"/>
     <use x="133.398438" xlink:href="#DejaVuSans-41"/>
     <use x="172.412109" xlink:href="#DejaVuSans-61"/>
     <use x="256.201172" xlink:href="#DejaVuSans-97"/>
     <use x="317.480469" xlink:href="#DejaVuSans-120"/>
     <use x="376.660156" xlink:href="#DejaVuSans-43"/>
     <use x="460.449219" xlink:href="#DejaVuSans-98"/>
    </g>
   </g>
  </g>
  <g id="axes_3">
   <g id="patch_52">
    <path d="M 435.494118 320.4 
L 583.2 320.4 
L 583.2 43.2 
L 435.494118 43.2 
z
" style="fill:#ffffff;"/>
   </g>
   <g id="patch_53">
    <path clip-path="url(#p2e9076b6c6)" d="M 442.208021 320.4 
L 448.921925 320.4 
L 448.921925 304.870588 
L 442.208021 304.870588 
z
" style="fill:#800080;"/>
   </g>
   <g id="patch_54">
    <path clip-path="url(#p2e9076b6c6)" d="M 448.921925 320.4 
L 455.635829 320.4 
L 455.635829 320.4 
L 448.921925 320.4 
z
" style="fill:#800080;"/>
   </g>
   <g id="patch_55">
    <path clip-path="url(#p2e9076b6c6)" d="M 455.635829 320.4 
L 462.349733 320.4 
L 462.349733 304.870588 
L 455.635829 304.870588 
z
" style="fill:#800080;"/>
   </g>
   <g id="patch_56">
    <path clip-path="url(#p2e9076b6c6)" d="M 462.349733 320.4 
L 469.063636 320.4 
L 469.063636 320.4 
L 462.349733 320.4 
z
" style="fill:#800080;"/>
   </g>
   <g id="patch_57">
    <path clip-path="url(#p2e9076b6c6)" d="M 469.063636 320.4 
L 475.77754 320.4 
L 475.77754 320.4 
L 469.063636 320.4 
z
" style="fill:#800080;"/>
   </g>
   <g id="patch_58">
    <path clip-path="url(#p2e9076b6c6)" d="M 475.77754 320.4 
L 482.491444 320.4 
L 482.491444 289.341176 
L 475.77754 289.341176 
z
" style="fill:#800080;"/>
   </g>
   <g id="patch_59">
    <path clip-path="url(#p2e9076b6c6)" d="M 482.491444 320.4 
L 489.205348 320.4 
L 489.205348 289.341176 
L 482.491444 289.341176 
z
" style="fill:#800080;"/>
   </g>
   <g id="patch_60">
    <path clip-path="url(#p2e9076b6c6)" d="M 489.205348 320.4 
L 495.919251 320.4 
L 495.919251 304.870588 
L 489.205348 304.870588 
z
" style="fill:#800080;"/>
   </g>
   <g id="patch_61">
    <path clip-path="url(#p2e9076b6c6)" d="M 495.919251 320.4 
L 502.633155 320.4 
L 502.633155 304.870588 
L 495.919251 304.870588 
z
" style="fill:#800080;"/>
   </g>
   <g id="patch_62">
    <path clip-path="url(#p2e9076b6c6)" d="M 502.633155 320.4 
L 509.347059 320.4 
L 509.347059 258.282353 
L 502.633155 258.282353 
z
" style="fill:#800080;"/>
   </g>
   <g id="patch_63">
    <path clip-path="url(#p2e9076b6c6)" d="M 509.347059 320.4 
L 516.060963 320.4 
L 516.060963 196.164706 
L 509.347059 196.164706 
z
" style="fill:#800080;"/>
   </g>
   <g id="patch_64">
    <path clip-path="url(#p2e9076b6c6)" d="M 516.060963 320.4 
L 522.774866 320.4 
L 522.774866 211.694118 
L 516.060963 211.694118 
z
" style="fill:#800080;"/>
   </g>
   <g id="patch_65">
    <path clip-path="url(#p2e9076b6c6)" d="M 522.774866 320.4 
L 529.48877 320.4 
L 529.48877 149.576471 
L 522.774866 149.576471 
z
" style="fill:#800080;"/>
   </g>
   <g id="patch_66">
    <path clip-path="url(#p2e9076b6c6)" d="M 529.48877 320.4 
L 536.202674 320.4 
L 536.202674 71.929412 
L 529.48877 71.929412 
z
" style="fill:#800080;"/>
   </g>
   <g id="patch_67">
    <path clip-path="url(#p2e9076b6c6)" d="M 536.202674 320.4 
L 542.916578 320.4 
L 542.916578 134.047059 
L 536.202674 134.047059 
z
" style="fill:#800080;"/>
   </g>
   <g id="patch_68">
    <path clip-path="url(#p2e9076b6c6)" d="M 542.916578 320.4 
L 549.630481 320.4 
L 549.630481 165.105882 
L 542.916578 165.105882 
z
" style="fill:#800080;"/>
   </g>
   <g id="patch_69">
    <path clip-path="url(#p2e9076b6c6)" d="M 549.630481 320.4 
L 556.344385 320.4 
L 556.344385 118.517647 
L 549.630481 118.517647 
z
" style="fill:#800080;"/>
   </g>
   <g id="patch_70">
    <path clip-path="url(#p2e9076b6c6)" d="M 556.344385 320.4 
L 563.058289 320.4 
L 563.058289 242.752941 
L 556.344385 242.752941 
z
" style="fill:#800080;"/>
   </g>
   <g id="patch_71">
    <path clip-path="url(#p2e9076b6c6)" d="M 563.058289 320.4 
L 569.772193 320.4 
L 569.772193 258.282353 
L 563.058289 258.282353 
z
" style="fill:#800080;"/>
   </g>
   <g id="patch_72">
    <path clip-path="url(#p2e9076b6c6)" d="M 569.772193 320.4 
L 576.486096 320.4 
L 576.486096 289.341176 
L 569.772193 289.341176 
z
" style="fill:#800080;"/>
   </g>
   <g id="matplotlib.axis_5">
    <g id="xtick_7">
     <g id="line2d_25">
      <g>
       <use style="stroke:#000000;stroke-width:0.8;" x="476.646196" xlink:href="#md1435c655a" y="320.4"/>
      </g>
     </g>
     <g id="text_27">
      <!-- −0.2 -->
      <g transform="translate(464.50479 334.998438)scale(0.1 -0.1)">
       <use xlink:href="#DejaVuSans-8722"/>
       <use x="83.789062" xlink:href="#DejaVuSans-48"/>
       <use x="147.412109" xlink:href="#DejaVuSans-46"/>
       <use x="179.199219" xlink:href="#DejaVuSans-50"/>
      </g>
     </g>
    </g>
    <g id="xtick_8">
     <g id="line2d_26">
      <g>
       <use style="stroke:#000000;stroke-width:0.8;" x="533.157488" xlink:href="#md1435c655a" y="320.4"/>
      </g>
     </g>
     <g id="text_28">
      <!-- 0.0 -->
      <g transform="translate(525.205926 334.998438)scale(0.1 -0.1)">
       <use xlink:href="#DejaVuSans-48"/>
       <use x="63.623047" xlink:href="#DejaVuSans-46"/>
       <use x="95.410156" xlink:href="#DejaVuSans-48"/>
      </g>
     </g>
    </g>
   </g>
   <g id="matplotlib.axis_6">
    <g id="ytick_19">
     <g id="line2d_27">
      <g>
       <use style="stroke:#000000;stroke-width:0.8;" x="435.494118" xlink:href="#m06f88877a9" y="320.4"/>
      </g>
     </g>
     <g id="text_29">
      <!-- 0 -->
      <g transform="translate(422.131618 324.199219)scale(0.1 -0.1)">
       <use xlink:href="#DejaVuSans-48"/>
      </g>
     </g>
    </g>
    <g id="ytick_20">
     <g id="line2d_28">
      <g>
       <use style="stroke:#000000;stroke-width:0.8;" x="435.494118" xlink:href="#m06f88877a9" y="289.341176"/>
      </g>
     </g>
     <g id="text_30">
      <!-- 2 -->
      <g transform="translate(422.131618 293.140395)scale(0.1 -0.1)">
       <use xlink:href="#DejaVuSans-50"/>
      </g>
     </g>
    </g>
    <g id="ytick_21">
     <g id="line2d_29">
      <g>
       <use style="stroke:#000000;stroke-width:0.8;" x="435.494118" xlink:href="#m06f88877a9" y="258.282353"/>
      </g>
     </g>
     <g id="text_31">
      <!-- 4 -->
      <g transform="translate(422.131618 262.081572)scale(0.1 -0.1)">
       <use xlink:href="#DejaVuSans-52"/>
      </g>
     </g>
    </g>
    <g id="ytick_22">
     <g id="line2d_30">
      <g>
       <use style="stroke:#000000;stroke-width:0.8;" x="435.494118" xlink:href="#m06f88877a9" y="227.223529"/>
      </g>
     </g>
     <g id="text_32">
      <!-- 6 -->
      <g transform="translate(422.131618 231.022748)scale(0.1 -0.1)">
       <use xlink:href="#DejaVuSans-54"/>
      </g>
     </g>
    </g>
    <g id="ytick_23">
     <g id="line2d_31">
      <g>
       <use style="stroke:#000000;stroke-width:0.8;" x="435.494118" xlink:href="#m06f88877a9" y="196.164706"/>
      </g>
     </g>
     <g id="text_33">
      <!-- 8 -->
      <g transform="translate(422.131618 199.963925)scale(0.1 -0.1)">
       <use xlink:href="#DejaVuSans-56"/>
      </g>
     </g>
    </g>
    <g id="ytick_24">
     <g id="line2d_32">
      <g>
       <use style="stroke:#000000;stroke-width:0.8;" x="435.494118" xlink:href="#m06f88877a9" y="165.105882"/>
      </g>
     </g>
     <g id="text_34">
      <!-- 10 -->
      <g transform="translate(415.769118 168.905101)scale(0.1 -0.1)">
       <use xlink:href="#DejaVuSans-49"/>
       <use x="63.623047" xlink:href="#DejaVuSans-48"/>
      </g>
     </g>
    </g>
    <g id="ytick_25">
     <g id="line2d_33">
      <g>
       <use style="stroke:#000000;stroke-width:0.8;" x="435.494118" xlink:href="#m06f88877a9" y="134.047059"/>
      </g>
     </g>
     <g id="text_35">
      <!-- 12 -->
      <g transform="translate(415.769118 137.846278)scale(0.1 -0.1)">
       <use xlink:href="#DejaVuSans-49"/>
       <use x="63.623047" xlink:href="#DejaVuSans-50"/>
      </g>
     </g>
    </g>
    <g id="ytick_26">
     <g id="line2d_34">
      <g>
       <use style="stroke:#000000;stroke-width:0.8;" x="435.494118" xlink:href="#m06f88877a9" y="102.988235"/>
      </g>
     </g>
     <g id="text_36">
      <!-- 14 -->
      <g transform="translate(415.769118 106.787454)scale(0.1 -0.1)">
       <use xlink:href="#DejaVuSans-49"/>
       <use x="63.623047" xlink:href="#DejaVuSans-52"/>
      </g>
     </g>
    </g>
    <g id="ytick_27">
     <g id="line2d_35">
      <g>
       <use style="stroke:#000000;stroke-width:0.8;" x="435.494118" xlink:href="#m06f88877a9" y="71.929412"/>
      </g>
     </g>
     <g id="text_37">
      <!-- 16 -->
      <g transform="translate(415.769118 75.728631)scale(0.1 -0.1)">
       <use xlink:href="#DejaVuSans-49"/>
       <use x="63.623047" xlink:href="#DejaVuSans-54"/>
      </g>
     </g>
    </g>
   </g>
   <g id="patch_73">
    <path d="M 435.494118 320.4 
L 435.494118 43.2 
" style="fill:none;stroke:#000000;stroke-linecap:square;stroke-linejoin:miter;stroke-width:0.8;"/>
   </g>
   <g id="patch_74">
    <path d="M 583.2 320.4 
L 583.2 43.2 
" style="fill:none;stroke:#000000;stroke-linecap:square;stroke-linejoin:miter;stroke-width:0.8;"/>
   </g>
   <g id="patch_75">
    <path d="M 435.494118 320.4 
L 583.2 320.4 
" style="fill:none;stroke:#000000;stroke-linecap:square;stroke-linejoin:miter;stroke-width:0.8;"/>
   </g>
   <g id="patch_76">
    <path d="M 435.494118 43.2 
L 583.2 43.2 
" style="fill:none;stroke:#000000;stroke-linecap:square;stroke-linejoin:miter;stroke-width:0.8;"/>
   </g>
   <g id="text_38">
    <!-- f(x)=ax**2+bsin(x)+c -->
    <g transform="translate(387.594246 37.2)scale(0.22 -0.22)">
     <defs>
      <path d="M 47.015625 60.890625 
L 29.5 51.421875 
L 47.015625 41.890625 
L 44.1875 37.109375 
L 27.78125 47.015625 
L 27.78125 28.609375 
L 22.21875 28.609375 
L 22.21875 47.015625 
L 5.8125 37.109375 
L 2.984375 41.890625 
L 20.515625 51.421875 
L 2.984375 60.890625 
L 5.8125 65.71875 
L 22.21875 55.8125 
L 22.21875 74.21875 
L 27.78125 74.21875 
L 27.78125 55.8125 
L 44.1875 65.71875 
z
" id="DejaVuSans-42"/>
      <path d="M 44.28125 53.078125 
L 44.28125 44.578125 
Q 40.484375 46.53125 36.375 47.5 
Q 32.28125 48.484375 27.875 48.484375 
Q 21.1875 48.484375 17.84375 46.4375 
Q 14.5 44.390625 14.5 40.28125 
Q 14.5 37.15625 16.890625 35.375 
Q 19.28125 33.59375 26.515625 31.984375 
L 29.59375 31.296875 
Q 39.15625 29.25 43.1875 25.515625 
Q 47.21875 21.78125 47.21875 15.09375 
Q 47.21875 7.46875 41.1875 3.015625 
Q 35.15625 -1.421875 24.609375 -1.421875 
Q 20.21875 -1.421875 15.453125 -0.5625 
Q 10.6875 0.296875 5.421875 2 
L 5.421875 11.28125 
Q 10.40625 8.6875 15.234375 7.390625 
Q 20.0625 6.109375 24.8125 6.109375 
Q 31.15625 6.109375 34.5625 8.28125 
Q 37.984375 10.453125 37.984375 14.40625 
Q 37.984375 18.0625 35.515625 20.015625 
Q 33.0625 21.96875 24.703125 23.78125 
L 21.578125 24.515625 
Q 13.234375 26.265625 9.515625 29.90625 
Q 5.8125 33.546875 5.8125 39.890625 
Q 5.8125 47.609375 11.28125 51.796875 
Q 16.75 56 26.8125 56 
Q 31.78125 56 36.171875 55.265625 
Q 40.578125 54.546875 44.28125 53.078125 
z
" id="DejaVuSans-115"/>
      <path d="M 9.421875 54.6875 
L 18.40625 54.6875 
L 18.40625 0 
L 9.421875 0 
z
M 9.421875 75.984375 
L 18.40625 75.984375 
L 18.40625 64.59375 
L 9.421875 64.59375 
z
" id="DejaVuSans-105"/>
      <path d="M 54.890625 33.015625 
L 54.890625 0 
L 45.90625 0 
L 45.90625 32.71875 
Q 45.90625 40.484375 42.875 44.328125 
Q 39.84375 48.1875 33.796875 48.1875 
Q 26.515625 48.1875 22.3125 43.546875 
Q 18.109375 38.921875 18.109375 30.90625 
L 18.109375 0 
L 9.078125 0 
L 9.078125 54.6875 
L 18.109375 54.6875 
L 18.109375 46.1875 
Q 21.34375 51.125 25.703125 53.5625 
Q 30.078125 56 35.796875 56 
Q 45.21875 56 50.046875 50.171875 
Q 54.890625 44.34375 54.890625 33.015625 
z
" id="DejaVuSans-110"/>
      <path d="M 48.78125 52.59375 
L 48.78125 44.1875 
Q 44.96875 46.296875 41.140625 47.34375 
Q 37.3125 48.390625 33.40625 48.390625 
Q 24.65625 48.390625 19.8125 42.84375 
Q 14.984375 37.3125 14.984375 27.296875 
Q 14.984375 17.28125 19.8125 11.734375 
Q 24.65625 6.203125 33.40625 6.203125 
Q 37.3125 6.203125 41.140625 7.25 
Q 44.96875 8.296875 48.78125 10.40625 
L 48.78125 2.09375 
Q 45.015625 0.34375 40.984375 -0.53125 
Q 36.96875 -1.421875 32.421875 -1.421875 
Q 20.0625 -1.421875 12.78125 6.34375 
Q 5.515625 14.109375 5.515625 27.296875 
Q 5.515625 40.671875 12.859375 48.328125 
Q 20.21875 56 33.015625 56 
Q 37.15625 56 41.109375 55.140625 
Q 45.0625 54.296875 48.78125 52.59375 
z
" id="DejaVuSans-99"/>
     </defs>
     <use xlink:href="#DejaVuSans-102"/>
     <use x="35.205078" xlink:href="#DejaVuSans-40"/>
     <use x="74.21875" xlink:href="#DejaVuSans-120"/>
     <use x="133.398438" xlink:href="#DejaVuSans-41"/>
     <use x="172.412109" xlink:href="#DejaVuSans-61"/>
     <use x="256.201172" xlink:href="#DejaVuSans-97"/>
     <use x="317.480469" xlink:href="#DejaVuSans-120"/>
     <use x="376.660156" xlink:href="#DejaVuSans-42"/>
     <use x="426.660156" xlink:href="#DejaVuSans-42"/>
     <use x="476.660156" xlink:href="#DejaVuSans-50"/>
     <use x="540.283203" xlink:href="#DejaVuSans-43"/>
     <use x="624.072266" xlink:href="#DejaVuSans-98"/>
     <use x="687.548828" xlink:href="#DejaVuSans-115"/>
     <use x="739.648438" xlink:href="#DejaVuSans-105"/>
     <use x="767.431641" xlink:href="#DejaVuSans-110"/>
     <use x="830.810547" xlink:href="#DejaVuSans-40"/>
     <use x="869.824219" xlink:href="#DejaVuSans-120"/>
     <use x="929.003906" xlink:href="#DejaVuSans-41"/>
     <use x="968.017578" xlink:href="#DejaVuSans-43"/>
     <use x="1051.806641" xlink:href="#DejaVuSans-99"/>
    </g>
   </g>
  </g>
 </g>
 <defs>
  <clipPath id="pa1249129d5">
   <rect height="277.2" width="147.705882" x="81" y="43.2"/>
  </clipPath>
  <clipPath id="p523258ffe9">
   <rect height="277.2" width="147.705882" x="258.247059" y="43.2"/>
  </clipPath>
  <clipPath id="p2e9076b6c6">
   <rect height="277.2" width="147.705882" x="435.494118" y="43.2"/>
  </clipPath>
 </defs>
</svg>
