<?xml version="1.0" encoding="utf-8" standalone="no"?>
<!DOCTYPE svg PUBLIC "-//W3C//DTD SVG 1.1//EN"
  "http://www.w3.org/Graphics/SVG/1.1/DTD/svg11.dtd">
<!-- Created with matplotlib (https://matplotlib.org/) -->
<svg height="360pt" version="1.1" viewBox="0 0 648 360" width="648pt" xmlns="http://www.w3.org/2000/svg" xmlns:xlink="http://www.w3.org/1999/xlink">
 <metadata>
  <rdf:RDF xmlns:cc="http://creativecommons.org/ns#" xmlns:dc="http://purl.org/dc/elements/1.1/" xmlns:rdf="http://www.w3.org/1999/02/22-rdf-syntax-ns#">
   <cc:Work>
    <dc:type rdf:resource="http://purl.org/dc/dcmitype/StillImage"/>
    <dc:date>2021-01-19T11:51:33.444448</dc:date>
    <dc:format>image/svg+xml</dc:format>
    <dc:creator>
     <cc:Agent>
      <dc:title>Matplotlib v3.3.3, https://matplotlib.org/</dc:title>
     </cc:Agent>
    </dc:creator>
   </cc:Work>
  </rdf:RDF>
 </metadata>
 <defs>
  <style type="text/css">*{stroke-linecap:butt;stroke-linejoin:round;}</style>
 </defs>
 <g id="figure_1">
  <g id="patch_1">
   <path d="M 0 360 
L 648 360 
L 648 0 
L 0 0 
z
" style="fill:#ffffff;"/>
  </g>
  <g id="axes_1">
   <g id="patch_2">
    <path d="M 81 320.4 
L 309.272727 320.4 
L 309.272727 43.2 
L 81 43.2 
z
" style="fill:#ffffff;"/>
   </g>
   <g id="patch_3">
    <path clip-path="url(#pba6a41ce2b)" d="M 91.376033 320.4 
L 101.752066 320.4 
L 101.752066 263.008696 
L 91.376033 263.008696 
z
" style="fill:#0000ff;"/>
   </g>
   <g id="patch_4">
    <path clip-path="url(#pba6a41ce2b)" d="M 101.752066 320.4 
L 112.128099 320.4 
L 112.128099 297.443478 
L 101.752066 297.443478 
z
" style="fill:#0000ff;"/>
   </g>
   <g id="patch_5">
    <path clip-path="url(#pba6a41ce2b)" d="M 112.128099 320.4 
L 122.504132 320.4 
L 122.504132 297.443478 
L 112.128099 297.443478 
z
" style="fill:#0000ff;"/>
   </g>
   <g id="patch_6">
    <path clip-path="url(#pba6a41ce2b)" d="M 122.504132 320.4 
L 132.880165 320.4 
L 132.880165 228.573913 
L 122.504132 228.573913 
z
" style="fill:#0000ff;"/>
   </g>
   <g id="patch_7">
    <path clip-path="url(#pba6a41ce2b)" d="M 132.880165 320.4 
L 143.256198 320.4 
L 143.256198 263.008696 
L 132.880165 263.008696 
z
" style="fill:#0000ff;"/>
   </g>
   <g id="patch_8">
    <path clip-path="url(#pba6a41ce2b)" d="M 143.256198 320.4 
L 153.632231 320.4 
L 153.632231 217.095652 
L 143.256198 217.095652 
z
" style="fill:#0000ff;"/>
   </g>
   <g id="patch_9">
    <path clip-path="url(#pba6a41ce2b)" d="M 153.632231 320.4 
L 164.008264 320.4 
L 164.008264 56.4 
L 153.632231 56.4 
z
" style="fill:#0000ff;"/>
   </g>
   <g id="patch_10">
    <path clip-path="url(#pba6a41ce2b)" d="M 164.008264 320.4 
L 174.384298 320.4 
L 174.384298 171.182609 
L 164.008264 171.182609 
z
" style="fill:#0000ff;"/>
   </g>
   <g id="patch_11">
    <path clip-path="url(#pba6a41ce2b)" d="M 174.384298 320.4 
L 184.760331 320.4 
L 184.760331 217.095652 
L 174.384298 217.095652 
z
" style="fill:#0000ff;"/>
   </g>
   <g id="patch_12">
    <path clip-path="url(#pba6a41ce2b)" d="M 184.760331 320.4 
L 195.136364 320.4 
L 195.136364 285.965217 
L 184.760331 285.965217 
z
" style="fill:#0000ff;"/>
   </g>
   <g id="patch_13">
    <path clip-path="url(#pba6a41ce2b)" d="M 195.136364 320.4 
L 205.512397 320.4 
L 205.512397 297.443478 
L 195.136364 297.443478 
z
" style="fill:#0000ff;"/>
   </g>
   <g id="patch_14">
    <path clip-path="url(#pba6a41ce2b)" d="M 205.512397 320.4 
L 215.88843 320.4 
L 215.88843 205.617391 
L 205.512397 205.617391 
z
" style="fill:#0000ff;"/>
   </g>
   <g id="patch_15">
    <path clip-path="url(#pba6a41ce2b)" d="M 215.88843 320.4 
L 226.264463 320.4 
L 226.264463 308.921739 
L 215.88843 308.921739 
z
" style="fill:#0000ff;"/>
   </g>
   <g id="patch_16">
    <path clip-path="url(#pba6a41ce2b)" d="M 226.264463 320.4 
L 236.640496 320.4 
L 236.640496 285.965217 
L 226.264463 285.965217 
z
" style="fill:#0000ff;"/>
   </g>
   <g id="patch_17">
    <path clip-path="url(#pba6a41ce2b)" d="M 236.640496 320.4 
L 247.016529 320.4 
L 247.016529 320.4 
L 236.640496 320.4 
z
" style="fill:#0000ff;"/>
   </g>
   <g id="patch_18">
    <path clip-path="url(#pba6a41ce2b)" d="M 247.016529 320.4 
L 257.392562 320.4 
L 257.392562 308.921739 
L 247.016529 308.921739 
z
" style="fill:#0000ff;"/>
   </g>
   <g id="patch_19">
    <path clip-path="url(#pba6a41ce2b)" d="M 257.392562 320.4 
L 267.768595 320.4 
L 267.768595 308.921739 
L 257.392562 308.921739 
z
" style="fill:#0000ff;"/>
   </g>
   <g id="patch_20">
    <path clip-path="url(#pba6a41ce2b)" d="M 267.768595 320.4 
L 278.144628 320.4 
L 278.144628 320.4 
L 267.768595 320.4 
z
" style="fill:#0000ff;"/>
   </g>
   <g id="patch_21">
    <path clip-path="url(#pba6a41ce2b)" d="M 278.144628 320.4 
L 288.520661 320.4 
L 288.520661 320.4 
L 278.144628 320.4 
z
" style="fill:#0000ff;"/>
   </g>
   <g id="patch_22">
    <path clip-path="url(#pba6a41ce2b)" d="M 288.520661 320.4 
L 298.896694 320.4 
L 298.896694 285.965217 
L 288.520661 285.965217 
z
" style="fill:#0000ff;"/>
   </g>
   <g id="matplotlib.axis_1">
    <g id="xtick_1">
     <g id="line2d_1">
      <defs>
       <path d="M 0 0 
L 0 3.5 
" id="mabb8ee90cd" style="stroke:#000000;stroke-width:0.8;"/>
      </defs>
      <g>
       <use style="stroke:#000000;stroke-width:0.8;" x="120.287862" xlink:href="#mabb8ee90cd" y="320.4"/>
      </g>
     </g>
     <g id="text_1">
      <!-- −2 -->
      <g transform="translate(112.916768 334.998438)scale(0.1 -0.1)">
       <defs>
        <path d="M 10.59375 35.5 
L 73.1875 35.5 
L 73.1875 27.203125 
L 10.59375 27.203125 
z
" id="DejaVuSans-8722"/>
        <path d="M 19.1875 8.296875 
L 53.609375 8.296875 
L 53.609375 0 
L 7.328125 0 
L 7.328125 8.296875 
Q 12.9375 14.109375 22.625 23.890625 
Q 32.328125 33.6875 34.8125 36.53125 
Q 39.546875 41.84375 41.421875 45.53125 
Q 43.3125 49.21875 43.3125 52.78125 
Q 43.3125 58.59375 39.234375 62.25 
Q 35.15625 65.921875 28.609375 65.921875 
Q 23.96875 65.921875 18.8125 64.3125 
Q 13.671875 62.703125 7.8125 59.421875 
L 7.8125 69.390625 
Q 13.765625 71.78125 18.9375 73 
Q 24.125 74.21875 28.421875 74.21875 
Q 39.75 74.21875 46.484375 68.546875 
Q 53.21875 62.890625 53.21875 53.421875 
Q 53.21875 48.921875 51.53125 44.890625 
Q 49.859375 40.875 45.40625 35.40625 
Q 44.1875 33.984375 37.640625 27.21875 
Q 31.109375 20.453125 19.1875 8.296875 
z
" id="DejaVuSans-50"/>
       </defs>
       <use xlink:href="#DejaVuSans-8722"/>
       <use x="83.789062" xlink:href="#DejaVuSans-50"/>
      </g>
     </g>
    </g>
    <g id="xtick_2">
     <g id="line2d_2">
      <g>
       <use style="stroke:#000000;stroke-width:0.8;" x="168.34396" xlink:href="#mabb8ee90cd" y="320.4"/>
      </g>
     </g>
     <g id="text_2">
      <!-- 0 -->
      <g transform="translate(165.16271 334.998438)scale(0.1 -0.1)">
       <defs>
        <path d="M 31.78125 66.40625 
Q 24.171875 66.40625 20.328125 58.90625 
Q 16.5 51.421875 16.5 36.375 
Q 16.5 21.390625 20.328125 13.890625 
Q 24.171875 6.390625 31.78125 6.390625 
Q 39.453125 6.390625 43.28125 13.890625 
Q 47.125 21.390625 47.125 36.375 
Q 47.125 51.421875 43.28125 58.90625 
Q 39.453125 66.40625 31.78125 66.40625 
z
M 31.78125 74.21875 
Q 44.046875 74.21875 50.515625 64.515625 
Q 56.984375 54.828125 56.984375 36.375 
Q 56.984375 17.96875 50.515625 8.265625 
Q 44.046875 -1.421875 31.78125 -1.421875 
Q 19.53125 -1.421875 13.0625 8.265625 
Q 6.59375 17.96875 6.59375 36.375 
Q 6.59375 54.828125 13.0625 64.515625 
Q 19.53125 74.21875 31.78125 74.21875 
z
" id="DejaVuSans-48"/>
       </defs>
       <use xlink:href="#DejaVuSans-48"/>
      </g>
     </g>
    </g>
    <g id="xtick_3">
     <g id="line2d_3">
      <g>
       <use style="stroke:#000000;stroke-width:0.8;" x="216.400059" xlink:href="#mabb8ee90cd" y="320.4"/>
      </g>
     </g>
     <g id="text_3">
      <!-- 2 -->
      <g transform="translate(213.218809 334.998438)scale(0.1 -0.1)">
       <use xlink:href="#DejaVuSans-50"/>
      </g>
     </g>
    </g>
    <g id="xtick_4">
     <g id="line2d_4">
      <g>
       <use style="stroke:#000000;stroke-width:0.8;" x="264.456158" xlink:href="#mabb8ee90cd" y="320.4"/>
      </g>
     </g>
     <g id="text_4">
      <!-- 4 -->
      <g transform="translate(261.274908 334.998438)scale(0.1 -0.1)">
       <defs>
        <path d="M 37.796875 64.3125 
L 12.890625 25.390625 
L 37.796875 25.390625 
z
M 35.203125 72.90625 
L 47.609375 72.90625 
L 47.609375 25.390625 
L 58.015625 25.390625 
L 58.015625 17.1875 
L 47.609375 17.1875 
L 47.609375 0 
L 37.796875 0 
L 37.796875 17.1875 
L 4.890625 17.1875 
L 4.890625 26.703125 
z
" id="DejaVuSans-52"/>
       </defs>
       <use xlink:href="#DejaVuSans-52"/>
      </g>
     </g>
    </g>
   </g>
   <g id="matplotlib.axis_2">
    <g id="ytick_1">
     <g id="line2d_5">
      <defs>
       <path d="M 0 0 
L -3.5 0 
" id="m696bce46fb" style="stroke:#000000;stroke-width:0.8;"/>
      </defs>
      <g>
       <use style="stroke:#000000;stroke-width:0.8;" x="81" xlink:href="#m696bce46fb" y="320.4"/>
      </g>
     </g>
     <g id="text_5">
      <!-- 0 -->
      <g transform="translate(67.6375 324.199219)scale(0.1 -0.1)">
       <use xlink:href="#DejaVuSans-48"/>
      </g>
     </g>
    </g>
    <g id="ytick_2">
     <g id="line2d_6">
      <g>
       <use style="stroke:#000000;stroke-width:0.8;" x="81" xlink:href="#m696bce46fb" y="263.008696"/>
      </g>
     </g>
     <g id="text_6">
      <!-- 5 -->
      <g transform="translate(67.6375 266.807914)scale(0.1 -0.1)">
       <defs>
        <path d="M 10.796875 72.90625 
L 49.515625 72.90625 
L 49.515625 64.59375 
L 19.828125 64.59375 
L 19.828125 46.734375 
Q 21.96875 47.46875 24.109375 47.828125 
Q 26.265625 48.1875 28.421875 48.1875 
Q 40.625 48.1875 47.75 41.5 
Q 54.890625 34.8125 54.890625 23.390625 
Q 54.890625 11.625 47.5625 5.09375 
Q 40.234375 -1.421875 26.90625 -1.421875 
Q 22.3125 -1.421875 17.546875 -0.640625 
Q 12.796875 0.140625 7.71875 1.703125 
L 7.71875 11.625 
Q 12.109375 9.234375 16.796875 8.0625 
Q 21.484375 6.890625 26.703125 6.890625 
Q 35.15625 6.890625 40.078125 11.328125 
Q 45.015625 15.765625 45.015625 23.390625 
Q 45.015625 31 40.078125 35.4375 
Q 35.15625 39.890625 26.703125 39.890625 
Q 22.75 39.890625 18.8125 39.015625 
Q 14.890625 38.140625 10.796875 36.28125 
z
" id="DejaVuSans-53"/>
       </defs>
       <use xlink:href="#DejaVuSans-53"/>
      </g>
     </g>
    </g>
    <g id="ytick_3">
     <g id="line2d_7">
      <g>
       <use style="stroke:#000000;stroke-width:0.8;" x="81" xlink:href="#m696bce46fb" y="205.617391"/>
      </g>
     </g>
     <g id="text_7">
      <!-- 10 -->
      <g transform="translate(61.275 209.41661)scale(0.1 -0.1)">
       <defs>
        <path d="M 12.40625 8.296875 
L 28.515625 8.296875 
L 28.515625 63.921875 
L 10.984375 60.40625 
L 10.984375 69.390625 
L 28.421875 72.90625 
L 38.28125 72.90625 
L 38.28125 8.296875 
L 54.390625 8.296875 
L 54.390625 0 
L 12.40625 0 
z
" id="DejaVuSans-49"/>
       </defs>
       <use xlink:href="#DejaVuSans-49"/>
       <use x="63.623047" xlink:href="#DejaVuSans-48"/>
      </g>
     </g>
    </g>
    <g id="ytick_4">
     <g id="line2d_8">
      <g>
       <use style="stroke:#000000;stroke-width:0.8;" x="81" xlink:href="#m696bce46fb" y="148.226087"/>
      </g>
     </g>
     <g id="text_8">
      <!-- 15 -->
      <g transform="translate(61.275 152.025306)scale(0.1 -0.1)">
       <use xlink:href="#DejaVuSans-49"/>
       <use x="63.623047" xlink:href="#DejaVuSans-53"/>
      </g>
     </g>
    </g>
    <g id="ytick_5">
     <g id="line2d_9">
      <g>
       <use style="stroke:#000000;stroke-width:0.8;" x="81" xlink:href="#m696bce46fb" y="90.834783"/>
      </g>
     </g>
     <g id="text_9">
      <!-- 20 -->
      <g transform="translate(61.275 94.634001)scale(0.1 -0.1)">
       <use xlink:href="#DejaVuSans-50"/>
       <use x="63.623047" xlink:href="#DejaVuSans-48"/>
      </g>
     </g>
    </g>
   </g>
   <g id="patch_23">
    <path d="M 81 320.4 
L 81 43.2 
" style="fill:none;stroke:#000000;stroke-linecap:square;stroke-linejoin:miter;stroke-width:0.8;"/>
   </g>
   <g id="patch_24">
    <path d="M 309.272727 320.4 
L 309.272727 43.2 
" style="fill:none;stroke:#000000;stroke-linecap:square;stroke-linejoin:miter;stroke-width:0.8;"/>
   </g>
   <g id="patch_25">
    <path d="M 81 320.4 
L 309.272727 320.4 
" style="fill:none;stroke:#000000;stroke-linecap:square;stroke-linejoin:miter;stroke-width:0.8;"/>
   </g>
   <g id="patch_26">
    <path d="M 81 43.2 
L 309.272727 43.2 
" style="fill:none;stroke:#000000;stroke-linecap:square;stroke-linejoin:miter;stroke-width:0.8;"/>
   </g>
   <g id="text_10">
    <!-- f(X1, X2) = a * X1 + b * X2 + c -->
    <g transform="translate(117.423864 37.2)scale(0.1 -0.1)">
     <defs>
      <path d="M 37.109375 75.984375 
L 37.109375 68.5 
L 28.515625 68.5 
Q 23.6875 68.5 21.796875 66.546875 
Q 19.921875 64.59375 19.921875 59.515625 
L 19.921875 54.6875 
L 34.71875 54.6875 
L 34.71875 47.703125 
L 19.921875 47.703125 
L 19.921875 0 
L 10.890625 0 
L 10.890625 47.703125 
L 2.296875 47.703125 
L 2.296875 54.6875 
L 10.890625 54.6875 
L 10.890625 58.5 
Q 10.890625 67.625 15.140625 71.796875 
Q 19.390625 75.984375 28.609375 75.984375 
z
" id="DejaVuSans-102"/>
      <path d="M 31 75.875 
Q 24.46875 64.65625 21.28125 53.65625 
Q 18.109375 42.671875 18.109375 31.390625 
Q 18.109375 20.125 21.3125 9.0625 
Q 24.515625 -2 31 -13.1875 
L 23.1875 -13.1875 
Q 15.875 -1.703125 12.234375 9.375 
Q 8.59375 20.453125 8.59375 31.390625 
Q 8.59375 42.28125 12.203125 53.3125 
Q 15.828125 64.359375 23.1875 75.875 
z
" id="DejaVuSans-40"/>
      <path d="M 6.296875 72.90625 
L 16.890625 72.90625 
L 35.015625 45.796875 
L 53.21875 72.90625 
L 63.8125 72.90625 
L 40.375 37.890625 
L 65.375 0 
L 54.78125 0 
L 34.28125 31 
L 13.625 0 
L 2.984375 0 
L 29 38.921875 
z
" id="DejaVuSans-88"/>
      <path d="M 11.71875 12.40625 
L 22.015625 12.40625 
L 22.015625 4 
L 14.015625 -11.625 
L 7.71875 -11.625 
L 11.71875 4 
z
" id="DejaVuSans-44"/>
      <path id="DejaVuSans-32"/>
      <path d="M 8.015625 75.875 
L 15.828125 75.875 
Q 23.140625 64.359375 26.78125 53.3125 
Q 30.421875 42.28125 30.421875 31.390625 
Q 30.421875 20.453125 26.78125 9.375 
Q 23.140625 -1.703125 15.828125 -13.1875 
L 8.015625 -13.1875 
Q 14.5 -2 17.703125 9.0625 
Q 20.90625 20.125 20.90625 31.390625 
Q 20.90625 42.671875 17.703125 53.65625 
Q 14.5 64.65625 8.015625 75.875 
z
" id="DejaVuSans-41"/>
      <path d="M 10.59375 45.40625 
L 73.1875 45.40625 
L 73.1875 37.203125 
L 10.59375 37.203125 
z
M 10.59375 25.484375 
L 73.1875 25.484375 
L 73.1875 17.1875 
L 10.59375 17.1875 
z
" id="DejaVuSans-61"/>
      <path d="M 34.28125 27.484375 
Q 23.390625 27.484375 19.1875 25 
Q 14.984375 22.515625 14.984375 16.5 
Q 14.984375 11.71875 18.140625 8.90625 
Q 21.296875 6.109375 26.703125 6.109375 
Q 34.1875 6.109375 38.703125 11.40625 
Q 43.21875 16.703125 43.21875 25.484375 
L 43.21875 27.484375 
z
M 52.203125 31.203125 
L 52.203125 0 
L 43.21875 0 
L 43.21875 8.296875 
Q 40.140625 3.328125 35.546875 0.953125 
Q 30.953125 -1.421875 24.3125 -1.421875 
Q 15.921875 -1.421875 10.953125 3.296875 
Q 6 8.015625 6 15.921875 
Q 6 25.140625 12.171875 29.828125 
Q 18.359375 34.515625 30.609375 34.515625 
L 43.21875 34.515625 
L 43.21875 35.40625 
Q 43.21875 41.609375 39.140625 45 
Q 35.0625 48.390625 27.6875 48.390625 
Q 23 48.390625 18.546875 47.265625 
Q 14.109375 46.140625 10.015625 43.890625 
L 10.015625 52.203125 
Q 14.9375 54.109375 19.578125 55.046875 
Q 24.21875 56 28.609375 56 
Q 40.484375 56 46.34375 49.84375 
Q 52.203125 43.703125 52.203125 31.203125 
z
" id="DejaVuSans-97"/>
      <path d="M 47.015625 60.890625 
L 29.5 51.421875 
L 47.015625 41.890625 
L 44.1875 37.109375 
L 27.78125 47.015625 
L 27.78125 28.609375 
L 22.21875 28.609375 
L 22.21875 47.015625 
L 5.8125 37.109375 
L 2.984375 41.890625 
L 20.515625 51.421875 
L 2.984375 60.890625 
L 5.8125 65.71875 
L 22.21875 55.8125 
L 22.21875 74.21875 
L 27.78125 74.21875 
L 27.78125 55.8125 
L 44.1875 65.71875 
z
" id="DejaVuSans-42"/>
      <path d="M 46 62.703125 
L 46 35.5 
L 73.1875 35.5 
L 73.1875 27.203125 
L 46 27.203125 
L 46 0 
L 37.796875 0 
L 37.796875 27.203125 
L 10.59375 27.203125 
L 10.59375 35.5 
L 37.796875 35.5 
L 37.796875 62.703125 
z
" id="DejaVuSans-43"/>
      <path d="M 48.6875 27.296875 
Q 48.6875 37.203125 44.609375 42.84375 
Q 40.53125 48.484375 33.40625 48.484375 
Q 26.265625 48.484375 22.1875 42.84375 
Q 18.109375 37.203125 18.109375 27.296875 
Q 18.109375 17.390625 22.1875 11.75 
Q 26.265625 6.109375 33.40625 6.109375 
Q 40.53125 6.109375 44.609375 11.75 
Q 48.6875 17.390625 48.6875 27.296875 
z
M 18.109375 46.390625 
Q 20.953125 51.265625 25.265625 53.625 
Q 29.59375 56 35.59375 56 
Q 45.5625 56 51.78125 48.09375 
Q 58.015625 40.1875 58.015625 27.296875 
Q 58.015625 14.40625 51.78125 6.484375 
Q 45.5625 -1.421875 35.59375 -1.421875 
Q 29.59375 -1.421875 25.265625 0.953125 
Q 20.953125 3.328125 18.109375 8.203125 
L 18.109375 0 
L 9.078125 0 
L 9.078125 75.984375 
L 18.109375 75.984375 
z
" id="DejaVuSans-98"/>
      <path d="M 48.78125 52.59375 
L 48.78125 44.1875 
Q 44.96875 46.296875 41.140625 47.34375 
Q 37.3125 48.390625 33.40625 48.390625 
Q 24.65625 48.390625 19.8125 42.84375 
Q 14.984375 37.3125 14.984375 27.296875 
Q 14.984375 17.28125 19.8125 11.734375 
Q 24.65625 6.203125 33.40625 6.203125 
Q 37.3125 6.203125 41.140625 7.25 
Q 44.96875 8.296875 48.78125 10.40625 
L 48.78125 2.09375 
Q 45.015625 0.34375 40.984375 -0.53125 
Q 36.96875 -1.421875 32.421875 -1.421875 
Q 20.0625 -1.421875 12.78125 6.34375 
Q 5.515625 14.109375 5.515625 27.296875 
Q 5.515625 40.671875 12.859375 48.328125 
Q 20.21875 56 33.015625 56 
Q 37.15625 56 41.109375 55.140625 
Q 45.0625 54.296875 48.78125 52.59375 
z
" id="DejaVuSans-99"/>
     </defs>
     <use xlink:href="#DejaVuSans-102"/>
     <use x="35.205078" xlink:href="#DejaVuSans-40"/>
     <use x="74.21875" xlink:href="#DejaVuSans-88"/>
     <use x="142.724609" xlink:href="#DejaVuSans-49"/>
     <use x="206.347656" xlink:href="#DejaVuSans-44"/>
     <use x="238.134766" xlink:href="#DejaVuSans-32"/>
     <use x="269.921875" xlink:href="#DejaVuSans-88"/>
     <use x="338.427734" xlink:href="#DejaVuSans-50"/>
     <use x="402.050781" xlink:href="#DejaVuSans-41"/>
     <use x="441.064453" xlink:href="#DejaVuSans-32"/>
     <use x="472.851562" xlink:href="#DejaVuSans-61"/>
     <use x="556.640625" xlink:href="#DejaVuSans-32"/>
     <use x="588.427734" xlink:href="#DejaVuSans-97"/>
     <use x="649.707031" xlink:href="#DejaVuSans-32"/>
     <use x="681.494141" xlink:href="#DejaVuSans-42"/>
     <use x="731.494141" xlink:href="#DejaVuSans-32"/>
     <use x="763.28125" xlink:href="#DejaVuSans-88"/>
     <use x="831.787109" xlink:href="#DejaVuSans-49"/>
     <use x="895.410156" xlink:href="#DejaVuSans-32"/>
     <use x="927.197266" xlink:href="#DejaVuSans-43"/>
     <use x="1010.986328" xlink:href="#DejaVuSans-32"/>
     <use x="1042.773438" xlink:href="#DejaVuSans-98"/>
     <use x="1106.25" xlink:href="#DejaVuSans-32"/>
     <use x="1138.037109" xlink:href="#DejaVuSans-42"/>
     <use x="1188.037109" xlink:href="#DejaVuSans-32"/>
     <use x="1219.824219" xlink:href="#DejaVuSans-88"/>
     <use x="1288.330078" xlink:href="#DejaVuSans-50"/>
     <use x="1351.953125" xlink:href="#DejaVuSans-32"/>
     <use x="1383.740234" xlink:href="#DejaVuSans-43"/>
     <use x="1467.529297" xlink:href="#DejaVuSans-32"/>
     <use x="1499.316406" xlink:href="#DejaVuSans-99"/>
    </g>
   </g>
  </g>
  <g id="axes_2">
   <g id="patch_27">
    <path d="M 354.927273 320.4 
L 583.2 320.4 
L 583.2 43.2 
L 354.927273 43.2 
z
" style="fill:#ffffff;"/>
   </g>
   <g id="patch_28">
    <path clip-path="url(#pc22bf51cf0)" d="M 365.303306 320.4 
L 375.679339 320.4 
L 375.679339 308.921739 
L 365.303306 308.921739 
z
" style="fill:#008000;"/>
   </g>
   <g id="patch_29">
    <path clip-path="url(#pc22bf51cf0)" d="M 375.679339 320.4 
L 386.055372 320.4 
L 386.055372 308.921739 
L 375.679339 308.921739 
z
" style="fill:#008000;"/>
   </g>
   <g id="patch_30">
    <path clip-path="url(#pc22bf51cf0)" d="M 386.055372 320.4 
L 396.431405 320.4 
L 396.431405 320.4 
L 386.055372 320.4 
z
" style="fill:#008000;"/>
   </g>
   <g id="patch_31">
    <path clip-path="url(#pc22bf51cf0)" d="M 396.431405 320.4 
L 406.807438 320.4 
L 406.807438 285.965217 
L 396.431405 285.965217 
z
" style="fill:#008000;"/>
   </g>
   <g id="patch_32">
    <path clip-path="url(#pc22bf51cf0)" d="M 406.807438 320.4 
L 417.183471 320.4 
L 417.183471 274.486957 
L 406.807438 274.486957 
z
" style="fill:#008000;"/>
   </g>
   <g id="patch_33">
    <path clip-path="url(#pc22bf51cf0)" d="M 417.183471 320.4 
L 427.559504 320.4 
L 427.559504 240.052174 
L 417.183471 240.052174 
z
" style="fill:#008000;"/>
   </g>
   <g id="patch_34">
    <path clip-path="url(#pc22bf51cf0)" d="M 427.559504 320.4 
L 437.935537 320.4 
L 437.935537 263.008696 
L 427.559504 263.008696 
z
" style="fill:#008000;"/>
   </g>
   <g id="patch_35">
    <path clip-path="url(#pc22bf51cf0)" d="M 437.935537 320.4 
L 448.31157 320.4 
L 448.31157 205.617391 
L 437.935537 205.617391 
z
" style="fill:#008000;"/>
   </g>
   <g id="patch_36">
    <path clip-path="url(#pc22bf51cf0)" d="M 448.31157 320.4 
L 458.687603 320.4 
L 458.687603 67.878261 
L 448.31157 67.878261 
z
" style="fill:#008000;"/>
   </g>
   <g id="patch_37">
    <path clip-path="url(#pc22bf51cf0)" d="M 458.687603 320.4 
L 469.063636 320.4 
L 469.063636 148.226087 
L 458.687603 148.226087 
z
" style="fill:#008000;"/>
   </g>
   <g id="patch_38">
    <path clip-path="url(#pc22bf51cf0)" d="M 469.063636 320.4 
L 479.439669 320.4 
L 479.439669 171.182609 
L 469.063636 171.182609 
z
" style="fill:#008000;"/>
   </g>
   <g id="patch_39">
    <path clip-path="url(#pc22bf51cf0)" d="M 479.439669 320.4 
L 489.815702 320.4 
L 489.815702 263.008696 
L 479.439669 263.008696 
z
" style="fill:#008000;"/>
   </g>
   <g id="patch_40">
    <path clip-path="url(#pc22bf51cf0)" d="M 489.815702 320.4 
L 500.191736 320.4 
L 500.191736 263.008696 
L 489.815702 263.008696 
z
" style="fill:#008000;"/>
   </g>
   <g id="patch_41">
    <path clip-path="url(#pc22bf51cf0)" d="M 500.191736 320.4 
L 510.567769 320.4 
L 510.567769 308.921739 
L 500.191736 308.921739 
z
" style="fill:#008000;"/>
   </g>
   <g id="patch_42">
    <path clip-path="url(#pc22bf51cf0)" d="M 510.567769 320.4 
L 520.943802 320.4 
L 520.943802 285.965217 
L 510.567769 285.965217 
z
" style="fill:#008000;"/>
   </g>
   <g id="patch_43">
    <path clip-path="url(#pc22bf51cf0)" d="M 520.943802 320.4 
L 531.319835 320.4 
L 531.319835 297.443478 
L 520.943802 297.443478 
z
" style="fill:#008000;"/>
   </g>
   <g id="patch_44">
    <path clip-path="url(#pc22bf51cf0)" d="M 531.319835 320.4 
L 541.695868 320.4 
L 541.695868 308.921739 
L 531.319835 308.921739 
z
" style="fill:#008000;"/>
   </g>
   <g id="patch_45">
    <path clip-path="url(#pc22bf51cf0)" d="M 541.695868 320.4 
L 552.071901 320.4 
L 552.071901 320.4 
L 541.695868 320.4 
z
" style="fill:#008000;"/>
   </g>
   <g id="patch_46">
    <path clip-path="url(#pc22bf51cf0)" d="M 552.071901 320.4 
L 562.447934 320.4 
L 562.447934 308.921739 
L 552.071901 308.921739 
z
" style="fill:#008000;"/>
   </g>
   <g id="patch_47">
    <path clip-path="url(#pc22bf51cf0)" d="M 562.447934 320.4 
L 572.823967 320.4 
L 572.823967 308.921739 
L 562.447934 308.921739 
z
" style="fill:#008000;"/>
   </g>
   <g id="matplotlib.axis_3">
    <g id="xtick_5">
     <g id="line2d_10">
      <g>
       <use style="stroke:#000000;stroke-width:0.8;" x="373.069307" xlink:href="#mabb8ee90cd" y="320.4"/>
      </g>
     </g>
     <g id="text_11">
      <!-- −0.2 -->
      <g transform="translate(360.9279 334.998438)scale(0.1 -0.1)">
       <defs>
        <path d="M 10.6875 12.40625 
L 21 12.40625 
L 21 0 
L 10.6875 0 
z
" id="DejaVuSans-46"/>
       </defs>
       <use xlink:href="#DejaVuSans-8722"/>
       <use x="83.789062" xlink:href="#DejaVuSans-48"/>
       <use x="147.412109" xlink:href="#DejaVuSans-46"/>
       <use x="179.199219" xlink:href="#DejaVuSans-50"/>
      </g>
     </g>
    </g>
    <g id="xtick_6">
     <g id="line2d_11">
      <g>
       <use style="stroke:#000000;stroke-width:0.8;" x="416.091477" xlink:href="#mabb8ee90cd" y="320.4"/>
      </g>
     </g>
     <g id="text_12">
      <!-- −0.1 -->
      <g transform="translate(403.950071 334.998438)scale(0.1 -0.1)">
       <use xlink:href="#DejaVuSans-8722"/>
       <use x="83.789062" xlink:href="#DejaVuSans-48"/>
       <use x="147.412109" xlink:href="#DejaVuSans-46"/>
       <use x="179.199219" xlink:href="#DejaVuSans-49"/>
      </g>
     </g>
    </g>
    <g id="xtick_7">
     <g id="line2d_12">
      <g>
       <use style="stroke:#000000;stroke-width:0.8;" x="459.113648" xlink:href="#mabb8ee90cd" y="320.4"/>
      </g>
     </g>
     <g id="text_13">
      <!-- 0.0 -->
      <g transform="translate(451.162086 334.998438)scale(0.1 -0.1)">
       <use xlink:href="#DejaVuSans-48"/>
       <use x="63.623047" xlink:href="#DejaVuSans-46"/>
       <use x="95.410156" xlink:href="#DejaVuSans-48"/>
      </g>
     </g>
    </g>
    <g id="xtick_8">
     <g id="line2d_13">
      <g>
       <use style="stroke:#000000;stroke-width:0.8;" x="502.135819" xlink:href="#mabb8ee90cd" y="320.4"/>
      </g>
     </g>
     <g id="text_14">
      <!-- 0.1 -->
      <g transform="translate(494.184257 334.998438)scale(0.1 -0.1)">
       <use xlink:href="#DejaVuSans-48"/>
       <use x="63.623047" xlink:href="#DejaVuSans-46"/>
       <use x="95.410156" xlink:href="#DejaVuSans-49"/>
      </g>
     </g>
    </g>
    <g id="xtick_9">
     <g id="line2d_14">
      <g>
       <use style="stroke:#000000;stroke-width:0.8;" x="545.15799" xlink:href="#mabb8ee90cd" y="320.4"/>
      </g>
     </g>
     <g id="text_15">
      <!-- 0.2 -->
      <g transform="translate(537.206428 334.998438)scale(0.1 -0.1)">
       <use xlink:href="#DejaVuSans-48"/>
       <use x="63.623047" xlink:href="#DejaVuSans-46"/>
       <use x="95.410156" xlink:href="#DejaVuSans-50"/>
      </g>
     </g>
    </g>
   </g>
   <g id="matplotlib.axis_4">
    <g id="ytick_6">
     <g id="line2d_15">
      <g>
       <use style="stroke:#000000;stroke-width:0.8;" x="354.927273" xlink:href="#m696bce46fb" y="320.4"/>
      </g>
     </g>
     <g id="text_16">
      <!-- 0 -->
      <g transform="translate(341.564773 324.199219)scale(0.1 -0.1)">
       <use xlink:href="#DejaVuSans-48"/>
      </g>
     </g>
    </g>
    <g id="ytick_7">
     <g id="line2d_16">
      <g>
       <use style="stroke:#000000;stroke-width:0.8;" x="354.927273" xlink:href="#m696bce46fb" y="263.008696"/>
      </g>
     </g>
     <g id="text_17">
      <!-- 5 -->
      <g transform="translate(341.564773 266.807914)scale(0.1 -0.1)">
       <use xlink:href="#DejaVuSans-53"/>
      </g>
     </g>
    </g>
    <g id="ytick_8">
     <g id="line2d_17">
      <g>
       <use style="stroke:#000000;stroke-width:0.8;" x="354.927273" xlink:href="#m696bce46fb" y="205.617391"/>
      </g>
     </g>
     <g id="text_18">
      <!-- 10 -->
      <g transform="translate(335.202273 209.41661)scale(0.1 -0.1)">
       <use xlink:href="#DejaVuSans-49"/>
       <use x="63.623047" xlink:href="#DejaVuSans-48"/>
      </g>
     </g>
    </g>
    <g id="ytick_9">
     <g id="line2d_18">
      <g>
       <use style="stroke:#000000;stroke-width:0.8;" x="354.927273" xlink:href="#m696bce46fb" y="148.226087"/>
      </g>
     </g>
     <g id="text_19">
      <!-- 15 -->
      <g transform="translate(335.202273 152.025306)scale(0.1 -0.1)">
       <use xlink:href="#DejaVuSans-49"/>
       <use x="63.623047" xlink:href="#DejaVuSans-53"/>
      </g>
     </g>
    </g>
    <g id="ytick_10">
     <g id="line2d_19">
      <g>
       <use style="stroke:#000000;stroke-width:0.8;" x="354.927273" xlink:href="#m696bce46fb" y="90.834783"/>
      </g>
     </g>
     <g id="text_20">
      <!-- 20 -->
      <g transform="translate(335.202273 94.634001)scale(0.1 -0.1)">
       <use xlink:href="#DejaVuSans-50"/>
       <use x="63.623047" xlink:href="#DejaVuSans-48"/>
      </g>
     </g>
    </g>
   </g>
   <g id="patch_48">
    <path d="M 354.927273 320.4 
L 354.927273 43.2 
" style="fill:none;stroke:#000000;stroke-linecap:square;stroke-linejoin:miter;stroke-width:0.8;"/>
   </g>
   <g id="patch_49">
    <path d="M 583.2 320.4 
L 583.2 43.2 
" style="fill:none;stroke:#000000;stroke-linecap:square;stroke-linejoin:miter;stroke-width:0.8;"/>
   </g>
   <g id="patch_50">
    <path d="M 354.927273 320.4 
L 583.2 320.4 
" style="fill:none;stroke:#000000;stroke-linecap:square;stroke-linejoin:miter;stroke-width:0.8;"/>
   </g>
   <g id="patch_51">
    <path d="M 354.927273 43.2 
L 583.2 43.2 
" style="fill:none;stroke:#000000;stroke-linecap:square;stroke-linejoin:miter;stroke-width:0.8;"/>
   </g>
   <g id="text_21">
    <!-- f(X1, X2) = a * X1**2 + b * X1*X2 + c * X2**2 +  -->
    <g transform="translate(346.230043 26.002187)scale(0.1 -0.1)">
     <use xlink:href="#DejaVuSans-102"/>
     <use x="35.205078" xlink:href="#DejaVuSans-40"/>
     <use x="74.21875" xlink:href="#DejaVuSans-88"/>
     <use x="142.724609" xlink:href="#DejaVuSans-49"/>
     <use x="206.347656" xlink:href="#DejaVuSans-44"/>
     <use x="238.134766" xlink:href="#DejaVuSans-32"/>
     <use x="269.921875" xlink:href="#DejaVuSans-88"/>
     <use x="338.427734" xlink:href="#DejaVuSans-50"/>
     <use x="402.050781" xlink:href="#DejaVuSans-41"/>
     <use x="441.064453" xlink:href="#DejaVuSans-32"/>
     <use x="472.851562" xlink:href="#DejaVuSans-61"/>
     <use x="556.640625" xlink:href="#DejaVuSans-32"/>
     <use x="588.427734" xlink:href="#DejaVuSans-97"/>
     <use x="649.707031" xlink:href="#DejaVuSans-32"/>
     <use x="681.494141" xlink:href="#DejaVuSans-42"/>
     <use x="731.494141" xlink:href="#DejaVuSans-32"/>
     <use x="763.28125" xlink:href="#DejaVuSans-88"/>
     <use x="831.787109" xlink:href="#DejaVuSans-49"/>
     <use x="895.410156" xlink:href="#DejaVuSans-42"/>
     <use x="945.410156" xlink:href="#DejaVuSans-42"/>
     <use x="995.410156" xlink:href="#DejaVuSans-50"/>
     <use x="1059.033203" xlink:href="#DejaVuSans-32"/>
     <use x="1090.820312" xlink:href="#DejaVuSans-43"/>
     <use x="1174.609375" xlink:href="#DejaVuSans-32"/>
     <use x="1206.396484" xlink:href="#DejaVuSans-98"/>
     <use x="1269.873047" xlink:href="#DejaVuSans-32"/>
     <use x="1301.660156" xlink:href="#DejaVuSans-42"/>
     <use x="1351.660156" xlink:href="#DejaVuSans-32"/>
     <use x="1383.447266" xlink:href="#DejaVuSans-88"/>
     <use x="1451.953125" xlink:href="#DejaVuSans-49"/>
     <use x="1515.576172" xlink:href="#DejaVuSans-42"/>
     <use x="1565.576172" xlink:href="#DejaVuSans-88"/>
     <use x="1634.082031" xlink:href="#DejaVuSans-50"/>
     <use x="1697.705078" xlink:href="#DejaVuSans-32"/>
     <use x="1729.492188" xlink:href="#DejaVuSans-43"/>
     <use x="1813.28125" xlink:href="#DejaVuSans-32"/>
     <use x="1845.068359" xlink:href="#DejaVuSans-99"/>
     <use x="1900.048828" xlink:href="#DejaVuSans-32"/>
     <use x="1931.835938" xlink:href="#DejaVuSans-42"/>
     <use x="1981.835938" xlink:href="#DejaVuSans-32"/>
     <use x="2013.623047" xlink:href="#DejaVuSans-88"/>
     <use x="2082.128906" xlink:href="#DejaVuSans-50"/>
     <use x="2145.751953" xlink:href="#DejaVuSans-42"/>
     <use x="2195.751953" xlink:href="#DejaVuSans-42"/>
     <use x="2245.751953" xlink:href="#DejaVuSans-50"/>
     <use x="2309.375" xlink:href="#DejaVuSans-32"/>
     <use x="2341.162109" xlink:href="#DejaVuSans-43"/>
     <use x="2424.951172" xlink:href="#DejaVuSans-32"/>
    </g>
    <!-- d * X1 + e * X2 + f -->
    <g transform="translate(421.748011 37.2)scale(0.1 -0.1)">
     <defs>
      <path d="M 45.40625 46.390625 
L 45.40625 75.984375 
L 54.390625 75.984375 
L 54.390625 0 
L 45.40625 0 
L 45.40625 8.203125 
Q 42.578125 3.328125 38.25 0.953125 
Q 33.9375 -1.421875 27.875 -1.421875 
Q 17.96875 -1.421875 11.734375 6.484375 
Q 5.515625 14.40625 5.515625 27.296875 
Q 5.515625 40.1875 11.734375 48.09375 
Q 17.96875 56 27.875 56 
Q 33.9375 56 38.25 53.625 
Q 42.578125 51.265625 45.40625 46.390625 
z
M 14.796875 27.296875 
Q 14.796875 17.390625 18.875 11.75 
Q 22.953125 6.109375 30.078125 6.109375 
Q 37.203125 6.109375 41.296875 11.75 
Q 45.40625 17.390625 45.40625 27.296875 
Q 45.40625 37.203125 41.296875 42.84375 
Q 37.203125 48.484375 30.078125 48.484375 
Q 22.953125 48.484375 18.875 42.84375 
Q 14.796875 37.203125 14.796875 27.296875 
z
" id="DejaVuSans-100"/>
      <path d="M 56.203125 29.59375 
L 56.203125 25.203125 
L 14.890625 25.203125 
Q 15.484375 15.921875 20.484375 11.0625 
Q 25.484375 6.203125 34.421875 6.203125 
Q 39.59375 6.203125 44.453125 7.46875 
Q 49.3125 8.734375 54.109375 11.28125 
L 54.109375 2.78125 
Q 49.265625 0.734375 44.1875 -0.34375 
Q 39.109375 -1.421875 33.890625 -1.421875 
Q 20.796875 -1.421875 13.15625 6.1875 
Q 5.515625 13.8125 5.515625 26.8125 
Q 5.515625 40.234375 12.765625 48.109375 
Q 20.015625 56 32.328125 56 
Q 43.359375 56 49.78125 48.890625 
Q 56.203125 41.796875 56.203125 29.59375 
z
M 47.21875 32.234375 
Q 47.125 39.59375 43.09375 43.984375 
Q 39.0625 48.390625 32.421875 48.390625 
Q 24.90625 48.390625 20.390625 44.140625 
Q 15.875 39.890625 15.1875 32.171875 
z
" id="DejaVuSans-101"/>
     </defs>
     <use xlink:href="#DejaVuSans-100"/>
     <use x="63.476562" xlink:href="#DejaVuSans-32"/>
     <use x="95.263672" xlink:href="#DejaVuSans-42"/>
     <use x="145.263672" xlink:href="#DejaVuSans-32"/>
     <use x="177.050781" xlink:href="#DejaVuSans-88"/>
     <use x="245.556641" xlink:href="#DejaVuSans-49"/>
     <use x="309.179688" xlink:href="#DejaVuSans-32"/>
     <use x="340.966797" xlink:href="#DejaVuSans-43"/>
     <use x="424.755859" xlink:href="#DejaVuSans-32"/>
     <use x="456.542969" xlink:href="#DejaVuSans-101"/>
     <use x="518.066406" xlink:href="#DejaVuSans-32"/>
     <use x="549.853516" xlink:href="#DejaVuSans-42"/>
     <use x="599.853516" xlink:href="#DejaVuSans-32"/>
     <use x="631.640625" xlink:href="#DejaVuSans-88"/>
     <use x="700.146484" xlink:href="#DejaVuSans-50"/>
     <use x="763.769531" xlink:href="#DejaVuSans-32"/>
     <use x="795.556641" xlink:href="#DejaVuSans-43"/>
     <use x="879.345703" xlink:href="#DejaVuSans-32"/>
     <use x="911.132812" xlink:href="#DejaVuSans-102"/>
    </g>
   </g>
  </g>
 </g>
 <defs>
  <clipPath id="pba6a41ce2b">
   <rect height="277.2" width="228.272727" x="81" y="43.2"/>
  </clipPath>
  <clipPath id="pc22bf51cf0">
   <rect height="277.2" width="228.272727" x="354.927273" y="43.2"/>
  </clipPath>
 </defs>
</svg>
